<svg id="Layer_1" data-name="Layer 1" xmlns="http://www.w3.org/2000/svg" xmlns:xlink="http://www.w3.org/1999/xlink" viewBox="0 0 516 314"><defs><style>.cls-1,.cls-16,.cls-17,.cls-22,.cls-23,.cls-24,.cls-25,.cls-30,.cls-31,.cls-32,.cls-33,.cls-34,.cls-35,.cls-36,.cls-38,.cls-39,.cls-40,.cls-41,.cls-5,.cls-7,.cls-8{fill:none;}.cls-2{opacity:0.08;}.cls-19,.cls-20,.cls-3{fill:#252937;}.cls-4{fill:#ddd;}.cls-22,.cls-23,.cls-24,.cls-5,.cls-7{stroke:#b5b8c4;}.cls-16,.cls-22,.cls-23,.cls-24,.cls-30,.cls-31,.cls-32,.cls-34,.cls-35,.cls-36,.cls-39,.cls-40,.cls-41,.cls-5{stroke-miterlimit:10;}.cls-6{fill:#fff;}.cls-17,.cls-25,.cls-33,.cls-38,.cls-7,.cls-8{stroke-linejoin:round;}.cls-8{stroke:#ca2171;}.cls-9{fill:#ca2171;}.cls-10{clip-path:url(#clip-path);}.cls-11{clip-path:url(#clip-path-2);}.cls-12{clip-path:url(#clip-path-3);}.cls-13{clip-path:url(#clip-path-4);}.cls-14{clip-path:url(#clip-path-5);}.cls-15{opacity:0.3;}.cls-16,.cls-17{stroke:#cfd1d9;}.cls-18,.cls-19{opacity:0.05;}.cls-20,.cls-21{opacity:0.1;}.cls-22,.cls-23,.cls-24,.cls-30,.cls-31,.cls-32,.cls-34,.cls-35,.cls-36,.cls-39,.cls-40,.cls-41{stroke-linecap:round;}.cls-23,.cls-31,.cls-35,.cls-40{stroke-dasharray:1 3;}.cls-24,.cls-36{stroke-dasharray:1 3;}.cls-25,.cls-30,.cls-31,.cls-32{stroke:#4d8cf5;}.cls-26{fill:#fbc014;}.cls-27{fill:#eb493c;}.cls-28{fill:#4d8cf5;}.cls-29{fill:#e2e2e2;}.cls-32,.cls-41{stroke-dasharray:1 3;}.cls-33,.cls-34,.cls-35,.cls-36{stroke:#0478d7;}.cls-37{fill:#015be2;}.cls-38,.cls-39,.cls-40,.cls-41{stroke:#f7971d;}.cls-42{fill:#232f3e;}.cls-43{fill:#f7971d;}</style><clipPath id="clip-path"><rect class="cls-1" x="83.43" y="4822" width="271" height="56"/></clipPath><clipPath id="clip-path-2"><rect class="cls-1" x="83.43" y="4766" width="271" height="56"/></clipPath><clipPath id="clip-path-3"><rect class="cls-1" x="83.43" y="4934" width="271" height="56"/></clipPath><clipPath id="clip-path-4"><rect class="cls-1" x="83.43" y="4878" width="271" height="56"/></clipPath><clipPath id="clip-path-5"><rect class="cls-1" x="83.43" y="4990" width="271" height="56"/></clipPath><symbol id="Service-Shadow" data-name="Service-Shadow" viewBox="0 0 55.41 31.99"><g class="cls-2"><path class="cls-3" d="M27.72,32h0L0,16H0L27.7,0h0L55.41,16s0,0,0,0Z"/></g></symbol><symbol id="consul-service" data-name="consul-service" viewBox="0 0 56.43 40.99"><path class="cls-4" d="M28.21,40.49h0L.51,24.5a0,0,0,0,1,0,0v-8s0,0,0,0l27.69,16s0,0,0,0Z"/><path class="cls-5" d="M28.21,40.49h0L.51,24.5a0,0,0,0,1,0,0v-8s0,0,0,0l27.69,16s0,0,0,0Z"/><path class="cls-6" d="M55.93,16.51a0,0,0,0,0,0,0l-27.7,16v8h0l27.7-16h0Z"/><path class="cls-7" d="M55.93,16.51a0,0,0,0,0,0,0l-27.7,16v8h0l27.7-16h0Z"/><path class="cls-6" d="M28.22,32.49h0L.51,16.5s0,0,0,0L28.2.5h0l27.7,16h0Z"/><path class="cls-8" d="M28.22,32.49h0L.51,16.5s0,0,0,0L28.2.5h0l27.7,16h0Z"/><ellipse class="cls-9" cx="28.5" cy="26.5" rx="2.65" ry="1.53"/><polygon class="cls-8" points="47.93 16.5 42.73 19.5 39.27 17.5 44.46 14.5 47.93 16.5"/><path class="cls-8" d="M43.6,15l-3.47,2L38.4,16c-1-.56-1-1.45,0-2h0a3.77,3.77,0,0,1,3.46,0Z"/></symbol></defs><title>Dynamic Infrastructure</title><g id="main-box"><g id="grid-lines" class="cls-15"><line class="cls-16" x1="292.69" y1="55.88" x2="154.13" y2="135.87"/><line class="cls-16" x1="296.15" y1="57.88" x2="157.59" y2="137.87"/><line class="cls-16" x1="299.62" y1="59.88" x2="161.06" y2="139.87"/><line class="cls-16" x1="303.08" y1="61.88" x2="164.52" y2="141.87"/><line class="cls-16" x1="306.55" y1="63.88" x2="167.98" y2="143.87"/><line class="cls-16" x1="310.01" y1="65.88" x2="171.45" y2="145.87"/><line class="cls-16" x1="313.47" y1="67.88" x2="174.91" y2="147.87"/><line class="cls-16" x1="316.94" y1="69.88" x2="178.38" y2="149.87"/><line class="cls-16" x1="320.4" y1="71.88" x2="181.84" y2="151.87"/><line class="cls-16" x1="323.87" y1="73.88" x2="185.3" y2="153.87"/><line class="cls-16" x1="327.33" y1="75.88" x2="188.77" y2="155.87"/><line class="cls-16" x1="330.8" y1="77.88" x2="192.23" y2="157.87"/><line class="cls-16" x1="334.26" y1="79.88" x2="195.7" y2="159.87"/><line class="cls-16" x1="337.72" y1="81.88" x2="199.16" y2="161.87"/><line class="cls-16" x1="341.19" y1="83.88" x2="202.62" y2="163.87"/><line class="cls-16" x1="344.65" y1="85.88" x2="206.09" y2="165.87"/><line class="cls-16" x1="348.12" y1="87.88" x2="209.55" y2="167.87"/><line class="cls-16" x1="351.58" y1="89.88" x2="213.02" y2="169.87"/><line class="cls-16" x1="355.04" y1="91.88" x2="216.48" y2="171.87"/><line class="cls-16" x1="358.51" y1="93.88" x2="219.95" y2="173.87"/><line class="cls-16" x1="361.97" y1="95.88" x2="223.41" y2="175.87"/><line class="cls-16" x1="365.44" y1="97.88" x2="226.87" y2="177.87"/><line class="cls-16" x1="368.9" y1="99.88" x2="230.34" y2="179.87"/><line class="cls-16" x1="372.36" y1="101.88" x2="233.8" y2="181.87"/><line class="cls-16" x1="375.83" y1="103.88" x2="237.27" y2="183.87"/><line class="cls-16" x1="379.29" y1="105.88" x2="240.73" y2="185.87"/><line class="cls-16" x1="382.76" y1="107.88" x2="244.19" y2="187.87"/><line class="cls-16" x1="386.22" y1="109.88" x2="247.66" y2="189.87"/><line class="cls-16" x1="389.69" y1="111.88" x2="251.12" y2="191.87"/><line class="cls-16" x1="393.15" y1="113.88" x2="254.59" y2="193.87"/><line class="cls-16" x1="396.61" y1="115.88" x2="258.05" y2="195.87"/><line class="cls-16" x1="400.08" y1="117.88" x2="261.51" y2="197.87"/><line class="cls-16" x1="289.23" y1="53.88" x2="150.66" y2="133.87"/><line class="cls-16" x1="285.76" y1="51.88" x2="147.2" y2="131.87"/><line class="cls-16" x1="282.3" y1="49.88" x2="143.73" y2="129.87"/><line class="cls-16" x1="278.83" y1="47.88" x2="140.27" y2="127.87"/><line class="cls-16" x1="275.37" y1="45.88" x2="136.81" y2="125.87"/><line class="cls-16" x1="271.91" y1="43.88" x2="133.34" y2="123.87"/><line class="cls-16" x1="268.44" y1="41.88" x2="129.88" y2="121.87"/><line class="cls-16" x1="375.83" y1="135.88" x2="237.26" y2="55.88"/><line class="cls-16" x1="372.36" y1="137.88" x2="233.8" y2="57.88"/><line class="cls-16" x1="368.9" y1="139.88" x2="230.34" y2="59.88"/><line class="cls-16" x1="365.44" y1="141.88" x2="226.87" y2="61.88"/><line class="cls-16" x1="361.97" y1="143.88" x2="223.41" y2="63.88"/><line class="cls-16" x1="358.51" y1="145.88" x2="219.94" y2="65.88"/><line class="cls-16" x1="355.04" y1="147.88" x2="216.48" y2="67.88"/><line class="cls-16" x1="351.58" y1="149.88" x2="213.02" y2="69.88"/><line class="cls-16" x1="379.29" y1="133.88" x2="240.73" y2="53.88"/><line class="cls-16" x1="382.76" y1="131.88" x2="244.19" y2="51.88"/><line class="cls-16" x1="386.22" y1="129.88" x2="247.66" y2="49.88"/><line class="cls-16" x1="389.69" y1="127.88" x2="251.12" y2="47.88"/><line class="cls-16" x1="393.15" y1="125.88" x2="254.59" y2="45.88"/><line class="cls-16" x1="396.61" y1="123.88" x2="258.05" y2="43.88"/><line class="cls-16" x1="400.08" y1="121.88" x2="261.51" y2="41.88"/><line class="cls-16" x1="327.33" y1="163.88" x2="188.77" y2="83.88"/><line class="cls-16" x1="323.87" y1="165.88" x2="185.3" y2="85.88"/><line class="cls-16" x1="320.4" y1="167.88" x2="181.84" y2="87.88"/><line class="cls-16" x1="316.94" y1="169.88" x2="178.38" y2="89.88"/><line class="cls-16" x1="313.48" y1="171.88" x2="174.91" y2="91.88"/><line class="cls-16" x1="310.01" y1="173.88" x2="171.45" y2="93.88"/><line class="cls-16" x1="306.55" y1="175.88" x2="167.98" y2="95.88"/><line class="cls-16" x1="303.08" y1="177.88" x2="164.52" y2="97.88"/><line class="cls-16" x1="330.8" y1="161.88" x2="192.23" y2="81.88"/><line class="cls-16" x1="334.26" y1="159.88" x2="195.7" y2="79.88"/><line class="cls-16" x1="337.72" y1="157.88" x2="199.16" y2="77.88"/><line class="cls-16" x1="341.19" y1="155.88" x2="202.62" y2="75.88"/><line class="cls-16" x1="344.65" y1="153.88" x2="206.09" y2="73.88"/><line class="cls-16" x1="348.12" y1="151.88" x2="209.55" y2="71.88"/><line class="cls-16" x1="278.83" y1="191.87" x2="140.27" y2="111.87"/><line class="cls-16" x1="275.37" y1="193.87" x2="136.81" y2="113.87"/><line class="cls-16" x1="271.91" y1="195.87" x2="133.34" y2="115.87"/><line class="cls-16" x1="268.44" y1="197.87" x2="129.88" y2="117.87"/><line class="cls-16" x1="282.3" y1="189.87" x2="143.73" y2="109.87"/><line class="cls-16" x1="285.76" y1="187.87" x2="147.2" y2="107.87"/><line class="cls-16" x1="289.23" y1="185.87" x2="150.66" y2="105.87"/><line class="cls-16" x1="292.69" y1="183.87" x2="154.13" y2="103.88"/><line class="cls-16" x1="296.16" y1="181.88" x2="157.59" y2="101.88"/><line class="cls-16" x1="299.62" y1="179.88" x2="161.06" y2="99.88"/></g><polygon class="cls-17" points="264.98 199.88 126.41 119.88 264.98 39.88 403.54 119.88 264.98 199.88"/><g id="solid-border"><polygon class="cls-6" points="126.41 119.88 126.41 111.88 264.98 31.88 264.98 39.88 126.41 119.88"/><polygon class="cls-17" points="126.41 119.88 126.41 111.88 264.98 31.88 264.98 39.88 126.41 119.88"/><polygon class="cls-4" points="264.98 31.88 264.98 39.88 403.54 119.88 403.54 111.88 264.98 31.88"/><polygon class="cls-7" points="264.98 31.88 264.98 39.88 403.54 119.88 403.54 111.88 264.98 31.88"/></g><g id="under-shadow"><g class="cls-18"><path class="cls-3" d="M251.13,199.87h0l-138.54-80s0,0,0,0h13.85l138.55,80H251.13Z"/></g><polygon class="cls-19" points="112.56 119.88 126.41 119.88 126.41 111.88 112.56 119.88"/></g><g id="side-shadow"><polygon class="cls-20" points="264.98 31.88 258.05 43.88 264.98 39.88 264.98 31.88"/><g class="cls-21"><path class="cls-3" d="M389.7,119.88h0l-131.62-76s0,0,0,0l6.91-4h0l138.54,80s0,0,0,0Z"/></g></g><g id="dotted-border"><line class="cls-22" x1="264.98" y1="199.87" x2="264.98" y2="199.37"/><line class="cls-23" x1="264.98" y1="196.37" x2="264.98" y2="193.87"/><line class="cls-22" x1="264.98" y1="192.37" x2="264.98" y2="191.87"/><line class="cls-22" x1="403.54" y1="111.87" x2="403.11" y2="112.12"/><line class="cls-24" x1="400.51" y1="113.62" x2="266.71" y2="190.87"/><polyline class="cls-22" points="265.41 191.63 264.98 191.88 264.55 191.63"/><line class="cls-23" x1="261.95" y1="190.12" x2="128.15" y2="112.87"/><line class="cls-22" x1="126.85" y1="112.12" x2="126.41" y2="111.87"/></g></g><g id="gcp-box"><g id="gcp-tag"><polygon class="cls-6" points="15.78 152 71.21 120 98.7 135.88 43.28 167.88 15.78 152"/><polygon class="cls-25" points="15.78 152 71.21 120 98.7 135.88 43.28 167.88 15.78 152"/><path class="cls-26" d="M61.27,147.31l-7.71-1.17-4.23-.64a2.09,2.09,0,0,1-.86-.33l1.2,2.58a1.8,1.8,0,0,0,1.23.72l10.78,1.66a3,3,0,0,0,1.69-.26l4.69-2.71a.59.59,0,0,0,0-.5l-1.23-2.57Z"/><path class="cls-27" d="M67.58,137.41l-6.39-1a2.59,2.59,0,0,0-.85.25l-3.18,1.84,7.59,1.21,2.1,4.37,1.23,2.57a.59.59,0,0,1,0,.5l3.19-1.84a.84.84,0,0,0,.46-1l-1.15-2.47-1.74-3.75A1.76,1.76,0,0,0,67.58,137.41Z"/><path class="cls-28" d="M56.81,135.74a3.11,3.11,0,0,0-1.69.26L52,137.79l-4.79,2.77a.83.83,0,0,0-.45,1l1.69,3.64a2.09,2.09,0,0,0,.86.33l4.23.64-2-4.38,5.62-3.25,3.18-1.84a2.59,2.59,0,0,1,.85-.25Z"/><path class="cls-29" d="M57.16,138.51l-5.62,3.25,2,4.38,7.71,1.17,5.58-3.22-2.1-4.37Zm4.56,5.87a5.55,5.55,0,0,1-5,0c-1.37-.8-1.37-2.09,0-2.89a5.55,5.55,0,0,1,5,0C63.1,142.29,63.1,143.58,61.72,144.38Z"/></g><g id="grid-lines-2" data-name="grid-lines" class="cls-15"><line class="cls-16" x1="126.41" y1="151.87" x2="70.99" y2="183.87"/><line class="cls-16" x1="129.88" y1="153.87" x2="74.45" y2="185.87"/><line class="cls-16" x1="133.34" y1="155.87" x2="77.92" y2="187.87"/><line class="cls-16" x1="136.81" y1="157.87" x2="81.38" y2="189.87"/><line class="cls-16" x1="140.27" y1="159.87" x2="84.85" y2="191.87"/><line class="cls-16" x1="143.73" y1="161.87" x2="88.31" y2="193.87"/><line class="cls-16" x1="147.2" y1="163.87" x2="91.77" y2="195.87"/><line class="cls-16" x1="150.66" y1="165.87" x2="95.24" y2="197.87"/><line class="cls-16" x1="122.95" y1="149.87" x2="67.53" y2="181.87"/><line class="cls-16" x1="119.49" y1="147.87" x2="64.06" y2="179.87"/><line class="cls-16" x1="116.02" y1="145.87" x2="60.6" y2="177.87"/><line class="cls-16" x1="112.56" y1="143.87" x2="57.13" y2="175.87"/><line class="cls-16" x1="109.09" y1="141.87" x2="53.67" y2="173.87"/><line class="cls-16" x1="105.63" y1="139.87" x2="50.2" y2="171.87"/><line class="cls-16" x1="102.17" y1="137.87" x2="46.74" y2="169.87"/><line class="cls-16" x1="126.41" y1="183.87" x2="70.99" y2="151.87"/><line class="cls-16" x1="122.95" y1="185.87" x2="67.52" y2="153.87"/><line class="cls-16" x1="119.49" y1="187.87" x2="64.06" y2="155.87"/><line class="cls-16" x1="116.02" y1="189.87" x2="60.6" y2="157.87"/><line class="cls-16" x1="112.56" y1="191.87" x2="57.13" y2="159.87"/><line class="cls-16" x1="109.09" y1="193.87" x2="53.67" y2="161.87"/><line class="cls-16" x1="105.63" y1="195.87" x2="50.2" y2="163.87"/><line class="cls-16" x1="102.17" y1="197.87" x2="46.74" y2="165.87"/><line class="cls-16" x1="129.88" y1="181.87" x2="74.45" y2="149.87"/><line class="cls-16" x1="133.34" y1="179.87" x2="77.92" y2="147.87"/><line class="cls-16" x1="136.81" y1="177.87" x2="81.38" y2="145.87"/><line class="cls-16" x1="140.27" y1="175.87" x2="84.85" y2="143.87"/><line class="cls-16" x1="143.74" y1="173.87" x2="88.31" y2="141.87"/><line class="cls-16" x1="147.2" y1="171.87" x2="91.77" y2="139.87"/><line class="cls-16" x1="150.66" y1="169.87" x2="95.24" y2="137.87"/></g><polygon class="cls-25" points="98.7 199.88 43.28 167.88 98.7 135.88 154.13 167.88 98.7 199.88"/><g id="solid-border-2" data-name="solid-border"><polygon class="cls-6" points="43.28 167.88 43.28 159.88 98.7 127.88 98.7 135.88 43.28 167.88"/><polygon class="cls-25" points="43.28 167.88 43.28 159.88 98.7 127.88 98.7 135.88 43.28 167.88"/><polygon class="cls-4" points="98.7 127.88 98.7 135.88 154.13 167.88 154.13 159.88 98.7 127.88"/><polygon class="cls-25" points="98.7 127.88 98.7 135.88 154.13 167.88 154.13 159.88 98.7 127.88"/></g><g id="under-shadow-2" data-name="under-shadow"><g class="cls-18"><path class="cls-3" d="M84.86,199.87h0l-55.41-32s0,0,0,0H43.29l55.4,32H84.86Z"/></g><polygon class="cls-19" points="29.42 167.88 43.28 167.88 43.28 159.88 29.42 167.88"/></g><g id="side-shadow-2" data-name="side-shadow"><polygon class="cls-20" points="98.7 127.88 91.77 139.88 98.7 135.88 98.7 127.88"/><g class="cls-21"><path class="cls-3" d="M140.28,167.87h0l-48.48-28h0l6.91-4h0l55.41,32H140.28Z"/></g></g><g id="dotted-border-2" data-name="dotted-border"><line class="cls-30" x1="98.7" y1="199.87" x2="98.7" y2="199.37"/><line class="cls-31" x1="98.7" y1="196.37" x2="98.7" y2="193.87"/><line class="cls-30" x1="98.7" y1="192.37" x2="98.7" y2="191.87"/><line class="cls-30" x1="154.13" y1="159.87" x2="153.69" y2="160.12"/><line class="cls-32" x1="151.1" y1="161.62" x2="100.43" y2="190.87"/><polyline class="cls-30" points="99.14 191.63 98.7 191.88 98.27 191.63"/><line class="cls-31" x1="95.67" y1="190.12" x2="45.01" y2="160.87"/><line class="cls-30" x1="43.71" y1="160.12" x2="43.28" y2="159.87"/></g></g><g id="axure-box"><g id="grid-lines-3" data-name="grid-lines" class="cls-15"><line class="cls-16" x1="458.97" y1="151.88" x2="320.4" y2="231.87"/><line class="cls-16" x1="462.43" y1="153.88" x2="323.87" y2="233.87"/><line class="cls-16" x1="465.9" y1="155.88" x2="327.33" y2="235.87"/><line class="cls-16" x1="469.36" y1="157.88" x2="330.8" y2="237.87"/><line class="cls-16" x1="472.82" y1="159.88" x2="334.26" y2="239.87"/><line class="cls-16" x1="476.29" y1="161.88" x2="337.72" y2="241.87"/><line class="cls-16" x1="479.75" y1="163.88" x2="341.19" y2="243.87"/><line class="cls-16" x1="483.22" y1="165.88" x2="344.65" y2="245.87"/><line class="cls-16" x1="455.5" y1="149.88" x2="316.94" y2="229.87"/><line class="cls-16" x1="452.04" y1="147.88" x2="313.48" y2="227.87"/><line class="cls-16" x1="448.57" y1="145.88" x2="310.01" y2="225.87"/><line class="cls-16" x1="445.11" y1="143.88" x2="306.55" y2="223.87"/><line class="cls-16" x1="441.65" y1="141.88" x2="303.08" y2="221.87"/><line class="cls-16" x1="438.18" y1="139.88" x2="299.62" y2="219.87"/><line class="cls-16" x1="434.72" y1="137.88" x2="296.16" y2="217.87"/><line class="cls-16" x1="458.97" y1="183.88" x2="403.54" y2="151.88"/><line class="cls-16" x1="455.5" y1="185.88" x2="400.08" y2="153.88"/><line class="cls-16" x1="452.04" y1="187.88" x2="396.61" y2="155.88"/><line class="cls-16" x1="448.58" y1="189.88" x2="393.15" y2="157.88"/><line class="cls-16" x1="445.11" y1="191.88" x2="389.69" y2="159.88"/><line class="cls-16" x1="441.65" y1="193.88" x2="386.22" y2="161.88"/><line class="cls-16" x1="438.18" y1="195.88" x2="382.76" y2="163.88"/><line class="cls-16" x1="434.72" y1="197.88" x2="379.29" y2="165.88"/><line class="cls-16" x1="462.43" y1="181.88" x2="407.01" y2="149.88"/><line class="cls-16" x1="465.9" y1="179.88" x2="410.47" y2="147.88"/><line class="cls-16" x1="469.36" y1="177.88" x2="413.93" y2="145.88"/><line class="cls-16" x1="472.82" y1="175.88" x2="417.4" y2="143.88"/><line class="cls-16" x1="476.29" y1="173.88" x2="420.86" y2="141.88"/><line class="cls-16" x1="479.75" y1="171.88" x2="424.33" y2="139.88"/><line class="cls-16" x1="483.22" y1="169.88" x2="427.79" y2="137.88"/><line class="cls-16" x1="410.47" y1="211.88" x2="355.04" y2="179.88"/><line class="cls-16" x1="407.01" y1="213.88" x2="351.58" y2="181.88"/><line class="cls-16" x1="403.54" y1="215.88" x2="348.12" y2="183.88"/><line class="cls-16" x1="400.08" y1="217.88" x2="344.65" y2="185.88"/><line class="cls-16" x1="396.61" y1="219.88" x2="341.19" y2="187.88"/><line class="cls-16" x1="393.15" y1="221.88" x2="337.72" y2="189.88"/><line class="cls-16" x1="389.69" y1="223.88" x2="334.26" y2="191.88"/><line class="cls-16" x1="386.22" y1="225.88" x2="330.8" y2="193.88"/><line class="cls-16" x1="413.93" y1="209.88" x2="358.51" y2="177.88"/><line class="cls-16" x1="417.4" y1="207.88" x2="361.97" y2="175.88"/><line class="cls-16" x1="420.86" y1="205.88" x2="365.44" y2="173.88"/><line class="cls-16" x1="424.33" y1="203.88" x2="368.9" y2="171.88"/><line class="cls-16" x1="427.79" y1="201.88" x2="372.36" y2="169.88"/><line class="cls-16" x1="431.25" y1="199.88" x2="375.83" y2="167.88"/><line class="cls-16" x1="361.97" y1="239.87" x2="306.55" y2="207.87"/><line class="cls-16" x1="358.51" y1="241.87" x2="303.08" y2="209.87"/><line class="cls-16" x1="355.04" y1="243.87" x2="299.62" y2="211.87"/><line class="cls-16" x1="351.58" y1="245.87" x2="296.16" y2="213.87"/><line class="cls-16" x1="365.44" y1="237.87" x2="310.01" y2="205.87"/><line class="cls-16" x1="368.9" y1="235.87" x2="313.48" y2="203.87"/><line class="cls-16" x1="372.37" y1="233.87" x2="316.94" y2="201.87"/><line class="cls-16" x1="375.83" y1="231.88" x2="320.4" y2="199.87"/><line class="cls-16" x1="379.29" y1="229.88" x2="323.87" y2="197.88"/><line class="cls-16" x1="382.76" y1="227.88" x2="327.33" y2="195.88"/></g><polygon class="cls-33" points="348.12 247.88 292.69 215.88 431.25 135.88 486.68 167.88 348.12 247.88"/><g id="solid-border-3" data-name="solid-border"><polygon class="cls-6" points="292.69 215.88 292.69 207.88 431.25 127.88 431.25 135.88 292.69 215.88"/><polygon class="cls-33" points="292.69 215.88 292.69 207.88 431.25 127.88 431.25 135.88 292.69 215.88"/><g id="solid-border-4" data-name="solid-border"><polygon class="cls-4" points="431.25 127.88 431.25 135.88 486.68 167.88 486.68 159.88 431.25 127.88"/><polygon class="cls-33" points="431.25 127.88 431.25 135.88 486.68 167.88 486.68 159.88 431.25 127.88"/></g></g><g id="undershadow"><g class="cls-18"><path class="cls-3" d="M334.27,247.87h0l-55.41-32H292.7l55.41,32H334.27Z"/></g><polygon class="cls-19" points="278.83 215.88 292.69 215.88 292.69 207.88 278.83 215.88"/></g><g id="side-shadow-3" data-name="side-shadow"><polygon class="cls-20" points="431.25 127.88 424.33 139.88 431.25 135.88 431.25 127.88"/><g class="cls-21"><path class="cls-3" d="M472.83,167.88h0l-48.49-28h0l6.92-4h0l55.41,32s0,0,0,0Z"/></g></g><g id="dotted-border-3" data-name="dotted-border"><line class="cls-34" x1="348.12" y1="247.87" x2="348.12" y2="247.37"/><line class="cls-35" x1="348.12" y1="244.37" x2="348.12" y2="241.87"/><line class="cls-34" x1="348.12" y1="240.37" x2="348.12" y2="239.87"/><line class="cls-34" x1="486.68" y1="159.87" x2="486.25" y2="160.12"/><line class="cls-36" x1="483.65" y1="161.62" x2="349.85" y2="238.87"/><polyline class="cls-34" points="348.55 239.63 348.12 239.88 347.68 239.63"/><line class="cls-35" x1="345.09" y1="238.12" x2="294.42" y2="208.87"/><line class="cls-34" x1="293.12" y1="208.12" x2="292.69" y2="207.87"/></g><g id="azure-tag"><polygon class="cls-6" points="348.12 247.88 403.54 215.88 431.03 231.75 375.61 263.75 348.12 247.88"/><polygon class="cls-33" points="348.12 247.88 403.54 215.88 431.03 231.75 375.61 263.75 348.12 247.88"/><path class="cls-37" d="M385.94,234.51l3,5.17,11.29.48-8.52,6.17h0l15.12-8.55Zm-4.06,6.2,3.48,7.86,3.88-2.74L383,233.48Z"/></g></g><g id="aws-box"><g id="grid-lines-4" data-name="grid-lines" class="cls-15"><line class="cls-16" x1="292.69" y1="279.87" x2="154.13" y2="199.87"/><line class="cls-16" x1="289.23" y1="281.87" x2="150.66" y2="201.87"/><line class="cls-16" x1="285.76" y1="283.87" x2="147.2" y2="203.87"/><line class="cls-16" x1="282.3" y1="285.87" x2="143.74" y2="205.87"/><line class="cls-16" x1="278.84" y1="287.87" x2="140.27" y2="207.87"/><line class="cls-16" x1="275.37" y1="289.87" x2="136.81" y2="209.87"/><line class="cls-16" x1="271.91" y1="291.87" x2="133.34" y2="211.87"/><line class="cls-16" x1="268.44" y1="293.87" x2="129.88" y2="213.87"/><line class="cls-16" x1="296.16" y1="277.87" x2="157.59" y2="197.87"/><line class="cls-16" x1="299.62" y1="275.87" x2="161.06" y2="195.87"/><line class="cls-16" x1="303.08" y1="273.87" x2="164.52" y2="193.87"/><line class="cls-16" x1="306.55" y1="271.87" x2="167.98" y2="191.87"/><line class="cls-16" x1="310.01" y1="269.87" x2="171.45" y2="189.87"/><line class="cls-16" x1="313.48" y1="267.87" x2="174.91" y2="187.87"/><line class="cls-16" x1="316.94" y1="265.87" x2="178.38" y2="185.87"/><line class="cls-16" x1="237.27" y1="279.87" x2="292.69" y2="247.87"/><line class="cls-16" x1="233.8" y1="277.87" x2="289.23" y2="245.87"/><line class="cls-16" x1="230.34" y1="275.87" x2="285.76" y2="243.87"/><line class="cls-16" x1="226.87" y1="273.87" x2="282.3" y2="241.87"/><line class="cls-16" x1="223.41" y1="271.87" x2="278.83" y2="239.87"/><line class="cls-16" x1="219.95" y1="269.87" x2="275.37" y2="237.87"/><line class="cls-16" x1="216.48" y1="267.87" x2="271.91" y2="235.87"/><line class="cls-16" x1="213.02" y1="265.87" x2="268.44" y2="233.87"/><line class="cls-16" x1="240.73" y1="281.87" x2="296.16" y2="249.87"/><line class="cls-16" x1="244.19" y1="283.87" x2="299.62" y2="251.87"/><line class="cls-16" x1="247.66" y1="285.87" x2="303.08" y2="253.87"/><line class="cls-16" x1="251.12" y1="287.87" x2="306.55" y2="255.87"/><line class="cls-16" x1="254.59" y1="289.87" x2="310.01" y2="257.87"/><line class="cls-16" x1="258.05" y1="291.87" x2="313.48" y2="259.87"/><line class="cls-16" x1="261.51" y1="293.87" x2="316.94" y2="261.87"/><line class="cls-16" x1="188.77" y1="251.87" x2="244.19" y2="219.87"/><line class="cls-16" x1="185.3" y1="249.87" x2="240.73" y2="217.87"/><line class="cls-16" x1="181.84" y1="247.87" x2="237.27" y2="215.87"/><line class="cls-16" x1="178.38" y1="245.87" x2="233.8" y2="213.87"/><line class="cls-16" x1="174.91" y1="243.87" x2="230.34" y2="211.87"/><line class="cls-16" x1="171.45" y1="241.87" x2="226.87" y2="209.87"/><line class="cls-16" x1="167.98" y1="239.87" x2="223.41" y2="207.87"/><line class="cls-16" x1="164.52" y1="237.87" x2="219.95" y2="205.87"/><line class="cls-16" x1="192.23" y1="253.87" x2="247.66" y2="221.87"/><line class="cls-16" x1="195.7" y1="255.87" x2="251.12" y2="223.87"/><line class="cls-16" x1="199.16" y1="257.87" x2="254.59" y2="225.87"/><line class="cls-16" x1="202.63" y1="259.87" x2="258.05" y2="227.87"/><line class="cls-16" x1="206.09" y1="261.87" x2="261.51" y2="229.87"/><line class="cls-16" x1="209.55" y1="263.87" x2="264.98" y2="231.87"/><line class="cls-16" x1="140.27" y1="223.87" x2="195.7" y2="191.87"/><line class="cls-16" x1="136.81" y1="221.87" x2="192.23" y2="189.87"/><line class="cls-16" x1="133.34" y1="219.87" x2="188.77" y2="187.87"/><line class="cls-16" x1="129.88" y1="217.87" x2="185.3" y2="185.87"/><line class="cls-16" x1="143.74" y1="225.87" x2="199.16" y2="193.87"/><line class="cls-16" x1="147.2" y1="227.87" x2="202.62" y2="195.87"/><line class="cls-16" x1="150.66" y1="229.87" x2="206.09" y2="197.87"/><line class="cls-16" x1="154.13" y1="231.87" x2="209.55" y2="199.87"/><line class="cls-16" x1="157.59" y1="233.87" x2="213.02" y2="201.87"/><line class="cls-16" x1="161.06" y1="235.87" x2="216.48" y2="203.87"/></g><polygon class="cls-38" points="126.42 215.88 181.84 183.88 320.4 263.88 264.98 295.88 126.42 215.88"/><g id="solid-border-5" data-name="solid-border"><polygon class="cls-6" points="126.42 215.88 126.42 207.88 181.84 175.88 181.84 183.88 126.42 215.88"/><polygon class="cls-38" points="126.42 215.88 126.42 207.88 181.84 175.88 181.84 183.88 126.42 215.88"/><polygon class="cls-4" points="181.84 175.88 181.84 183.88 320.4 263.88 320.4 255.88 181.84 175.88"/><polygon class="cls-38" points="181.84 175.88 181.84 183.88 320.4 263.88 320.4 255.88 181.84 175.88"/></g><g id="under-shadow-3" data-name="under-shadow"><g class="cls-18"><path class="cls-3" d="M251.13,295.87h0l-138.54-80s0,0,0,0h13.85l138.55,80H251.13Z"/></g><polygon class="cls-19" points="112.56 215.88 126.42 215.88 126.42 207.88 112.56 215.88"/></g><g id="side-shadow-4" data-name="side-shadow"><polygon class="cls-20" points="181.84 175.88 174.91 187.88 181.84 183.88 181.84 175.88"/><g class="cls-21"><path class="cls-3" d="M306.56,263.87h0l-131.62-76h0l6.91-4h0l138.55,80H306.56Z"/></g></g><g id="dotted-border-4" data-name="dotted-border"><line class="cls-39" x1="264.98" y1="295.87" x2="264.98" y2="295.37"/><line class="cls-40" x1="264.98" y1="292.37" x2="264.98" y2="289.87"/><line class="cls-39" x1="264.98" y1="288.37" x2="264.98" y2="287.87"/><line class="cls-39" x1="320.4" y1="255.87" x2="319.97" y2="256.12"/><line class="cls-41" x1="317.37" y1="257.62" x2="266.71" y2="286.87"/><polyline class="cls-39" points="265.41 287.63 264.98 287.88 264.55 287.63"/><line class="cls-40" x1="261.95" y1="286.12" x2="128.15" y2="208.87"/><line class="cls-39" x1="126.85" y1="208.12" x2="126.41" y2="207.87"/></g><g id="aws-tag"><polygon class="cls-6" points="264.98 295.88 320.4 263.88 347.9 279.75 292.47 311.75 264.98 295.88"/><polygon class="cls-38" points="264.98 295.88 320.4 263.88 347.9 279.75 292.47 311.75 264.98 295.88"/><path class="cls-42" d="M316,282.9a8.54,8.54,0,0,1-1.33.61,8.32,8.32,0,0,1-1.21.34,1.45,1.45,0,0,1-.46,0,.88.88,0,0,1-.26-.1l-.4-.23q-.24-.13-.06-.24a.54.54,0,0,1,.17-.07l.27-.06a9.15,9.15,0,0,0,1.13-.34,6.87,6.87,0,0,0,1-.48,1.94,1.94,0,0,0,.88-.8q.13-.39-.33-.66a1.45,1.45,0,0,0-.76-.19,4.87,4.87,0,0,0-1.19.21l-1.48.45a5.42,5.42,0,0,1-2,.26,3.68,3.68,0,0,1-1.52-.42,1.63,1.63,0,0,1-.65-.62,1,1,0,0,1-.08-.69,1.47,1.47,0,0,1,.41-.7,3.44,3.44,0,0,1,.84-.65,5.84,5.84,0,0,1,.56-.28c.2-.09.39-.17.59-.24l.56-.18a3,3,0,0,1,.46-.11,1.75,1.75,0,0,1,.43,0,.87.87,0,0,1,.32.11l.37.21c.16.1.18.18.07.25l-.4.12a6.16,6.16,0,0,0-1.79.69,1.82,1.82,0,0,0-.82.72c-.1.22,0,.43.33.61a1.5,1.5,0,0,0,.78.19,5.59,5.59,0,0,0,1.28-.25l1.46-.43a5.56,5.56,0,0,1,1.95-.27,3.57,3.57,0,0,1,1.45.42,1.92,1.92,0,0,1,.7.64,1.05,1.05,0,0,1,.12.73,1.62,1.62,0,0,1-.43.75,4,4,0,0,1-.95.72m-10.18,5.64a.91.91,0,0,1-.38.13,1.38,1.38,0,0,1-.47-.08l-7.83-2.42a2.52,2.52,0,0,1-.38-.14c-.12-.07-.12-.15,0-.22l.76-.44a.9.9,0,0,1,.38-.13,1.38,1.38,0,0,1,.47.08l6.44,2.22-3.93-3.67c-.12-.11-.17-.2-.15-.26s.09-.14.23-.23l.63-.36a.82.82,0,0,1,.39-.13,1.1,1.1,0,0,1,.45.09l6.43,2.3L305,281.49c-.11-.11-.16-.2-.15-.26s.09-.14.23-.22l.72-.42a.37.37,0,0,1,.38,0l.11.08a.92.92,0,0,1,.14.14l4.13,4.55q.16.18.15.27c0,.07-.09.14-.23.22l-.67.38a.84.84,0,0,1-.39.14,1.37,1.37,0,0,1-.46-.1l-6.21-2.19,3.8,3.58a.42.42,0,0,1,.17.27c0,.07-.09.14-.24.23Zm-7.09,3.12a2.36,2.36,0,0,0,.66-.55.89.89,0,0,0,.24-.71.73.73,0,0,0-.23-.44,3,3,0,0,0-.6-.43l-.32-.19a8.86,8.86,0,0,0-.85.34c-.28.13-.54.26-.77.39-.52.3-.8.58-.85.85s.13.51.52.74a2.11,2.11,0,0,0,2.2,0m2-2.51a3.2,3.2,0,0,0,.78.35,6.2,6.2,0,0,0,.81.18.9.9,0,0,1,.23.07.17.17,0,0,1,.08.22l-.16.47a.36.36,0,0,1-.14.16.75.75,0,0,1-.34.07,4.48,4.48,0,0,1-.64-.05l-.69-.12a1.91,1.91,0,0,1-1.21,1.93,4.26,4.26,0,0,1-2.11.58,4,4,0,0,1-2.07-.54c-.66-.38-1-.82-.89-1.33s.5-1,1.3-1.44a6.71,6.71,0,0,1,.89-.44c.32-.15.67-.28,1.06-.42l-.58-.33a3.24,3.24,0,0,0-1.61-.51,3.41,3.41,0,0,0-1.62.53,3.6,3.6,0,0,0-.74.54,5.59,5.59,0,0,0-.57.63,1.3,1.3,0,0,1-.17.22.31.31,0,0,1-.1.08.4.4,0,0,1-.41-.05l-.38-.22c-.12-.07-.2-.13-.21-.18a.28.28,0,0,1,.05-.22,3.39,3.39,0,0,1,.63-.77,5.13,5.13,0,0,1,1.06-.79,5.47,5.47,0,0,1,2.66-.81,5.12,5.12,0,0,1,2.56.73Z"/><path class="cls-43" d="M321.29,284.23c-.67,2.57-3.38,5.29-6.57,7.13a34.36,34.36,0,0,1-16,4.13c-.46,0-.54-.28-.09-.35a42.86,42.86,0,0,0,14.63-4.91,22,22,0,0,0,7-6.13c.25-.36,1.08-.29,1,.13"/><path class="cls-43" d="M321.14,282.91c-.75-.05-2.36,1.14-3.09,1.67-.22.16-.48.06-.41-.16.44-1.44,3.13-2.66,3.76-2.62s2.67,1.63,2.45,3.09a.26.26,0,0,1-.47.1c-.46-.63-1.5-2-2.24-2.08"/></g></g><g id="lines-origin-aws"><line class="cls-8" x1="252.86" y1="154.87" x2="197.44" y2="186.87"/><polyline class="cls-8" points="237.28 209.87 263.25 194.87 181.85 147.87 211.29 130.87"/><polyline class="cls-8" points="240.74 211.87 306.56 173.87 277.11 156.87"/><line class="cls-8" x1="282.31" y1="235.87" x2="337.73" y2="203.87"/><polyline class="cls-8" points="278.84 233.87 308.29 216.87 188.78 147.87 214.76 132.87"/></g><g id="lines-origin-gcp"><polyline class="cls-8" points="116.03 139.87 142.01 124.87 178.38 145.87 207.83 128.87"/><line class="cls-8" x1="167.99" y1="105.87" x2="112.57" y2="137.87"/></g><g id="lines-inter-aws"><line class="cls-8" x1="197.44" y1="202.87" x2="211.29" y2="210.87"/><line class="cls-8" x1="239.01" y1="226.87" x2="252.86" y2="234.87"/></g><g id="lines-inter-azure"><line class="cls-8" x1="405.28" y1="162.87" x2="419.14" y2="154.87"/></g><g id="lines-inter-main"><line class="cls-8" x1="197.44" y1="90.87" x2="211.29" y2="82.87"/><line class="cls-8" x1="239.01" y1="114.87" x2="252.86" y2="106.87"/><line class="cls-8" x1="239.01" y1="66.87" x2="252.86" y2="58.87"/><line class="cls-8" x1="322.14" y1="114.87" x2="336" y2="106.87"/><line class="cls-8" x1="239.01" y1="82.87" x2="252.86" y2="90.87"/><line class="cls-8" x1="280.58" y1="58.87" x2="294.43" y2="66.87"/><line class="cls-8" x1="197.44" y1="106.87" x2="211.29" y2="114.87"/><line class="cls-8" x1="280.58" y1="106.87" x2="294.43" y2="114.87"/><line class="cls-8" x1="322.14" y1="82.87" x2="336" y2="90.87"/><line class="cls-8" x1="239.01" y1="130.87" x2="252.86" y2="138.87"/></g><g id="lines-origin-azure"><polyline class="cls-8" points="363.71 106.87 393.16 123.87 355.05 145.87 381.03 160.87"/><polyline class="cls-8" points="374.11 164.87 348.13 149.87 313.48 169.87 284.04 152.87"/><line class="cls-8" x1="280.58" y1="154.87" x2="336" y2="186.87"/><line class="cls-8" x1="322.14" y1="130.87" x2="377.57" y2="162.87"/></g><g id="service-with-shadow"><use id="Service-Shadow-3" data-name="Service-Shadow" width="55.42" height="31.99" transform="translate(56.99 155.88)" xlink:href="#Service-Shadow"/><g id="consul-services-gcp"><use width="56.43" height="40.99" transform="translate(70.49 123.38)" xlink:href="#consul-service"/></g></g><g id="service-with-shadow-2" data-name="service-with-shadow"><use id="Service-Shadow-6" data-name="Service-Shadow" width="55.42" height="31.99" transform="translate(223.27 59.88)" xlink:href="#Service-Shadow"/><use width="56.43" height="40.99" transform="translate(236.77 27.38)" xlink:href="#consul-service"/></g><g id="service-with-shadow-3" data-name="service-with-shadow"><use id="Service-Shadow-9" data-name="Service-Shadow" width="55.42" height="31.99" transform="translate(181.7 83.88)" xlink:href="#Service-Shadow"/><use width="56.43" height="40.99" transform="translate(195.2 51.38)" xlink:href="#consul-service"/></g><g id="service-with-shadow-4" data-name="service-with-shadow"><use id="Service-Shadow-12" data-name="Service-Shadow" width="55.42" height="31.99" transform="translate(140.13 107.88)" xlink:href="#Service-Shadow"/><use width="56.43" height="40.99" transform="translate(153.63 75.38)" xlink:href="#consul-service"/></g><g id="service-with-shadow-5" data-name="service-with-shadow"><use id="Service-Shadow-15" data-name="Service-Shadow" width="55.42" height="31.99" transform="translate(264.84 83.88)" xlink:href="#Service-Shadow"/><use width="56.43" height="40.99" transform="translate(278.33 51.38)" xlink:href="#consul-service"/></g><g id="service-with-shadow-6" data-name="service-with-shadow"><use id="Service-Shadow-18" data-name="Service-Shadow" width="55.42" height="31.99" transform="translate(223.27 107.88)" xlink:href="#Service-Shadow"/><use width="56.43" height="40.99" transform="translate(236.77 75.38)" xlink:href="#consul-service"/></g><g id="service-with-shadow-7" data-name="service-with-shadow"><use id="Service-Shadow-21" data-name="Service-Shadow" width="55.42" height="31.99" transform="translate(181.7 131.88)" xlink:href="#Service-Shadow"/><use width="56.43" height="40.99" transform="translate(195.2 99.38)" xlink:href="#consul-service"/></g><g id="service-with-shadow-8" data-name="service-with-shadow"><use id="Service-Shadow-24" data-name="Service-Shadow" width="55.42" height="31.99" transform="translate(306.41 107.88)" xlink:href="#Service-Shadow"/><use id="consul-service-17" data-name="consul-service" width="56.43" height="40.99" transform="translate(319.9 75.38)" xlink:href="#consul-service"/></g><g id="service-with-shadow-9" data-name="service-with-shadow"><use id="Service-Shadow-27" data-name="Service-Shadow" width="55.42" height="31.99" transform="translate(264.84 131.88)" xlink:href="#Service-Shadow"/><use width="56.43" height="40.99" transform="translate(278.33 99.38)" xlink:href="#consul-service"/></g><g id="service-with-shadow-10" data-name="service-with-shadow"><use id="Service-Shadow-30" data-name="Service-Shadow" width="55.42" height="31.99" transform="translate(223.27 155.88)" xlink:href="#Service-Shadow"/><use width="56.43" height="40.99" transform="translate(236.77 123.38)" xlink:href="#consul-service"/></g><g id="service-with-shadow-11" data-name="service-with-shadow"><use id="Service-Shadow-33" data-name="Service-Shadow" width="55.42" height="31.99" transform="translate(389.55 155.88)" xlink:href="#Service-Shadow"/><use width="56.43" height="40.99" transform="translate(403.04 123.38)" xlink:href="#consul-service"/></g><g id="service-with-shadow-12" data-name="service-with-shadow"><use id="Service-Shadow-36" data-name="Service-Shadow" width="55.42" height="31.99" transform="translate(347.98 179.88)" xlink:href="#Service-Shadow"/><use width="56.43" height="40.99" transform="translate(361.47 147.38)" xlink:href="#consul-service"/></g><g id="service-with-shadow-13" data-name="service-with-shadow"><use id="Service-Shadow-39" data-name="Service-Shadow" width="55.42" height="31.99" transform="translate(306.41 203.88)" xlink:href="#Service-Shadow"/><use width="56.43" height="40.99" transform="translate(319.9 171.38)" xlink:href="#consul-service"/></g><g id="service-with-shadow-14" data-name="service-with-shadow"><use id="Service-Shadow-42" data-name="Service-Shadow" width="55.42" height="31.99" transform="translate(140.13 203.88)" xlink:href="#Service-Shadow"/><use width="56.43" height="40.99" transform="translate(153.63 171.38)" xlink:href="#consul-service"/></g><g id="service-with-shadow-15" data-name="service-with-shadow"><use id="Service-Shadow-45" data-name="Service-Shadow" width="55.42" height="31.99" transform="translate(181.7 227.88)" xlink:href="#Service-Shadow"/><use width="56.43" height="40.99" transform="translate(195.2 195.38)" xlink:href="#consul-service"/></g><g id="service-with-shadow-16" data-name="service-with-shadow"><use id="Service-Shadow-48" data-name="Service-Shadow" width="55.42" height="31.99" transform="translate(223.27 251.88)" xlink:href="#Service-Shadow"/><use width="56.43" height="40.99" transform="translate(236.77 219.38)" xlink:href="#consul-service"/></g></svg>