<?xml version="1.0" encoding="UTF-8" standalone="no"?>
<!-- Created with Inkscape (http://www.inkscape.org/) -->

<svg
   xmlns:dc="http://purl.org/dc/elements/1.1/"
   xmlns:cc="http://creativecommons.org/ns#"
   xmlns:rdf="http://www.w3.org/1999/02/22-rdf-syntax-ns#"
   xmlns:svg="http://www.w3.org/2000/svg"
   xmlns="http://www.w3.org/2000/svg"
   xmlns:sodipodi="http://sodipodi.sourceforge.net/DTD/sodipodi-0.dtd"
   xmlns:inkscape="http://www.inkscape.org/namespaces/inkscape"
   width="180mm"
   height="87mm"
   viewBox="0 0 637.79528 308.26771"
   id="svg4843"
   version="1.1"
   inkscape:version="0.91 r13725"
   sodipodi:docname="drawing.svg">
  <defs
     id="defs4845">
    <clipPath
       clipPathUnits="userSpaceOnUse"
       id="clipPath4450">
      <rect
         style="fill:#1878e5;fill-opacity:1;stroke:#fafafa;stroke-width:1.67999995;stroke-miterlimit:4;stroke-dasharray:none;stroke-opacity:0"
         id="rect4452"
         width="594.62164"
         height="182.50761"
         x="0.98122352"
         y="-529.86084"
         transform="scale(1,-1)" />
    </clipPath>
    <clipPath
       clipPathUnits="userSpaceOnUse"
       id="clipPath4454">
      <rect
         style="fill:#1878e5;fill-opacity:1;stroke:#fafafa;stroke-width:1.67999995;stroke-miterlimit:4;stroke-dasharray:none;stroke-opacity:0"
         id="rect4456"
         width="594.62164"
         height="182.50761"
         x="0.98122352"
         y="-529.86084"
         transform="scale(1,-1)" />
    </clipPath>
    <clipPath
       clipPathUnits="userSpaceOnUse"
       id="clipPath4458">
      <rect
         style="fill:#1878e5;fill-opacity:1;stroke:#fafafa;stroke-width:1.67999995;stroke-miterlimit:4;stroke-dasharray:none;stroke-opacity:0"
         id="rect4460"
         width="594.62164"
         height="182.50761"
         x="0.98122352"
         y="-529.86084"
         transform="scale(1,-1)" />
    </clipPath>
    <clipPath
       clipPathUnits="userSpaceOnUse"
       id="clipPath4462">
      <rect
         style="fill:#1878e5;fill-opacity:1;stroke:#fafafa;stroke-width:1.67999995;stroke-miterlimit:4;stroke-dasharray:none;stroke-opacity:0"
         id="rect4464"
         width="594.62164"
         height="182.50761"
         x="0.98122352"
         y="-529.86084"
         transform="scale(1,-1)" />
    </clipPath>
    <clipPath
       clipPathUnits="userSpaceOnUse"
       id="clipPath4466">
      <rect
         style="fill:#1878e5;fill-opacity:1;stroke:#fafafa;stroke-width:1.67999995;stroke-miterlimit:4;stroke-dasharray:none;stroke-opacity:0"
         id="rect4468"
         width="594.62164"
         height="182.50761"
         x="0.98122352"
         y="-529.86084"
         transform="scale(1,-1)" />
    </clipPath>
    <clipPath
       clipPathUnits="userSpaceOnUse"
       id="clipPath4470">
      <rect
         style="fill:#1878e5;fill-opacity:1;stroke:#fafafa;stroke-width:1.67999995;stroke-miterlimit:4;stroke-dasharray:none;stroke-opacity:0"
         id="rect4472"
         width="594.62164"
         height="182.50761"
         x="0.98122352"
         y="-529.86084"
         transform="scale(1,-1)" />
    </clipPath>
    <clipPath
       clipPathUnits="userSpaceOnUse"
       id="clipPath4474">
      <rect
         style="fill:#1878e5;fill-opacity:1;stroke:#fafafa;stroke-width:1.67999995;stroke-miterlimit:4;stroke-dasharray:none;stroke-opacity:0"
         id="rect4476"
         width="594.62164"
         height="182.50761"
         x="0.98122352"
         y="-529.86084"
         transform="scale(1,-1)" />
    </clipPath>
    <clipPath
       clipPathUnits="userSpaceOnUse"
       id="clipPath4478">
      <rect
         style="fill:#1878e5;fill-opacity:1;stroke:#fafafa;stroke-width:1.67999995;stroke-miterlimit:4;stroke-dasharray:none;stroke-opacity:0"
         id="rect4480"
         width="594.62164"
         height="182.50761"
         x="0.98122352"
         y="-529.86084"
         transform="scale(1,-1)" />
    </clipPath>
    <clipPath
       clipPathUnits="userSpaceOnUse"
       id="clipPath4482">
      <rect
         style="fill:#1878e5;fill-opacity:1;stroke:#fafafa;stroke-width:1.67999995;stroke-miterlimit:4;stroke-dasharray:none;stroke-opacity:0"
         id="rect4484"
         width="594.62164"
         height="182.50761"
         x="0.98122352"
         y="-529.86084"
         transform="scale(1,-1)" />
    </clipPath>
    <clipPath
       clipPathUnits="userSpaceOnUse"
       id="clipPath4486">
      <rect
         style="fill:#1878e5;fill-opacity:1;stroke:#fafafa;stroke-width:1.67999995;stroke-miterlimit:4;stroke-dasharray:none;stroke-opacity:0"
         id="rect4488"
         width="594.62164"
         height="182.50761"
         x="0.98122352"
         y="-529.86084"
         transform="scale(1,-1)" />
    </clipPath>
    <clipPath
       clipPathUnits="userSpaceOnUse"
       id="clipPath4490">
      <rect
         style="fill:#1878e5;fill-opacity:1;stroke:#fafafa;stroke-width:1.67999995;stroke-miterlimit:4;stroke-dasharray:none;stroke-opacity:0"
         id="rect4492"
         width="594.62164"
         height="182.50761"
         x="0.98122352"
         y="-529.86084"
         transform="scale(1,-1)" />
    </clipPath>
    <clipPath
       clipPathUnits="userSpaceOnUse"
       id="clipPath4494">
      <rect
         style="fill:#1878e5;fill-opacity:1;stroke:#fafafa;stroke-width:1.67999995;stroke-miterlimit:4;stroke-dasharray:none;stroke-opacity:0"
         id="rect4496"
         width="594.62164"
         height="182.50761"
         x="0.98122352"
         y="-529.86084"
         transform="scale(1,-1)" />
    </clipPath>
    <clipPath
       clipPathUnits="userSpaceOnUse"
       id="clipPath4498">
      <rect
         style="fill:#1878e5;fill-opacity:1;stroke:#fafafa;stroke-width:1.67999995;stroke-miterlimit:4;stroke-dasharray:none;stroke-opacity:0"
         id="rect4500"
         width="594.62164"
         height="182.50761"
         x="0.98122352"
         y="-529.86084"
         transform="scale(1,-1)" />
    </clipPath>
    <clipPath
       clipPathUnits="userSpaceOnUse"
       id="clipPath4502">
      <rect
         style="fill:#1878e5;fill-opacity:1;stroke:#fafafa;stroke-width:1.67999995;stroke-miterlimit:4;stroke-dasharray:none;stroke-opacity:0"
         id="rect4504"
         width="594.62164"
         height="182.50761"
         x="0.98122352"
         y="-529.86084"
         transform="scale(1,-1)" />
    </clipPath>
    <clipPath
       clipPathUnits="userSpaceOnUse"
       id="clipPath4506">
      <rect
         style="fill:#1878e5;fill-opacity:1;stroke:#fafafa;stroke-width:1.67999995;stroke-miterlimit:4;stroke-dasharray:none;stroke-opacity:0"
         id="rect4508"
         width="594.62164"
         height="182.50761"
         x="0.98122352"
         y="-529.86084"
         transform="scale(1,-1)" />
    </clipPath>
    <clipPath
       clipPathUnits="userSpaceOnUse"
       id="clipPath4510">
      <rect
         style="fill:#1878e5;fill-opacity:1;stroke:#fafafa;stroke-width:1.67999995;stroke-miterlimit:4;stroke-dasharray:none;stroke-opacity:0"
         id="rect4512"
         width="594.62164"
         height="182.50761"
         x="0.98122352"
         y="-529.86084"
         transform="scale(1,-1)" />
    </clipPath>
    <clipPath
       clipPathUnits="userSpaceOnUse"
       id="clipPath4514">
      <rect
         style="fill:#1878e5;fill-opacity:1;stroke:#fafafa;stroke-width:1.67999995;stroke-miterlimit:4;stroke-dasharray:none;stroke-opacity:0"
         id="rect4516"
         width="594.62164"
         height="182.50761"
         x="0.98122352"
         y="-529.86084"
         transform="scale(1,-1)" />
    </clipPath>
    <clipPath
       clipPathUnits="userSpaceOnUse"
       id="clipPath4518">
      <rect
         style="fill:#1878e5;fill-opacity:1;stroke:#fafafa;stroke-width:1.67999995;stroke-miterlimit:4;stroke-dasharray:none;stroke-opacity:0"
         id="rect4520"
         width="594.62164"
         height="182.50761"
         x="0.98122352"
         y="-529.86084"
         transform="scale(1,-1)" />
    </clipPath>
    <clipPath
       clipPathUnits="userSpaceOnUse"
       id="clipPath4522">
      <rect
         style="fill:#1878e5;fill-opacity:1;stroke:#fafafa;stroke-width:1.67999995;stroke-miterlimit:4;stroke-dasharray:none;stroke-opacity:0"
         id="rect4524"
         width="594.62164"
         height="182.50761"
         x="0.98122352"
         y="-529.86084"
         transform="scale(1,-1)" />
    </clipPath>
    <clipPath
       clipPathUnits="userSpaceOnUse"
       id="clipPath4526">
      <rect
         style="fill:#1878e5;fill-opacity:1;stroke:#fafafa;stroke-width:1.67999995;stroke-miterlimit:4;stroke-dasharray:none;stroke-opacity:0"
         id="rect4528"
         width="594.62164"
         height="182.50761"
         x="0.98122352"
         y="-529.86084"
         transform="scale(1,-1)" />
    </clipPath>
    <clipPath
       clipPathUnits="userSpaceOnUse"
       id="clipPath4530">
      <rect
         style="fill:#1878e5;fill-opacity:1;stroke:#fafafa;stroke-width:1.67999995;stroke-miterlimit:4;stroke-dasharray:none;stroke-opacity:0"
         id="rect4532"
         width="594.62164"
         height="182.50761"
         x="0.98122352"
         y="-529.86084"
         transform="scale(1,-1)" />
    </clipPath>
    <clipPath
       clipPathUnits="userSpaceOnUse"
       id="clipPath4534">
      <rect
         style="fill:#1878e5;fill-opacity:1;stroke:#fafafa;stroke-width:1.67999995;stroke-miterlimit:4;stroke-dasharray:none;stroke-opacity:0"
         id="rect4536"
         width="594.62164"
         height="182.50761"
         x="0.98122352"
         y="-529.86084"
         transform="scale(1,-1)" />
    </clipPath>
    <clipPath
       clipPathUnits="userSpaceOnUse"
       id="clipPath4538">
      <rect
         style="fill:#1878e5;fill-opacity:1;stroke:#fafafa;stroke-width:1.67999995;stroke-miterlimit:4;stroke-dasharray:none;stroke-opacity:0"
         id="rect4540"
         width="594.62164"
         height="182.50761"
         x="0.98122352"
         y="-529.86084"
         transform="scale(1,-1)" />
    </clipPath>
    <clipPath
       clipPathUnits="userSpaceOnUse"
       id="clipPath4542">
      <rect
         style="fill:#1878e5;fill-opacity:1;stroke:#fafafa;stroke-width:1.67999995;stroke-miterlimit:4;stroke-dasharray:none;stroke-opacity:0"
         id="rect4544"
         width="594.62164"
         height="182.50761"
         x="0.98122352"
         y="-529.86084"
         transform="scale(1,-1)" />
    </clipPath>
    <clipPath
       clipPathUnits="userSpaceOnUse"
       id="clipPath4546">
      <rect
         style="fill:#1878e5;fill-opacity:1;stroke:#fafafa;stroke-width:1.67999995;stroke-miterlimit:4;stroke-dasharray:none;stroke-opacity:0"
         id="rect4548"
         width="594.62164"
         height="182.50761"
         x="0.98122352"
         y="-529.86084"
         transform="scale(1,-1)" />
    </clipPath>
    <clipPath
       clipPathUnits="userSpaceOnUse"
       id="clipPath4550">
      <rect
         style="fill:#1878e5;fill-opacity:1;stroke:#fafafa;stroke-width:1.67999995;stroke-miterlimit:4;stroke-dasharray:none;stroke-opacity:0"
         id="rect4552"
         width="594.62164"
         height="182.50761"
         x="0.98122352"
         y="-529.86084"
         transform="scale(1,-1)" />
    </clipPath>
    <clipPath
       clipPathUnits="userSpaceOnUse"
       id="clipPath4554">
      <rect
         style="fill:#1878e5;fill-opacity:1;stroke:#fafafa;stroke-width:1.67999995;stroke-miterlimit:4;stroke-dasharray:none;stroke-opacity:0"
         id="rect4556"
         width="594.62164"
         height="182.50761"
         x="0.98122352"
         y="-529.86084"
         transform="scale(1,-1)" />
    </clipPath>
    <clipPath
       clipPathUnits="userSpaceOnUse"
       id="clipPath4558">
      <rect
         style="fill:#1878e5;fill-opacity:1;stroke:#fafafa;stroke-width:1.67999995;stroke-miterlimit:4;stroke-dasharray:none;stroke-opacity:0"
         id="rect4560"
         width="594.62164"
         height="182.50761"
         x="0.98122352"
         y="-529.86084"
         transform="scale(1,-1)" />
    </clipPath>
    <clipPath
       clipPathUnits="userSpaceOnUse"
       id="clipPath4562">
      <rect
         style="fill:#1878e5;fill-opacity:1;stroke:#fafafa;stroke-width:1.67999995;stroke-miterlimit:4;stroke-dasharray:none;stroke-opacity:0"
         id="rect4564"
         width="594.62164"
         height="182.50761"
         x="0.98122352"
         y="-529.86084"
         transform="scale(1,-1)" />
    </clipPath>
    <clipPath
       clipPathUnits="userSpaceOnUse"
       id="clipPath4566">
      <rect
         style="fill:#1878e5;fill-opacity:1;stroke:#fafafa;stroke-width:1.67999995;stroke-miterlimit:4;stroke-dasharray:none;stroke-opacity:0"
         id="rect4568"
         width="594.62164"
         height="182.50761"
         x="0.98122352"
         y="-529.86084"
         transform="scale(1,-1)" />
    </clipPath>
    <clipPath
       clipPathUnits="userSpaceOnUse"
       id="clipPath4570">
      <rect
         style="fill:#1878e5;fill-opacity:1;stroke:#fafafa;stroke-width:1.67999995;stroke-miterlimit:4;stroke-dasharray:none;stroke-opacity:0"
         id="rect4572"
         width="594.62164"
         height="182.50761"
         x="0.98122352"
         y="-529.86084"
         transform="scale(1,-1)" />
    </clipPath>
    <clipPath
       clipPathUnits="userSpaceOnUse"
       id="clipPath4574">
      <rect
         style="fill:#1878e5;fill-opacity:1;stroke:#fafafa;stroke-width:1.67999995;stroke-miterlimit:4;stroke-dasharray:none;stroke-opacity:0"
         id="rect4576"
         width="594.62164"
         height="182.50761"
         x="0.98122352"
         y="-529.86084"
         transform="scale(1,-1)" />
    </clipPath>
    <clipPath
       clipPathUnits="userSpaceOnUse"
       id="clipPath4578">
      <rect
         style="fill:#1878e5;fill-opacity:1;stroke:#fafafa;stroke-width:1.67999995;stroke-miterlimit:4;stroke-dasharray:none;stroke-opacity:0"
         id="rect4580"
         width="594.62164"
         height="182.50761"
         x="0.98122352"
         y="-529.86084"
         transform="scale(1,-1)" />
    </clipPath>
    <clipPath
       clipPathUnits="userSpaceOnUse"
       id="clipPath4582">
      <rect
         style="fill:#1878e5;fill-opacity:1;stroke:#fafafa;stroke-width:1.67999995;stroke-miterlimit:4;stroke-dasharray:none;stroke-opacity:0"
         id="rect4584"
         width="594.62164"
         height="182.50761"
         x="0.98122352"
         y="-529.86084"
         transform="scale(1,-1)" />
    </clipPath>
    <clipPath
       clipPathUnits="userSpaceOnUse"
       id="clipPath4586">
      <rect
         style="fill:#1878e5;fill-opacity:1;stroke:#fafafa;stroke-width:1.67999995;stroke-miterlimit:4;stroke-dasharray:none;stroke-opacity:0"
         id="rect4588"
         width="594.62164"
         height="182.50761"
         x="0.98122352"
         y="-529.86084"
         transform="scale(1,-1)" />
    </clipPath>
  </defs>
  <sodipodi:namedview
     id="base"
     pagecolor="#ffffff"
     bordercolor="#666666"
     borderopacity="1.0"
     inkscape:pageopacity="0.0"
     inkscape:pageshadow="2"
     inkscape:zoom="0.7"
     inkscape:cx="-16.059474"
     inkscape:cy="465.09034"
     inkscape:document-units="px"
     inkscape:current-layer="layer1"
     showgrid="false"
     inkscape:window-width="1920"
     inkscape:window-height="1027"
     inkscape:window-x="-8"
     inkscape:window-y="-8"
     inkscape:window-maximized="1" />
  <metadata
     id="metadata4848">
    <rdf:RDF>
      <cc:Work
         rdf:about="">
        <dc:format>image/svg+xml</dc:format>
        <dc:type
           rdf:resource="http://purl.org/dc/dcmitype/StillImage" />
        <dc:title></dc:title>
      </cc:Work>
    </rdf:RDF>
  </metadata>
  <g
     inkscape:label="Layer 1"
     inkscape:groupmode="layer"
     id="layer1"
     transform="translate(0,-744.09449)">
    <g
       transform="matrix(1.25,0,0,-1.25,-47.303275,1448.2052)"
       id="g4200"
       style="fill:#1878e5;fill-opacity:1"
       clip-path="url(#clipPath4586)">
      <g
         id="g4202"
         style="fill:#1878e5;fill-opacity:1">
        <g
           id="g4208"
           style="fill:#1878e5;fill-opacity:1">
          <g
             id="g4210"
             style="fill:#1878e5;fill-opacity:1">
            <path
               d="m 217.4,447.009 c -0.576,-1.08 -1.206,-2.25 -1.89,-3.51 l 0,0 c -0.684,-1.26 -1.386,-2.43 -2.106,-3.51 l 0,0 c -0.072,-0.216 0,-0.432 0.216,-0.648 l 0,0 c 1.368,-0.72 2.736,-1.53 4.104,-2.43 l 0,0 c 1.368,-0.9 2.664,-1.854 3.888,-2.862 l 0,0 c 0.216,-0.144 0.36,-0.234 0.432,-0.27 l 0,0 c 0.072,-0.036 0.216,0.09 0.432,0.378 l 0,0 c 0.216,0.36 0.504,0.846 0.864,1.458 l 0,0 c 0.36,0.612 0.738,1.224 1.134,1.836 l 0,0 c 0.396,0.612 0.774,1.224 1.134,1.836 l 0,0 c 0.36,0.612 0.612,1.098 0.756,1.458 l 0,0 c 0,0.072 0.018,0.18 0.054,0.324 l 0,0 c 0.036,0.144 -0.018,0.252 -0.162,0.324 l 0,0 c -0.36,0.288 -0.882,0.684 -1.566,1.188 l 0,0 c -0.684,0.504 -1.422,1.044 -2.214,1.62 l 0,0 c -0.792,0.576 -1.602,1.116 -2.43,1.62 l 0,0 c -0.828,0.504 -1.53,0.9 -2.106,1.188 l 0,0 c -0.108,0.072 -0.207,0.108 -0.297,0.108 l 0,0 c -0.09,0 -0.171,-0.036 -0.243,-0.108"
               style="fill:#1878e5;stroke:none;fill-opacity:1"
               id="path4218"
               inkscape:connector-curvature="0" />
          </g>
        </g>
      </g>
    </g>
    <g
       transform="matrix(1.25,0,0,-1.25,-47.303275,1448.2052)"
       id="g4220"
       style="fill:#1878e5;fill-opacity:1"
       clip-path="url(#clipPath4582)">
      <g
         id="g4222"
         style="fill:#1878e5;fill-opacity:1">
        <g
           id="g4228"
           style="fill:#1878e5;fill-opacity:1">
          <g
             id="g4230"
             style="fill:#1878e5;fill-opacity:1">
            <path
               d="m 156.468,517.011 c -0.396,-0.072 -0.702,-0.756 -0.918,-2.052 l 0,0 c -0.144,-1.008 -0.324,-2.142 -0.54,-3.402 l 0,0 c -0.216,-1.26 -0.414,-2.466 -0.594,-3.618 l 0,0 c -0.18,-1.152 -0.324,-2.142 -0.432,-2.97 l 0,0 c -0.108,-0.828 -0.162,-1.314 -0.162,-1.458 l 0,0 c 0.288,-2.376 0.63,-4.77 1.026,-7.182 l 0,0 c 0.396,-2.412 0.774,-4.842 1.134,-7.29 l 0,0 c 0.864,-6.12 1.548,-12.24 2.052,-18.36 l 0,0 c 0.504,-6.12 0.936,-12.24 1.296,-18.36 l 0,0 c 0.36,-6.12 0.72,-12.258 1.08,-18.414 l 0,0 c 0.36,-6.156 0.828,-12.294 1.404,-18.414 l 0,0 c 0.144,-1.656 0.144,-3.528 0,-5.616 l 0,0 c -0.144,-2.088 -0.756,-3.816 -1.836,-5.184 l 0,0 c -2.304,-2.88 -5.58,-5.85 -9.828,-8.91 l 0,0 c -4.248,-3.06 -8.856,-5.832 -13.824,-8.316 l 0,0 c -4.968,-2.484 -9.954,-4.536 -14.958,-6.156 l 0,0 c -5.004,-1.62 -9.414,-2.43 -13.23,-2.43 l 0,0 c -3.168,0 -6.012,0.63 -8.532,1.89 l 0,0 c -2.52,1.26 -4.644,2.934 -6.372,5.022 l 0,0 c -1.728,2.088 -2.988,4.5 -3.78,7.236 l 0,0 c -0.792,2.736 -1.044,5.616 -0.756,8.64 l 0,0 c 0.072,1.152 0.234,2.394 0.486,3.726 l 0,0 c 0.252,1.332 0.522,2.61 0.81,3.834 l 0,0 c 0.288,1.224 0.558,2.376 0.81,3.456 l 0,0 c 0.252,1.08 0.486,1.944 0.702,2.592 l 0,0 c 0.144,0.576 0,0.972 -0.432,1.188 l 0,0 c -0.432,0.216 -0.9,-0.18 -1.404,-1.188 l 0,0 c -0.576,-1.152 -1.098,-2.466 -1.566,-3.942 l 0,0 c -0.468,-1.476 -0.918,-3.006 -1.35,-4.59 l 0,0 c -0.432,-1.584 -0.792,-3.15 -1.08,-4.698 l 0,0 c -0.288,-1.548 -0.504,-2.97 -0.648,-4.266 l 0,0 c -0.36,-3.456 -0.126,-6.912 0.702,-10.368 l 0,0 c 0.828,-3.456 2.178,-6.552 4.05,-9.288 l 0,0 c 1.872,-2.736 4.266,-4.968 7.182,-6.696 l 0,0 c 2.916,-1.728 6.318,-2.556 10.206,-2.484 l 0,0 c 3.816,0.072 8.226,0.9 13.23,2.484 l 0,0 c 5.004,1.584 9.99,3.618 14.958,6.102 l 0,0 c 4.968,2.484 9.576,5.238 13.824,8.262 l 0,0 c 4.248,3.024 7.524,6.012 9.828,8.964 l 0,0 c 1.44,1.728 2.628,3.834 3.564,6.318 l 0,0 c 0.936,2.484 1.656,4.806 2.16,6.966 l 0,0 c 0.072,-2.376 0.324,-5.022 0.756,-7.938 l 0,0 c 0.432,-2.916 1.206,-5.598 2.322,-8.046 l 0,0 c 1.116,-2.448 2.646,-4.446 4.59,-5.994 l 0,0 c 1.944,-1.548 4.428,-2.142 7.452,-1.782 l 0,0 0,0.007 c 2.448,0.216 4.608,0.882 6.48,1.998 l 0,0 c 1.872,1.116 3.564,2.358 5.076,3.726 l 0,0 c 1.512,1.368 2.916,2.736 4.212,4.104 l 0,0 c 1.296,1.368 2.592,2.448 3.888,3.24 l 0,0 c 0.216,-2.664 1.116,-4.932 2.7,-6.804 l 0,0 c 1.584,-1.872 3.456,-3.456 5.616,-4.752 l 0,0 c -0.216,-0.576 -0.486,-1.242 -0.81,-1.998 l 0,0 c -0.324,-0.756 -0.594,-1.494 -0.81,-2.214 l 0,0 c -0.216,-0.72 -0.36,-1.35 -0.432,-1.89 l 0,0 c -0.072,-0.54 0.036,-0.918 0.324,-1.134 l 0,0 c 0.36,-0.216 0.756,-0.162 1.188,0.162 l 0,0 c 0.432,0.324 0.846,0.81 1.242,1.458 l 0,0 c 0.396,0.648 0.774,1.368 1.134,2.16 l 0,0 c 0.36,0.792 0.72,1.584 1.08,2.376 l 0,0 c 3.528,-1.152 7.362,-1.8 11.502,-1.944 l 0,0 c 4.14,-0.144 8.28,0.144 12.42,0.864 l 0,0 c 4.14,0.72 8.154,1.854 12.042,3.402 l 0,0 c 3.888,1.548 7.344,3.492 10.368,5.832 l 0,0 c 3.024,2.34 5.454,5.076 7.29,8.208 l 0,0 c 1.836,3.132 2.826,6.57 2.97,10.314 l 0,0 c 0.072,2.16 -0.558,4.248 -1.89,6.264 l 0,0 c -1.332,2.016 -3.024,3.834 -5.076,5.454 l 0,0 c -2.052,1.62 -4.266,2.916 -6.642,3.888 l 0,0 c -2.376,0.972 -4.536,1.458 -6.48,1.458 l 0,0 c -2.592,0 -5.13,-0.612 -7.614,-1.836 l 0,0 c -2.484,-1.224 -4.878,-2.808 -7.182,-4.752 l 0,0 c -2.304,-1.944 -4.482,-4.14 -6.534,-6.588 l 0,0 c -2.052,-2.448 -3.96,-4.932 -5.724,-7.452 l 0,0 c -1.764,-2.52 -3.348,-4.95 -4.752,-7.29 l 0,0 c -1.404,-2.34 -2.574,-4.338 -3.51,-5.994 l 0,0 c -1.152,0.432 -2.268,1.008 -3.348,1.728 l 0,0 c -1.08,0.72 -1.998,1.566 -2.754,2.538 l 0,0 c -0.756,0.972 -1.296,2.106 -1.62,3.402 l 0,0 c -0.324,1.296 -0.306,2.7 0.054,4.212 l 0,0 c 0.144,0.432 0.18,0.81 0.108,1.134 l 0,0 c -0.072,0.324 -0.324,0.45 -0.756,0.378 l 0,0 c -0.72,0 -1.8,-0.684 -3.24,-2.052 l 0,0 c -1.44,-1.368 -3.168,-2.88 -5.184,-4.536 l 0,0 c -2.016,-1.656 -4.32,-3.168 -6.912,-4.536 l 0,0 c -2.592,-1.368 -5.4,-2.052 -8.424,-2.052 l 0,0 -0.006,-0.007 c -2.662,-0.07 -4.766,0.883 -6.312,2.862 l 0,0 c -1.548,1.98 -2.754,4.338 -3.618,7.074 l 0,0 c -0.864,2.736 -1.44,5.58 -1.728,8.532 l 0,0 c -0.288,2.952 -0.54,5.364 -0.756,7.236 l 0,0 c -0.576,6.12 -1.026,12.24 -1.35,18.36 l 0,0 c -0.324,6.12 -0.684,12.24 -1.08,18.36 l 0,0 c -0.396,6.12 -0.846,12.24 -1.35,18.36 l 0,0 c -0.504,6.12 -1.188,12.24 -2.052,18.36 l 0,0 c -0.576,4.32 -1.242,8.316 -1.998,11.988 l 0,0 c -0.756,3.672 -1.458,6.948 -2.106,9.828 l 0,0 c -0.268,0.869 -0.582,1.304 -0.942,1.304 l 0,0 c -0.028,0 -0.056,-0.003 -0.084,-0.008 m 59.67,-123.545 c 1.512,2.952 3.33,5.904 5.454,8.856 l 0,0 c 2.124,2.952 4.428,5.634 6.912,8.046 l 0,0 c 2.484,2.412 5.112,4.356 7.884,5.832 l 0,0 c 2.772,1.476 5.616,2.178 8.532,2.106 l 0,0 c 2.916,-0.072 5.85,-1.062 8.802,-2.97 l 0,0 c 2.952,-1.908 5.832,-5.058 8.64,-9.45 l 0,0 c -1.512,-1.728 -3.402,-3.276 -5.67,-4.644 l 0,0 c -2.268,-1.368 -4.734,-2.574 -7.398,-3.618 l 0,0 c -2.664,-1.044 -5.472,-1.926 -8.424,-2.646 l 0,0 c -2.952,-0.72 -5.904,-1.242 -8.856,-1.566 l 0,0 c -2.952,-0.324 -5.778,-0.486 -8.478,-0.486 l 0,0 c -2.7,0 -5.166,0.18 -7.398,0.54"
               style="fill:#1878e5;stroke:none;fill-opacity:1"
               id="path4238"
               inkscape:connector-curvature="0" />
          </g>
        </g>
      </g>
    </g>
    <g
       transform="matrix(1.25,0,0,-1.25,-47.303275,1448.2052)"
       id="g4240"
       style="fill:#1878e5;fill-opacity:1"
       clip-path="url(#clipPath4578)">
      <g
         id="g4242"
         style="fill:#1878e5;fill-opacity:1">
        <g
           id="g4248"
           style="fill:#1878e5;fill-opacity:1">
          <g
             id="g4250"
             style="fill:#1878e5;fill-opacity:1">
            <path
               d="m 300.936,464.845 c -0.576,-1.08 -1.206,-2.25 -1.89,-3.51 l 0,0 c -0.684,-1.26 -1.386,-2.43 -2.106,-3.51 l 0,0 c -0.072,-0.216 0,-0.432 0.216,-0.648 l 0,0 c 1.368,-0.72 2.736,-1.53 4.104,-2.43 l 0,0 c 1.368,-0.9 2.664,-1.854 3.888,-2.862 l 0,0 c 0.216,-0.144 0.36,-0.234 0.432,-0.27 l 0,0 c 0.072,-0.036 0.216,0.09 0.432,0.378 l 0,0 c 0.216,0.36 0.504,0.846 0.864,1.458 l 0,0 c 0.36,0.612 0.738,1.224 1.134,1.836 l 0,0 c 0.396,0.612 0.774,1.224 1.134,1.836 l 0,0 c 0.36,0.612 0.612,1.098 0.756,1.458 l 0,0 c 0,0.072 0.018,0.18 0.054,0.324 l 0,0 c 0.036,0.144 -0.018,0.252 -0.162,0.324 l 0,0 c -0.36,0.288 -0.882,0.684 -1.566,1.188 l 0,0 c -0.684,0.504 -1.422,1.044 -2.214,1.62 l 0,0 c -0.792,0.576 -1.602,1.116 -2.43,1.62 l 0,0 c -0.828,0.504 -1.53,0.9 -2.106,1.188 l 0,0 c -0.108,0.072 -0.207,0.108 -0.297,0.108 l 0,0 c -0.09,0 -0.171,-0.036 -0.243,-0.108"
               style="fill:#1878e5;stroke:none;fill-opacity:1"
               id="path4258"
               inkscape:connector-curvature="0" />
          </g>
        </g>
      </g>
    </g>
    <g
       transform="matrix(1.25,0,0,-1.25,-47.303275,1448.2052)"
       id="g4260"
       style="fill:#1878e5;fill-opacity:1"
       clip-path="url(#clipPath4574)">
      <g
         id="g4262"
         style="fill:#1878e5;fill-opacity:1">
        <g
           id="g4268"
           style="fill:#1878e5;fill-opacity:1">
          <g
             id="g4270"
             style="fill:#1878e5;fill-opacity:1">
            <path
               d="m 265.539,515.074 c -0.072,-0.504 -0.198,-1.224 -0.378,-2.16 l 0,0 c -0.18,-0.936 -0.342,-1.89 -0.486,-2.862 l 0,0 c -0.144,-0.972 -0.27,-1.836 -0.378,-2.592 l 0,0 c -0.108,-0.756 -0.162,-1.17 -0.162,-1.242 l 0,0 c 0.576,-2.448 1.152,-4.95 1.728,-7.506 l 0,0 c 0.576,-2.556 1.044,-5.094 1.404,-7.614 l 0,0 c 1.656,-13.176 2.898,-26.208 3.726,-39.096 l 0,0 c 0.828,-12.888 1.638,-25.92 2.43,-39.096 l 0,0 c 0.072,-1.584 0.18,-3.42 0.324,-5.508 l 0,0 c 0.144,-2.088 0.414,-4.248 0.81,-6.48 l 0,0 c 0.396,-2.232 0.918,-4.392 1.566,-6.48 l 0,0 c 0.648,-2.088 1.512,-3.942 2.592,-5.562 l 0,0 c 1.08,-1.62 2.43,-2.862 4.05,-3.726 l 0,0 c 1.62,-0.864 3.582,-1.152 5.886,-0.864 l 0,0 0,0.006 0.009,-0.006 c 2.736,0.144 5.58,0.558 8.532,1.242 l 0,0 c 2.952,0.684 5.778,1.692 8.478,3.024 l 0,0 c 2.7,1.332 5.148,2.988 7.344,4.968 l 0,0 c 2.196,1.98 3.906,4.374 5.13,7.182 l 0,0 c 1.224,2.808 1.764,6.192 1.62,10.152 l 0,0 c -0.144,3.96 -0.882,7.758 -2.214,11.394 l 0,0 c -1.332,3.636 -3.258,6.732 -5.778,9.288 l 0,0 c -2.52,2.556 -5.544,3.834 -9.072,3.834 l 0,0 c -2.088,0 -3.96,-0.846 -5.616,-2.538 l 0,0 c -1.656,-1.692 -2.97,-3.708 -3.942,-6.048 l 0,0 c -0.972,-2.34 -1.494,-4.734 -1.566,-7.182 l 0,0 c -0.072,-2.448 0.504,-4.428 1.728,-5.94 l 0,0 c 0.792,-1.008 1.872,-1.674 3.24,-1.998 l 0,0 c 1.368,-0.324 2.862,-0.522 4.482,-0.594 l 0,0 c 1.62,-0.072 3.294,-0.108 5.022,-0.108 l 0,0 c 1.728,0 3.312,-0.162 4.752,-0.486 l 0,0 c 1.44,-0.324 2.682,-0.882 3.726,-1.674 l 0,0 c 1.044,-0.792 1.71,-2.016 1.998,-3.672 l 0,0 c -1.584,-1.44 -3.51,-2.79 -5.778,-4.05 l 0,0 c -2.268,-1.26 -4.68,-2.34 -7.236,-3.24 l 0,0 c -2.556,-0.9 -5.13,-1.62 -7.722,-2.16 l 0,0 c -2.592,-0.54 -4.968,-0.846 -7.128,-0.918 l 0,0 -0.009,-0.01 0,0.01 c -2.592,-0.072 -4.608,0.666 -6.048,2.214 l 0,0 c -1.44,1.548 -2.484,3.456 -3.132,5.724 l 0,0 c -0.648,2.268 -1.062,4.662 -1.242,7.182 l 0,0 c -0.18,2.52 -0.306,4.752 -0.378,6.696 l 0,0 c -0.792,13.176 -1.602,26.226 -2.43,39.15 l 0,0 c -0.828,12.924 -2.07,25.938 -3.726,39.042 l 0,0 c -0.432,2.88 -0.936,5.832 -1.512,8.856 l 0,0 c -0.576,3.024 -1.17,5.634 -1.782,7.83 l 0,0 c -0.612,2.196 -1.17,3.726 -1.674,4.59 l 0,0 c -0.184,0.314 -0.353,0.471 -0.507,0.471 l 0,0 c -0.271,0 -0.498,-0.481 -0.681,-1.443 m 35.487,-93.96 c -0.9,0.072 -1.782,0.216 -2.646,0.432 l 0,0 c -0.648,0.216 -1.026,0.522 -1.134,0.918 l 0,0 c -0.108,0.396 0,0.81 0.324,1.242 l 0,0 c 0.324,0.432 0.81,0.828 1.458,1.188 l 0,0 c 0.648,0.36 1.404,0.576 2.268,0.648 l 0,0 c 0.504,0 1.08,-0.09 1.728,-0.27 l 0,0 c 0.648,-0.18 1.314,-0.468 1.998,-0.864 l 0,0 c 0.684,-0.396 1.314,-0.882 1.89,-1.458 l 0,0 c 0.576,-0.576 1.008,-1.224 1.296,-1.944 l 0,0 c -0.576,0.072 -1.26,0.09 -2.052,0.054 l 0,0 c -0.792,-0.036 -1.62,-0.054 -2.484,-0.054 l 0,0 c -0.864,0 -1.746,0.036 -2.646,0.108"
               style="fill:#1878e5;stroke:none;fill-opacity:1"
               id="path4278"
               inkscape:connector-curvature="0" />
          </g>
        </g>
      </g>
    </g>
    <g
       transform="matrix(1.25,0,0,-1.25,-47.303275,1448.2052)"
       id="g4280"
       style="fill:#1878e5;fill-opacity:1"
       clip-path="url(#clipPath4570)">
      <g
         id="g4282"
         style="fill:#1878e5;fill-opacity:1">
        <g
           id="g4288"
           style="fill:#1878e5;fill-opacity:1">
          <g
             id="g4290"
             style="fill:#1878e5;fill-opacity:1">
            <path
               d="m 396.23,478.494 c -0.576,-1.08 -1.206,-2.25 -1.89,-3.51 l 0,0 c -0.684,-1.26 -1.386,-2.43 -2.106,-3.51 l 0,0 c -0.072,-0.216 0,-0.432 0.216,-0.648 l 0,0 c 1.368,-0.72 2.736,-1.53 4.104,-2.43 l 0,0 c 1.368,-0.9 2.664,-1.854 3.888,-2.862 l 0,0 c 0.216,-0.144 0.36,-0.234 0.432,-0.27 l 0,0 c 0.072,-0.036 0.216,0.09 0.432,0.378 l 0,0 c 0.216,0.36 0.504,0.846 0.864,1.458 l 0,0 c 0.36,0.612 0.738,1.224 1.134,1.836 l 0,0 c 0.396,0.612 0.774,1.224 1.134,1.836 l 0,0 c 0.36,0.612 0.612,1.098 0.756,1.458 l 0,0 c 0,0.072 0.018,0.18 0.054,0.324 l 0,0 c 0.036,0.144 -0.018,0.252 -0.162,0.324 l 0,0 c -0.36,0.288 -0.882,0.684 -1.566,1.188 l 0,0 c -0.684,0.504 -1.422,1.044 -2.214,1.62 l 0,0 c -0.792,0.576 -1.602,1.116 -2.43,1.62 l 0,0 c -0.828,0.504 -1.53,0.9 -2.106,1.188 l 0,0 c -0.108,0.072 -0.207,0.108 -0.297,0.108 l 0,0 c -0.09,0 -0.171,-0.036 -0.243,-0.108"
               style="fill:#1878e5;stroke:none;fill-opacity:1"
               id="path4298"
               inkscape:connector-curvature="0" />
          </g>
        </g>
      </g>
    </g>
    <g
       transform="matrix(1.25,0,0,-1.25,-47.303275,1448.2052)"
       id="g4300"
       style="fill:#1878e5;fill-opacity:1"
       clip-path="url(#clipPath4566)">
      <g
         id="g4302"
         style="fill:#1878e5;fill-opacity:1">
        <g
           id="g4308"
           style="fill:#1878e5;fill-opacity:1">
          <g
             id="g4310"
             style="fill:#1878e5;fill-opacity:1">
            <path
               d="m 369.062,517.581 c -0.324,-0.072 -0.558,-0.288 -0.702,-0.648 l 0,0 c -0.072,-0.216 -0.252,-0.756 -0.54,-1.62 l 0,0 c -0.288,-0.864 -0.594,-1.782 -0.918,-2.754 l 0,0 c -0.324,-0.972 -0.594,-1.89 -0.81,-2.754 l 0,0 c -0.216,-0.864 -0.288,-1.368 -0.216,-1.512 l 0,0 c 0.072,-0.36 0.324,-0.864 0.756,-1.512 l 0,0 c 0.432,-0.648 0.72,-1.26 0.864,-1.836 l 0,0 c 0.144,-0.864 0.288,-1.872 0.432,-3.024 l 0,0 c 0.144,-1.152 0.306,-2.322 0.486,-3.51 l 0,0 c 0.18,-1.188 0.342,-2.322 0.486,-3.402 l 0,0 c 0.144,-1.08 0.252,-1.98 0.324,-2.7 l 0,0 c 0.504,-4.608 1.116,-9.198 1.836,-13.77 l 0,0 c 0.72,-4.572 1.404,-9.144 2.052,-13.716 l 0,0 c 0.648,-4.572 1.224,-9.144 1.728,-13.716 l 0,0 c 0.504,-4.572 0.864,-9.162 1.08,-13.77 l 0,0 c 0.144,-1.872 0.342,-3.798 0.594,-5.778 l 0,0 c 0.252,-1.98 0.198,-3.906 -0.162,-5.778 l 0,0 c -0.072,-0.648 -0.414,-1.44 -1.026,-2.376 l 0,0 c -0.612,-0.936 -1.386,-2.016 -2.322,-3.24 l 0,0 c -0.936,-1.224 -2.034,-2.628 -3.294,-4.212 l 0,0 c -1.26,-1.584 -2.574,-3.384 -3.942,-5.4 l 0,0 c -0.864,-0.36 -1.602,-0.666 -2.214,-0.918 l 0,0 c -0.612,-0.252 -1.422,-0.666 -2.43,-1.242 l 0,0 0,0.006 c -1.872,-0.792 -3.96,-1.872 -6.264,-3.24 l 0,0 c -2.304,-1.368 -4.626,-2.862 -6.966,-4.482 l 0,0 c -2.34,-1.62 -4.554,-3.294 -6.642,-5.022 l 0,0 c -2.088,-1.728 -3.816,-3.348 -5.184,-4.86 l 0,0 c -2.232,-2.448 -4.41,-4.752 -6.534,-6.912 l 0,0 c -2.124,-2.16 -4.194,-4.05 -6.21,-5.67 l 0,0 c -2.016,-1.62 -3.96,-2.916 -5.832,-3.888 l 0,0 c -1.872,-0.972 -3.708,-1.458 -5.508,-1.458 l 0,0 c -2.52,0 -4.32,0.774 -5.4,2.322 l 0,0 c -1.08,1.548 -1.692,3.402 -1.836,5.562 l 0,0 c -0.144,2.16 0.018,4.392 0.486,6.696 l 0,0 c 0.468,2.304 0.954,4.212 1.458,5.724 l 0,0 c 1.008,3.024 2.16,5.814 3.456,8.37 l 0,0 c 1.296,2.556 2.376,4.554 3.24,5.994 l 0,0 c 0.648,1.08 0.954,1.818 0.918,2.214 l 0,0 c -0.036,0.396 -0.234,0.576 -0.594,0.54 l 0,0 c -0.36,-0.036 -0.81,-0.27 -1.35,-0.702 l 0,0 c -0.54,-0.432 -0.954,-0.9 -1.242,-1.404 l 0,0 c -1.296,-2.016 -2.52,-4.194 -3.672,-6.534 l 0,0 c -1.152,-2.34 -2.16,-4.752 -3.024,-7.236 l 0,0 c -0.864,-2.484 -1.548,-4.986 -2.052,-7.506 l 0,0 c -0.504,-2.52 -0.756,-4.968 -0.756,-7.344 l 0,0 c 0,-1.656 0.288,-3.366 0.864,-5.13 l 0,0 c 0.576,-1.764 1.404,-3.366 2.484,-4.806 l 0,0 c 1.08,-1.44 2.376,-2.628 3.888,-3.564 l 0,0 c 1.512,-0.936 3.204,-1.404 5.076,-1.404 l 0,0 c 1.8,0 3.69,0.504 5.67,1.512 l 0,0 c 1.98,1.008 4.014,2.376 6.102,4.104 l 0,0 c 2.088,1.728 4.212,3.708 6.372,5.94 l 0,0 c 2.16,2.232 4.392,4.572 6.696,7.02 l 0,0 c 1.296,1.368 2.862,2.808 4.698,4.32 l 0,0 c 1.836,1.512 3.744,2.988 5.724,4.428 l 0,0 c 1.98,1.44 3.996,2.772 6.048,3.996 l 0,0 c 2.051,1.223 4.011,2.266 5.882,3.13 l 0,0 0.004,-0.004 c 3.24,1.584 7.128,3.132 11.664,4.644 l 0,0 c 4.536,1.512 9.252,3.06 14.148,4.644 l 0,0 c 4.896,1.584 9.756,3.24 14.58,4.968 l 0,0 c 4.824,1.728 9.144,3.564 12.96,5.508 l 0,0 c 2.16,1.08 4.05,2.16 5.67,3.24 l 0,0 c 1.62,1.08 3.042,2.286 4.266,3.618 l 0,0 c 1.224,1.332 2.268,2.88 3.132,4.644 l 0,0 c 0.864,1.764 1.62,3.834 2.268,6.21 l 0,0 c 0.36,1.512 0.072,3.042 -0.864,4.59 l 0,0 c -0.936,1.548 -2.232,2.952 -3.888,4.212 l 0,0 c -1.656,1.26 -3.564,2.304 -5.724,3.132 l 0,0 c -2.16,0.828 -4.284,1.314 -6.372,1.458 l 0,0 c -5.904,0.36 -11.556,-1.386 -16.956,-5.238 l 0,0 c -5.4,-3.852 -10.872,-9.378 -16.416,-16.578 l 0,0 c 1.08,4.536 1.512,9.18 1.296,13.932 l 0,0 c -0.216,4.608 -0.594,9.216 -1.134,13.824 l 0,0 c -0.54,4.608 -1.134,9.198 -1.782,13.77 l 0,0 c -0.648,4.572 -1.314,9.126 -1.998,13.662 l 0,0 c -0.684,4.536 -1.278,9.108 -1.782,13.716 l 0,0 c 0,0.36 0.108,0.432 0.324,0.216 l 0,0 c 0.216,-0.216 0.504,-0.54 0.864,-0.972 l 0,0 c 0.36,-0.432 0.738,-0.9 1.134,-1.404 l 0,0 c 0.396,-0.504 0.774,-0.9 1.134,-1.188 l 0,0 c 0.504,-0.504 0.954,-0.576 1.35,-0.216 l 0,0 c 0.396,0.36 0.486,0.972 0.27,1.836 l 0,0 c -0.144,0.648 -0.576,1.872 -1.296,3.672 l 0,0 c -0.72,1.8 -1.566,3.798 -2.538,5.994 l 0,0 c -0.972,2.196 -1.962,4.392 -2.97,6.588 l 0,0 c -1.008,2.196 -1.872,4.014 -2.592,5.454 l 0,0 c -0.185,0.37 -0.41,0.555 -0.674,0.555 l 0,0 c -0.044,0 -0.09,-0.005 -0.136,-0.015 m 8.046,-98.334 c 2.52,2.844 5.274,5.634 8.262,8.37 l 0,0 c 2.988,2.736 6.138,5.22 9.45,7.452 l 0,0 c 3.312,2.232 6.642,3.78 9.99,4.644 l 0,0 c 3.348,0.864 6.66,0.828 9.936,-0.108 l 0,0 c 3.276,-0.936 6.39,-3.204 9.342,-6.804 l 0,0 c -2.952,-2.016 -6.642,-3.978 -11.07,-5.886 l 0,0 c -4.428,-1.908 -9.09,-3.762 -13.986,-5.562 l 0,0 c -4.896,-1.8 -9.828,-3.492 -14.796,-5.076 l 0,0 c -4.968,-1.584 -9.504,-3.024 -13.608,-4.32 l 0,0 c 1.8,2.016 3.96,4.446 6.48,7.29"
               style="fill:#1878e5;stroke:none;fill-opacity:1"
               id="path4318"
               inkscape:connector-curvature="0" />
          </g>
        </g>
      </g>
    </g>
    <g
       transform="matrix(1.25,0,0,-1.25,-47.303275,1448.2052)"
       id="g4320"
       style="fill:#1878e5;fill-opacity:1"
       clip-path="url(#clipPath4562)">
      <g
         id="g4322"
         style="fill:#1878e5;fill-opacity:1">
        <g
           id="g4328"
           style="fill:#1878e5;fill-opacity:1">
          <g
             id="g4330"
             style="fill:#1878e5;fill-opacity:1">
            <path
               d="m 441.35,443.443 c -0.576,-1.08 -1.206,-2.25 -1.89,-3.51 l 0,0 c -0.684,-1.26 -1.386,-2.43 -2.106,-3.51 l 0,0 c -0.072,-0.216 0,-0.432 0.216,-0.648 l 0,0 c 1.224,-0.648 2.484,-1.386 3.78,-2.214 l 0,0 c 1.296,-0.828 2.52,-1.71 3.672,-2.646 l 0,0 c -0.576,-1.008 -1.152,-2.016 -1.728,-3.024 l 0,0 c -0.576,-1.008 -1.152,-2.016 -1.728,-3.024 l 0,0 c -0.144,-0.216 -0.072,-0.396 0.216,-0.54 l 0,0 c 1.368,-0.72 2.736,-1.53 4.104,-2.43 l 0,0 c 1.368,-0.9 2.664,-1.854 3.888,-2.862 l 0,0 c 0.216,-0.144 0.36,-0.252 0.432,-0.324 l 0,0 c 0.072,-0.072 0.216,0.072 0.432,0.432 l 0,0 c 0.216,0.36 0.522,0.828 0.918,1.404 l 0,0 c 0.396,0.576 0.774,1.188 1.134,1.836 l 0,0 c 0.36,0.648 0.72,1.26 1.08,1.836 l 0,0 c 0.36,0.576 0.612,1.044 0.756,1.404 l 0,0 c 0,0.144 0.018,0.27 0.054,0.378 l 0,0 c 0.036,0.108 0.018,0.234 -0.054,0.378 l 0,0 c -0.36,0.288 -0.828,0.648 -1.404,1.08 l 0,0 c -0.576,0.432 -1.224,0.882 -1.944,1.35 l 0,0 c -0.72,0.468 -1.44,0.936 -2.16,1.404 l 0,0 c -0.72,0.468 -1.404,0.882 -2.052,1.242 l 0,0 c 0.576,0.864 1.206,1.872 1.89,3.024 l 0,0 c 0.684,1.152 1.17,2.052 1.458,2.7 l 0,0 c 0,0.072 0.018,0.18 0.054,0.324 l 0,0 c 0.036,0.144 -0.018,0.252 -0.162,0.324 l 0,0 c -0.36,0.288 -0.882,0.684 -1.566,1.188 l 0,0 c -0.684,0.504 -1.422,1.044 -2.214,1.62 l 0,0 c -0.792,0.576 -1.602,1.116 -2.43,1.62 l 0,0 c -0.828,0.504 -1.53,0.9 -2.106,1.188 l 0,0 c -0.108,0.072 -0.207,0.108 -0.297,0.108 l 0,0 c -0.09,0 -0.171,-0.036 -0.243,-0.108"
               style="fill:#1878e5;stroke:none;fill-opacity:1"
               id="path4338"
               inkscape:connector-curvature="0" />
          </g>
        </g>
      </g>
    </g>
    <g
       transform="matrix(1.25,0,0,-1.25,-47.303275,1448.2052)"
       id="g4340"
       style="fill:#1878e5;fill-opacity:1"
       clip-path="url(#clipPath4558)">
      <g
         id="g4342"
         style="fill:#1878e5;fill-opacity:1">
        <g
           id="g4348"
           style="fill:#1878e5;fill-opacity:1">
          <g
             id="g4350"
             style="fill:#1878e5;fill-opacity:1">
            <path
               d="m 457.64,465.25 c -0.576,-1.08 -1.206,-2.25 -1.89,-3.51 l 0,0 c -0.684,-1.26 -1.386,-2.43 -2.106,-3.51 l 0,0 c -0.072,-0.216 0,-0.432 0.216,-0.648 l 0,0 c 1.368,-0.72 2.736,-1.53 4.104,-2.43 l 0,0 c 1.368,-0.9 2.664,-1.854 3.888,-2.862 l 0,0 c 0.216,-0.144 0.36,-0.234 0.432,-0.27 l 0,0 c 0.072,-0.036 0.216,0.09 0.432,0.378 l 0,0 c 0.216,0.36 0.504,0.846 0.864,1.458 l 0,0 c 0.36,0.612 0.738,1.224 1.134,1.836 l 0,0 c 0.396,0.612 0.774,1.224 1.134,1.836 l 0,0 c 0.36,0.612 0.612,1.098 0.756,1.458 l 0,0 c 0,0.072 0.018,0.18 0.054,0.324 l 0,0 c 0.036,0.144 -0.018,0.252 -0.162,0.324 l 0,0 c -0.36,0.288 -0.882,0.684 -1.566,1.188 l 0,0 c -0.684,0.504 -1.422,1.044 -2.214,1.62 l 0,0 c -0.792,0.576 -1.602,1.116 -2.43,1.62 l 0,0 c -0.828,0.504 -1.53,0.9 -2.106,1.188 l 0,0 c -0.108,0.072 -0.207,0.108 -0.297,0.108 l 0,0 c -0.09,0 -0.171,-0.036 -0.243,-0.108"
               style="fill:#1878e5;stroke:none;fill-opacity:1"
               id="path4358"
               inkscape:connector-curvature="0" />
          </g>
        </g>
      </g>
    </g>
    <g
       transform="matrix(1.25,0,0,-1.25,-47.303275,1448.2052)"
       id="g4360"
       style="fill:#1878e5;fill-opacity:1"
       clip-path="url(#clipPath4554)">
      <g
         id="g4362"
         style="fill:#1878e5;fill-opacity:1">
        <g
           id="g4368"
           style="fill:#1878e5;fill-opacity:1">
          <g
             id="g4370"
             style="fill:#1878e5;fill-opacity:1">
            <path
               d="m 463.031,438.664 c -0.36,-0.073 -0.576,-0.253 -0.648,-0.541 l 0,0 c -0.072,-0.504 -0.252,-1.295 -0.54,-2.376 l 0,0 c -0.288,-1.079 -0.576,-2.214 -0.864,-3.402 l 0,0 c -0.288,-1.188 -0.54,-2.25 -0.756,-3.185 l 0,0 c -0.216,-0.937 -0.288,-1.513 -0.216,-1.729 l 0,0 c 0.504,-1.368 1.134,-3.329 1.89,-5.886 l 0,0 c 0.756,-2.556 1.44,-5.22 2.052,-7.992 l 0,0 c 0.612,-2.772 1.08,-5.436 1.404,-7.992 l 0,0 c 0.324,-2.556 0.27,-4.518 -0.162,-5.885 l 0,0 c -0.288,-1.081 -0.774,-2.07 -1.458,-2.971 l 0,0 c -0.684,-0.9 -1.494,-1.674 -2.43,-2.322 l 0,0 c -0.936,-0.648 -1.944,-1.152 -3.024,-1.512 l 0,0 c -1.08,-0.359 -2.16,-0.539 -3.24,-0.539 l 0,0 -0.004,-0.006 c -4.03,0.36 -6.638,1.602 -7.826,3.725 l 0,0 c -1.188,2.124 -1.458,4.914 -0.81,8.37 l 0,0 c 0.144,0.576 0.162,1.098 0.054,1.566 l 0,0 c -0.108,0.468 -0.522,0.522 -1.242,0.162 l 0,0 c -2.592,-1.512 -5.598,-3.114 -9.018,-4.806 l 0,0 c -3.42,-1.692 -7.038,-3.348 -10.854,-4.968 l 0,0 c -3.816,-1.62 -7.758,-3.096 -11.826,-4.428 l 0,0 c -4.068,-1.332 -8.046,-2.394 -11.934,-3.186 l 0,0 c -3.888,-0.792 -7.596,-1.224 -11.124,-1.296 l 0,0 c -3.526,-0.072 -6.657,0.36 -9.392,1.295 l 0,0 0,0.001 c -1.728,0.72 -3.42,1.584 -5.076,2.592 l 0,0 c -1.656,1.008 -3.168,2.16 -4.536,3.456 l 0,0 c -1.368,1.296 -2.52,2.736 -3.456,4.32 l 0,0 c -0.936,1.584 -1.548,3.348 -1.836,5.292 l 0,0 c -0.072,0.648 -0.18,1.26 -0.324,1.836 l 0,0 c -0.144,0.576 -0.324,0.972 -0.54,1.188 l 0,0 c -0.216,0.216 -0.432,0.162 -0.648,-0.162 l 0,0 c -0.216,-0.324 -0.468,-1.062 -0.756,-2.214 l 0,0 c -0.864,-3.672 -1.062,-6.912 -0.594,-9.72 l 0,0 c 0.468,-2.808 1.458,-5.292 2.97,-7.452 l 0,0 c 1.512,-2.16 3.528,-4.032 6.048,-5.616 l 0,0 c 2.518,-1.584 5.433,-2.915 8.743,-3.995 l 0,0 0.001,-10e-4 c 2.664,-0.72 5.652,-0.954 8.964,-0.702 l 0,0 c 3.312,0.252 6.786,0.846 10.422,1.782 l 0,0 c 3.636,0.936 7.344,2.106 11.124,3.51 l 0,0 c 3.78,1.404 7.452,2.898 11.016,4.482 l 0,0 c 3.564,1.584 6.966,3.186 10.206,4.806 l 0,0 c 3.24,1.62 6.156,3.042 8.748,4.266 l 0,0 c 0.216,-2.016 0.612,-3.906 1.188,-5.67 l 0,0 c 0.576,-1.764 1.386,-3.312 2.43,-4.644 l 0,0 c 1.044,-1.332 2.358,-2.376 3.942,-3.132 l 0,0 c 1.584,-0.756 3.564,-1.134 5.94,-1.134 l 0,0 0,0.007 c 2.016,0.287 3.78,0.972 5.292,2.051 l 0,0 c 1.512,1.081 2.808,2.376 3.888,3.888 l 0,0 c 1.08,1.512 1.944,3.186 2.592,5.022 l 0,0 c 0.648,1.836 1.044,3.691 1.188,5.562 l 0,0 c 0.288,-1.871 0.774,-3.78 1.458,-5.723 l 0,0 c 0.684,-1.945 1.584,-3.709 2.7,-5.293 l 0,0 c 1.116,-1.584 2.502,-2.826 4.158,-3.726 l 0,0 c 1.656,-0.899 3.634,-1.205 5.937,-0.918 l 0,0 0.012,-0.008 c 2.664,0.215 5.364,0.719 8.1,1.512 l 0,0 c 0,-0.073 0.018,-0.109 0.054,-0.109 l 0,0 c 0.036,0 0.054,-0.036 0.054,-0.107 l 0,0 c 0.144,-0.505 0.27,-1.026 0.378,-1.566 l 0,0 c 0.108,-0.541 0.306,-0.811 0.594,-0.811 l 0,0 c 0.432,0 0.72,0.397 0.864,1.188 l 0,0 c 0.144,0.792 0.216,1.476 0.216,2.053 l 0,0 c 4.104,1.439 7.704,3.599 10.8,6.48 l 0,0 c 3.096,2.88 5.184,6.696 6.264,11.447 l 0,0 c 0.36,1.512 0.486,3.475 0.378,5.886 l 0,0 c -0.108,2.413 -0.414,4.753 -0.918,7.02 l 0,0 c -0.504,2.269 -1.242,4.249 -2.214,5.941 l 0,0 c -0.972,1.691 -2.142,2.609 -3.51,2.754 l 0,0 c -1.944,0.215 -3.672,-0.63 -5.184,-2.539 l 0,0 c -1.512,-1.907 -2.808,-4.356 -3.888,-7.344 l 0,0 c -1.08,-2.988 -1.944,-6.281 -2.592,-9.882 l 0,0 c -0.648,-3.599 -1.08,-7.02 -1.296,-10.259 l 0,0 c -1.44,-0.36 -2.826,-0.631 -4.158,-0.811 l 0,0 c -1.332,-0.18 -2.646,-0.306 -3.942,-0.377 l 0,0 -0.009,-0.01 0,0.019 c -2.376,0 -4.266,0.683 -5.67,2.051 l 0,0 c -1.404,1.368 -2.52,3.042 -3.348,5.023 l 0,0 c -0.828,1.98 -1.422,4.103 -1.782,6.371 l 0,0 c -0.36,2.269 -0.684,4.266 -0.972,5.994 l 0,0 c -0.72,4.393 -1.62,8.874 -2.7,13.447 l 0,0 c -1.08,4.571 -2.412,8.621 -3.996,12.149 l 0,0 c -0.12,0.3 -0.316,0.45 -0.586,0.45 l 0,0 c -0.054,0 -0.11,-0.006 -0.17,-0.017 m 31.221,-37 c 0.432,2.196 0.954,4.212 1.566,6.048 l 0,0 c 0.612,1.836 1.35,3.348 2.214,4.536 l 0,0 c 0.864,1.189 1.872,1.854 3.024,1.998 l 0,0 c 0.792,0.072 1.53,-0.252 2.214,-0.972 l 0,0 c 0.684,-0.719 1.278,-1.62 1.782,-2.7 l 0,0 c 0.504,-1.08 0.9,-2.178 1.188,-3.293 l 0,0 c 0.288,-1.117 0.432,-2.035 0.432,-2.754 l 0,0 c -1.656,-2.233 -3.654,-4.123 -5.994,-5.671 l 0,0 c -2.34,-1.547 -4.806,-2.754 -7.398,-3.618 l 0,0 c 0.216,2.088 0.54,4.231 0.972,6.426"
               style="fill:#1878e5;stroke:none;fill-opacity:1"
               id="path4378"
               inkscape:connector-curvature="0" />
          </g>
        </g>
      </g>
    </g>
    <g
       transform="matrix(1.25,0,0,-1.25,-47.303275,1448.2052)"
       id="g4380"
       style="fill:#1878e5;fill-opacity:1"
       clip-path="url(#clipPath4550)">
      <g
         id="g4382"
         style="fill:#1878e5;fill-opacity:1">
        <g
           id="g4388"
           style="fill:#1878e5;fill-opacity:1">
          <g
             id="g4390"
             style="fill:#1878e5;fill-opacity:1">
            <path
               d="m 444.974,506.085 c -0.36,-0.144 -0.756,-0.612 -1.188,-1.404 l 0,0 c -0.576,-1.008 -1.188,-2.34 -1.836,-3.996 l 0,0 c -0.648,-1.656 -1.134,-3.33 -1.458,-5.022 l 0,0 c -0.324,-1.692 -0.396,-3.294 -0.216,-4.806 l 0,0 c 0.18,-1.512 0.81,-2.628 1.89,-3.348 l 0,0 c 0.72,-0.504 1.422,-0.522 2.106,-0.054 l 0,0 c 0.684,0.468 1.26,1.116 1.728,1.944 l 0,0 c 0.468,0.828 0.846,1.692 1.134,2.592 l 0,0 c 0.288,0.9 0.432,1.566 0.432,1.998 l 0,0 c 0,0.36 -0.108,0.522 -0.324,0.486 l 0,0 c -0.216,-0.036 -0.36,-0.234 -0.432,-0.594 l 0,0 c 0,-0.216 -0.09,-0.54 -0.27,-0.972 l 0,0 c -0.18,-0.432 -0.414,-0.81 -0.702,-1.134 l 0,0 c -0.288,-0.324 -0.612,-0.576 -0.972,-0.756 l 0,0 c -0.36,-0.18 -0.756,-0.126 -1.188,0.162 l 0,0 c -0.936,0.576 -1.44,1.476 -1.512,2.7 l 0,0 c -0.072,1.224 0.036,2.52 0.324,3.888 l 0,0 c 0.288,1.368 0.684,2.7 1.188,3.996 l 0,0 c 0.504,1.296 0.9,2.304 1.188,3.024 l 0,0 c 0.378,0.882 0.453,1.323 0.225,1.323 l 0,0 c -0.033,0 -0.072,-0.009 -0.117,-0.027"
               style="fill:#1878e5;stroke:none;fill-opacity:1"
               id="path4398"
               inkscape:connector-curvature="0" />
          </g>
        </g>
      </g>
    </g>
    <g
       transform="matrix(1.25,0,0,-1.25,-47.303275,1448.2052)"
       id="g4400"
       style="fill:#1878e5;fill-opacity:1"
       clip-path="url(#clipPath4546)">
      <g
         id="g4402"
         style="fill:#1878e5;fill-opacity:1">
        <g
           id="g4408"
           style="fill:#1878e5;fill-opacity:1">
          <g
             id="g4410"
             style="fill:#1878e5;fill-opacity:1">
            <path
               d="m 112.724,500.836 c -0.36,-0.144 -0.756,-0.612 -1.188,-1.404 l 0,0 c -0.576,-1.008 -1.188,-2.34 -1.836,-3.996 l 0,0 c -0.648,-1.656 -1.134,-3.33 -1.458,-5.022 l 0,0 c -0.324,-1.692 -0.396,-3.294 -0.216,-4.806 l 0,0 c 0.18,-1.512 0.81,-2.628 1.89,-3.348 l 0,0 c 0.72,-0.504 1.422,-0.522 2.106,-0.054 l 0,0 c 0.684,0.468 1.26,1.116 1.728,1.944 l 0,0 c 0.468,0.828 0.846,1.692 1.134,2.592 l 0,0 c 0.288,0.9 0.432,1.566 0.432,1.998 l 0,0 c 0,0.36 -0.108,0.522 -0.324,0.486 l 0,0 c -0.216,-0.036 -0.36,-0.234 -0.432,-0.594 l 0,0 c 0,-0.216 -0.09,-0.54 -0.27,-0.972 l 0,0 c -0.18,-0.432 -0.414,-0.81 -0.702,-1.134 l 0,0 c -0.288,-0.324 -0.612,-0.576 -0.972,-0.756 l 0,0 c -0.36,-0.18 -0.756,-0.126 -1.188,0.162 l 0,0 c -0.936,0.576 -1.44,1.476 -1.512,2.7 l 0,0 c -0.072,1.224 0.036,2.52 0.324,3.888 l 0,0 c 0.288,1.368 0.684,2.7 1.188,3.996 l 0,0 c 0.504,1.296 0.9,2.304 1.188,3.024 l 0,0 c 0.378,0.882 0.453,1.323 0.225,1.323 l 0,0 c -0.033,0 -0.072,-0.009 -0.117,-0.027"
               style="fill:#1878e5;stroke:none;fill-opacity:1"
               id="path4418"
               inkscape:connector-curvature="0" />
          </g>
        </g>
      </g>
    </g>
    <g
       transform="matrix(1.25,0,0,-1.25,-47.303275,1448.2052)"
       id="g4420"
       style="fill:#1878e5;fill-opacity:1"
       clip-path="url(#clipPath4542)">
      <g
         id="g4422"
         style="fill:#1878e5;fill-opacity:1">
        <g
           id="g4428"
           style="fill:#1878e5;fill-opacity:1">
          <g
             id="g4430"
             style="fill:#1878e5;fill-opacity:1">
            <path
               d="m 251.474,461.085 c -0.36,-0.144 -0.756,-0.612 -1.188,-1.404 l 0,0 c -0.576,-1.008 -1.188,-2.34 -1.836,-3.996 l 0,0 c -0.648,-1.656 -1.134,-3.33 -1.458,-5.022 l 0,0 c -0.324,-1.692 -0.396,-3.294 -0.216,-4.806 l 0,0 c 0.18,-1.512 0.81,-2.628 1.89,-3.348 l 0,0 c 0.72,-0.504 1.422,-0.522 2.106,-0.054 l 0,0 c 0.684,0.468 1.26,1.116 1.728,1.944 l 0,0 c 0.468,0.828 0.846,1.692 1.134,2.592 l 0,0 c 0.288,0.9 0.432,1.566 0.432,1.998 l 0,0 c 0,0.36 -0.108,0.522 -0.324,0.486 l 0,0 c -0.216,-0.036 -0.36,-0.234 -0.432,-0.594 l 0,0 c 0,-0.216 -0.09,-0.54 -0.27,-0.972 l 0,0 c -0.18,-0.432 -0.414,-0.81 -0.702,-1.134 l 0,0 c -0.288,-0.324 -0.612,-0.576 -0.972,-0.756 l 0,0 c -0.36,-0.18 -0.756,-0.126 -1.188,0.162 l 0,0 c -0.936,0.576 -1.44,1.476 -1.512,2.7 l 0,0 c -0.072,1.224 0.036,2.52 0.324,3.888 l 0,0 c 0.288,1.368 0.684,2.7 1.188,3.996 l 0,0 c 0.504,1.296 0.9,2.304 1.188,3.024 l 0,0 c 0.378,0.882 0.453,1.323 0.225,1.323 l 0,0 c -0.033,0 -0.072,-0.009 -0.117,-0.027"
               style="fill:#1878e5;stroke:none;fill-opacity:1"
               id="path4438"
               inkscape:connector-curvature="0" />
          </g>
        </g>
      </g>
    </g>
    <g
       transform="matrix(1.25,0,0,-1.25,-47.303275,1448.2052)"
       id="g4440"
       style="fill:#1878e5;fill-opacity:1"
       clip-path="url(#clipPath4538)">
      <g
         id="g4442"
         style="fill:#1878e5;fill-opacity:1">
        <g
           id="g4448"
           style="fill:#1878e5;fill-opacity:1">
          <g
             id="g4450"
             style="fill:#1878e5;fill-opacity:1">
            <path
               d="m 242.96,479.475 c -0.72,-1.368 -1.296,-2.88 -1.728,-4.536 l 0,0 c -0.432,-1.656 -0.756,-3.168 -0.972,-4.536 l 0,0 c -0.216,-1.368 -0.432,-2.052 -0.648,-2.052 l 0,0 c -0.432,2.088 -1.008,3.96 -1.728,5.616 l 0,0 c -0.576,1.44 -1.332,2.736 -2.268,3.888 l 0,0 c -0.936,1.152 -2.052,1.728 -3.348,1.728 l 0,0 c -0.216,0 -0.486,-0.162 -0.81,-0.486 l 0,0 c -0.324,-0.324 -0.63,-0.702 -0.918,-1.134 l 0,0 c -0.288,-0.432 -0.54,-0.864 -0.756,-1.296 l 0,0 c -0.216,-0.432 -0.324,-0.72 -0.324,-0.864 l 0,0 c -1.656,-1.944 -3.294,-3.69 -4.914,-5.238 l 0,0 c -1.62,-1.548 -3.276,-2.988 -4.968,-4.32 l 0,0 c -1.692,-1.332 -3.42,-2.646 -5.184,-3.942 l 0,0 c -1.764,-1.296 -3.654,-2.664 -5.67,-4.104 l 0,0 c -0.36,-0.216 -0.558,-0.45 -0.594,-0.702 l 0,0 c -0.036,-0.252 0.234,-0.27 0.81,-0.054 l 0,0 c 4.32,1.728 8.352,4.05 12.096,6.966 l 0,0 c 3.744,2.916 6.948,6.174 9.612,9.774 l 0,0 c 0.36,-0.36 0.756,-0.684 1.188,-0.972 l 0,0 c 0.432,-0.288 0.756,-0.432 0.972,-0.432 l 0,0 c 0.216,0 0.45,0.108 0.702,0.324 l 0,0 c 0.252,0.216 0.486,0.324 0.702,0.324 l 0,0 c 0.432,0 0.9,-0.378 1.404,-1.134 l 0,0 c 0.504,-0.756 0.954,-1.656 1.35,-2.7 l 0,0 c 0.396,-1.044 0.738,-2.16 1.026,-3.348 l 0,0 c 0.288,-1.188 0.504,-2.214 0.648,-3.078 l 0,0 c 0.072,-0.144 0.18,-0.378 0.324,-0.702 l 0,0 c 0.144,-0.324 0.396,-0.27 0.756,0.162 l 0,0 c 0.504,0.576 0.918,1.656 1.242,3.24 l 0,0 c 0.324,1.584 0.63,3.222 0.918,4.914 l 0,0 c 0.288,1.692 0.648,3.186 1.08,4.482 l 0,0 c 0.432,1.296 1.08,1.944 1.944,1.944 l 0,0 c 0.576,0 1.098,-0.324 1.566,-0.972 l 0,0 c 0.468,-0.648 0.81,-0.972 1.026,-0.972 l 0,0 c 0.216,0 0.414,0.144 0.594,0.432 l 0,0 c 0.18,0.288 0.342,0.63 0.486,1.026 l 0,0 c 0.144,0.396 0.252,0.792 0.324,1.188 l 0,0 c 0.072,0.396 0.108,0.666 0.108,0.81 l 0,0 c 0,0.648 -0.378,1.278 -1.134,1.89 l 0,0 c -0.756,0.612 -1.458,0.918 -2.106,0.918 l 0,0 c -1.152,0 -2.088,-0.684 -2.808,-2.052"
               style="fill:#1878e5;stroke:none;fill-opacity:1"
               id="path4458"
               inkscape:connector-curvature="0" />
          </g>
        </g>
      </g>
    </g>
    <g
       transform="matrix(1.25,0,0,-1.25,-47.303275,1448.2052)"
       id="g4460"
       style="fill:#1878e5;fill-opacity:1"
       clip-path="url(#clipPath4534)">
      <g
         id="g4462"
         style="fill:#1878e5;fill-opacity:1">
        <g
           id="g4468"
           style="fill:#1878e5;fill-opacity:1">
          <g
             id="g4470"
             style="fill:#1878e5;fill-opacity:1">
            <path
               d="m 408.716,513.072 c -0.72,-1.368 -1.296,-2.88 -1.728,-4.536 l 0,0 c -0.432,-1.656 -0.756,-3.168 -0.972,-4.536 l 0,0 c -0.216,-1.368 -0.432,-2.052 -0.648,-2.052 l 0,0 c 0,0 -0.144,0.576 -0.432,1.728 l 0,0 c -0.288,1.152 -0.738,2.43 -1.35,3.834 l 0,0 c -0.612,1.404 -1.368,2.7 -2.268,3.888 l 0,0 c -0.9,1.188 -1.998,1.782 -3.294,1.782 l 0,0 c -0.216,0 -0.486,-0.162 -0.81,-0.486 l 0,0 c -0.324,-0.324 -0.63,-0.702 -0.918,-1.134 l 0,0 c -0.288,-0.432 -0.54,-0.864 -0.756,-1.296 l 0,0 c -0.216,-0.432 -0.324,-0.72 -0.324,-0.864 l 0,0 c 0,-0.216 0.126,-0.504 0.378,-0.864 l 0,0 c 0.252,-0.36 0.576,-0.702 0.972,-1.026 l 0,0 c 0.396,-0.324 0.774,-0.612 1.134,-0.864 l 0,0 c 0.36,-0.252 0.648,-0.378 0.864,-0.378 l 0,0 c 0.216,0 0.45,0.108 0.702,0.324 l 0,0 c 0.252,0.216 0.486,0.324 0.702,0.324 l 0,0 c 0.504,0 1.044,-0.45 1.62,-1.35 l 0,0 c 0.576,-0.9 1.08,-1.944 1.512,-3.132 l 0,0 c 0.432,-1.188 0.756,-2.358 0.972,-3.51 l 0,0 c 0.216,-1.152 0.252,-1.98 0.108,-2.484 l 0,0 c -0.216,-0.936 -1.242,-2.34 -3.078,-4.212 l 0,0 c -1.836,-1.872 -3.942,-3.852 -6.318,-5.94 l 0,0 c -2.376,-2.088 -4.77,-4.05 -7.182,-5.886 l 0,0 c -2.412,-1.836 -4.338,-3.186 -5.778,-4.05 l 0,0 c -0.36,-0.216 -0.558,-0.45 -0.594,-0.702 l 0,0 c -0.036,-0.252 0.234,-0.27 0.81,-0.054 l 0,0 c 2.016,0.792 4.212,1.89 6.588,3.294 l 0,0 c 2.376,1.404 4.68,3.006 6.912,4.806 l 0,0 c 2.232,1.8 4.248,3.726 6.048,5.778 l 0,0 c 1.8,2.052 3.096,4.122 3.888,6.21 l 0,0 c 0.432,1.152 0.81,2.592 1.134,4.32 l 0,0 c 0.324,1.728 0.648,3.384 0.972,4.968 l 0,0 c 0.324,1.584 0.702,2.952 1.134,4.104 l 0,0 c 0.432,1.152 1.044,1.728 1.836,1.728 l 0,0 c 0.648,-0.072 1.206,-0.414 1.674,-1.026 l 0,0 c 0.468,-0.612 0.81,-0.918 1.026,-0.918 l 0,0 c 0.216,0 0.396,0.144 0.54,0.432 l 0,0 c 0.144,0.288 0.288,0.63 0.432,1.026 l 0,0 c 0.144,0.396 0.252,0.792 0.324,1.188 l 0,0 c 0.072,0.396 0.108,0.666 0.108,0.81 l 0,0 c 0,0.576 -0.378,1.188 -1.134,1.836 l 0,0 c -0.756,0.648 -1.422,0.972 -1.998,0.972 l 0,0 c -1.152,0 -2.088,-0.684 -2.808,-2.052"
               style="fill:#1878e5;stroke:none;fill-opacity:1"
               id="path4478"
               inkscape:connector-curvature="0" />
          </g>
        </g>
      </g>
    </g>
    <g
       transform="matrix(1.25,0,0,-1.25,-47.303275,1448.2052)"
       id="g4480"
       style="fill:#1878e5;fill-opacity:1"
       clip-path="url(#clipPath4530)">
      <g
         id="g4482"
         style="fill:#1878e5;fill-opacity:1">
        <g
           id="g4488"
           style="fill:#1878e5;fill-opacity:1">
          <g
             id="g4490"
             style="fill:#1878e5;fill-opacity:1">
            <path
               d="m 480.225,478.336 c -0.36,-0.144 -0.756,-0.612 -1.188,-1.404 l 0,0 c -0.576,-1.008 -1.188,-2.34 -1.836,-3.996 l 0,0 c -0.648,-1.656 -1.134,-3.33 -1.458,-5.022 l 0,0 c -0.324,-1.692 -0.396,-3.294 -0.216,-4.806 l 0,0 c 0.18,-1.512 0.81,-2.628 1.89,-3.348 l 0,0 c 0.72,-0.504 1.422,-0.522 2.106,-0.054 l 0,0 c 0.684,0.468 1.26,1.116 1.728,1.944 l 0,0 c 0.468,0.828 0.846,1.692 1.134,2.592 l 0,0 c 0.288,0.9 0.432,1.566 0.432,1.998 l 0,0 c 0,0.36 -0.108,0.522 -0.324,0.486 l 0,0 c -0.216,-0.036 -0.36,-0.234 -0.432,-0.594 l 0,0 c 0,-0.216 -0.09,-0.54 -0.27,-0.972 l 0,0 c -0.18,-0.432 -0.414,-0.81 -0.702,-1.134 l 0,0 c -0.288,-0.324 -0.612,-0.576 -0.972,-0.756 l 0,0 c -0.36,-0.18 -0.756,-0.126 -1.188,0.162 l 0,0 c -0.936,0.576 -1.44,1.476 -1.512,2.7 l 0,0 c -0.072,1.224 0.036,2.52 0.324,3.888 l 0,0 c 0.288,1.368 0.684,2.7 1.188,3.996 l 0,0 c 0.504,1.296 0.9,2.304 1.188,3.024 l 0,0 c 0.378,0.882 0.453,1.323 0.224,1.323 l 0,0 c -0.032,0 -0.071,-0.009 -0.116,-0.027"
               style="fill:#1878e5;stroke:none;fill-opacity:1"
               id="path4498"
               inkscape:connector-curvature="0" />
          </g>
        </g>
      </g>
    </g>
    <g
       transform="matrix(1.25,0,0,-1.25,-47.303275,1448.2052)"
       id="g4500"
       style="fill:#1878e5;fill-opacity:1"
       clip-path="url(#clipPath4526)">
      <g
         id="g4502"
         style="fill:#1878e5;fill-opacity:1">
        <g
           id="g4508"
           style="fill:#1878e5;fill-opacity:1">
          <g
             id="g4510"
             style="fill:#1878e5;fill-opacity:1">
            <path
               d="m 355.724,392.085 c -0.36,-0.144 -0.756,-0.612 -1.188,-1.404 l 0,0 c -0.576,-1.008 -1.188,-2.34 -1.836,-3.996 l 0,0 c -0.648,-1.656 -1.134,-3.33 -1.458,-5.022 l 0,0 c -0.324,-1.692 -0.396,-3.294 -0.216,-4.806 l 0,0 c 0.18,-1.512 0.81,-2.628 1.89,-3.348 l 0,0 c 0.72,-0.504 1.422,-0.522 2.106,-0.054 l 0,0 c 0.684,0.468 1.26,1.116 1.728,1.944 l 0,0 c 0.468,0.828 0.846,1.692 1.134,2.592 l 0,0 c 0.288,0.9 0.432,1.566 0.432,1.998 l 0,0 c 0,0.36 -0.108,0.522 -0.324,0.486 l 0,0 c -0.216,-0.036 -0.36,-0.234 -0.432,-0.594 l 0,0 c 0,-0.216 -0.09,-0.54 -0.27,-0.972 l 0,0 c -0.18,-0.432 -0.414,-0.81 -0.702,-1.134 l 0,0 c -0.288,-0.324 -0.612,-0.576 -0.972,-0.756 l 0,0 c -0.36,-0.18 -0.756,-0.126 -1.188,0.162 l 0,0 c -0.936,0.576 -1.44,1.476 -1.512,2.7 l 0,0 c -0.072,1.224 0.036,2.52 0.324,3.888 l 0,0 c 0.288,1.368 0.684,2.7 1.188,3.996 l 0,0 c 0.504,1.296 0.9,2.304 1.188,3.024 l 0,0 c 0.378,0.882 0.453,1.323 0.225,1.323 l 0,0 c -0.033,0 -0.072,-0.009 -0.117,-0.027"
               style="fill:#1878e5;stroke:none;fill-opacity:1"
               id="path4518"
               inkscape:connector-curvature="0" />
          </g>
        </g>
      </g>
    </g>
    <g
       transform="matrix(1.25,0,0,-1.25,-47.303275,1448.2052)"
       id="g4520"
       style="fill:#1878e5;fill-opacity:1"
       clip-path="url(#clipPath4522)">
      <g
         id="g4522"
         style="fill:#1878e5;fill-opacity:1">
        <g
           id="g4528"
           style="fill:#1878e5;fill-opacity:1">
          <g
             id="g4530"
             style="fill:#1878e5;fill-opacity:1">
            <path
               d="m 264.992,384.444 c -6.336,-2.16 -12.582,-4.446 -18.738,-6.858 l 0,0 c -6.156,-2.412 -12.294,-4.986 -18.414,-7.722 l 0,0 c -0.288,-0.144 -0.576,-0.486 -0.864,-1.026 l 0,0 c -0.288,-0.54 -0.792,-1.458 -1.512,-2.754 l 0,0 c -0.144,-0.144 -0.108,-0.216 0.108,-0.216 l 0,0 0.108,-0.108 c 6.12,2.736 12.258,5.328 18.414,7.776 l 0,0 c 6.156,2.448 12.402,4.752 18.738,6.912 l 0,0 c 0.36,0.144 0.594,0.324 0.702,0.54 l 0,0 c 0.108,0.216 0.414,0.72 0.918,1.512 l 0,0 c 0.655,1.309 0.863,1.964 0.625,1.964 l 0,0 c -0.024,0 -0.052,-0.007 -0.085,-0.02"
               style="fill:#1878e5;stroke:none;fill-opacity:1"
               id="path4538"
               inkscape:connector-curvature="0" />
          </g>
        </g>
      </g>
    </g>
    <g
       transform="matrix(1.25,0,0,-1.25,-47.303275,1448.2052)"
       id="g4540"
       style="fill:#1878e5;fill-opacity:1"
       clip-path="url(#clipPath4518)">
      <g
         id="g4542"
         style="fill:#1878e5;fill-opacity:1">
        <g
           id="g4548"
           style="fill:#1878e5;fill-opacity:1">
          <g
             id="g4550"
             style="fill:#1878e5;fill-opacity:1">
            <path
               d="m 358.7,496.476 c -12.312,-4.248 -24.48,-8.712 -36.504,-13.392 l 0,0 c -12.024,-4.68 -23.976,-9.72 -35.856,-15.12 l 0,0 c -0.288,-0.144 -0.576,-0.486 -0.864,-1.026 l 0,0 c -0.288,-0.54 -0.792,-1.458 -1.512,-2.754 l 0,0 c -0.144,-0.144 -0.108,-0.216 0.108,-0.216 l 0,0 0.108,-0.108 c 11.88,5.4 23.832,10.458 35.856,15.174 l 0,0 c 12.024,4.716 24.192,9.162 36.504,13.338 l 0,0 c 0.36,0.144 0.594,0.324 0.702,0.54 l 0,0 c 0.108,0.216 0.414,0.72 0.918,1.512 l 0,0 c 0.36,0.72 0.612,1.278 0.756,1.674 l 0,0 c 0.106,0.29 0.095,0.436 -0.031,0.436 l 0,0 c -0.046,0 -0.108,-0.02 -0.185,-0.058"
               style="fill:#1878e5;stroke:none;fill-opacity:1"
               id="path4558"
               inkscape:connector-curvature="0" />
          </g>
        </g>
      </g>
    </g>
    <g
       transform="matrix(1.25,0,0,-1.25,-47.303275,1448.2052)"
       id="g4560"
       style="fill:#1878e5;fill-opacity:1"
       clip-path="url(#clipPath4514)">
      <g
         id="g4562"
         style="fill:#1878e5;fill-opacity:1">
        <g
           id="g4568"
           style="fill:#1878e5;fill-opacity:1">
          <g
             id="g4570"
             style="fill:#1878e5;fill-opacity:1">
            <path
               d="m 164.474,387.585 c -0.36,-0.144 -0.756,-0.612 -1.188,-1.404 l 0,0 c -0.576,-1.008 -1.188,-2.34 -1.836,-3.996 l 0,0 c -0.648,-1.656 -1.134,-3.33 -1.458,-5.022 l 0,0 c -0.324,-1.692 -0.396,-3.294 -0.216,-4.806 l 0,0 c 0.18,-1.512 0.81,-2.628 1.89,-3.348 l 0,0 c 0.72,-0.504 1.422,-0.522 2.106,-0.054 l 0,0 c 0.684,0.468 1.26,1.116 1.728,1.944 l 0,0 c 0.468,0.828 0.846,1.692 1.134,2.592 l 0,0 c 0.288,0.9 0.432,1.566 0.432,1.998 l 0,0 c 0,0.36 -0.108,0.522 -0.324,0.486 l 0,0 c -0.216,-0.036 -0.36,-0.234 -0.432,-0.594 l 0,0 c 0,-0.216 -0.09,-0.54 -0.27,-0.972 l 0,0 c -0.18,-0.432 -0.414,-0.81 -0.702,-1.134 l 0,0 c -0.288,-0.324 -0.612,-0.576 -0.972,-0.756 l 0,0 c -0.36,-0.18 -0.756,-0.126 -1.188,0.162 l 0,0 c -0.936,0.576 -1.44,1.476 -1.512,2.7 l 0,0 c -0.072,1.224 0.036,2.52 0.324,3.888 l 0,0 c 0.288,1.368 0.684,2.7 1.188,3.996 l 0,0 c 0.504,1.296 0.9,2.304 1.188,3.024 l 0,0 c 0.378,0.882 0.453,1.323 0.225,1.323 l 0,0 c -0.033,0 -0.072,-0.009 -0.117,-0.027"
               style="fill:#1878e5;stroke:none;fill-opacity:1"
               id="path4578"
               inkscape:connector-curvature="0" />
          </g>
        </g>
      </g>
    </g>
    <g
       transform="matrix(1.25,0,0,-1.25,-47.303275,1448.2052)"
       id="g4580"
       style="fill:#1878e5;fill-opacity:1"
       clip-path="url(#clipPath4510)">
      <g
         id="g4582"
         style="fill:#1878e5;fill-opacity:1">
        <g
           id="g4588"
           style="fill:#1878e5;fill-opacity:1">
          <g
             id="g4590"
             style="fill:#1878e5;fill-opacity:1">
            <path
               d="m 112.724,414.585 c -0.36,-0.144 -0.756,-0.612 -1.188,-1.404 l 0,0 c -0.576,-1.008 -1.188,-2.34 -1.836,-3.996 l 0,0 c -0.648,-1.656 -1.134,-3.33 -1.458,-5.022 l 0,0 c -0.324,-1.692 -0.396,-3.294 -0.216,-4.806 l 0,0 c 0.18,-1.512 0.81,-2.628 1.89,-3.348 l 0,0 c 0.72,-0.504 1.422,-0.522 2.106,-0.054 l 0,0 c 0.684,0.468 1.26,1.116 1.728,1.944 l 0,0 c 0.468,0.828 0.846,1.692 1.134,2.592 l 0,0 c 0.288,0.9 0.432,1.566 0.432,1.998 l 0,0 c 0,0.36 -0.108,0.522 -0.324,0.486 l 0,0 c -0.216,-0.036 -0.36,-0.234 -0.432,-0.594 l 0,0 c 0,-0.216 -0.09,-0.54 -0.27,-0.972 l 0,0 c -0.18,-0.432 -0.414,-0.81 -0.702,-1.134 l 0,0 c -0.288,-0.324 -0.612,-0.576 -0.972,-0.756 l 0,0 c -0.36,-0.18 -0.756,-0.126 -1.188,0.162 l 0,0 c -0.936,0.576 -1.44,1.476 -1.512,2.7 l 0,0 c -0.072,1.224 0.036,2.52 0.324,3.888 l 0,0 c 0.288,1.368 0.684,2.7 1.188,3.996 l 0,0 c 0.504,1.296 0.9,2.304 1.188,3.024 l 0,0 c 0.378,0.882 0.453,1.323 0.225,1.323 l 0,0 c -0.033,0 -0.072,-0.009 -0.117,-0.027"
               style="fill:#1878e5;stroke:none;fill-opacity:1"
               id="path4598"
               inkscape:connector-curvature="0" />
          </g>
        </g>
      </g>
    </g>
    <g
       transform="matrix(1.25,0,0,-1.25,-47.303275,1448.2052)"
       id="g4600"
       style="fill:#1878e5;fill-opacity:1"
       clip-path="url(#clipPath4506)">
      <g
         id="g4602"
         style="fill:#1878e5;fill-opacity:1">
        <g
           id="g4608"
           style="fill:#1878e5;fill-opacity:1">
          <g
             id="g4610"
             style="fill:#1878e5;fill-opacity:1">
            <path
               d="m 181.724,437.836 c -0.36,-0.144 -0.756,-0.612 -1.188,-1.404 l 0,0 c -0.576,-1.008 -1.188,-2.34 -1.836,-3.996 l 0,0 c -0.648,-1.656 -1.134,-3.33 -1.458,-5.022 l 0,0 c -0.324,-1.692 -0.396,-3.294 -0.216,-4.806 l 0,0 c 0.18,-1.512 0.81,-2.628 1.89,-3.348 l 0,0 c 0.72,-0.504 1.422,-0.522 2.106,-0.054 l 0,0 c 0.684,0.468 1.26,1.116 1.728,1.944 l 0,0 c 0.468,0.828 0.846,1.692 1.134,2.592 l 0,0 c 0.288,0.9 0.432,1.566 0.432,1.998 l 0,0 c 0,0.36 -0.108,0.522 -0.324,0.486 l 0,0 c -0.216,-0.036 -0.36,-0.234 -0.432,-0.594 l 0,0 c 0,-0.216 -0.09,-0.54 -0.27,-0.972 l 0,0 c -0.18,-0.432 -0.414,-0.81 -0.702,-1.134 l 0,0 c -0.288,-0.324 -0.612,-0.576 -0.972,-0.756 l 0,0 c -0.36,-0.18 -0.756,-0.126 -1.188,0.162 l 0,0 c -0.936,0.576 -1.44,1.476 -1.512,2.7 l 0,0 c -0.072,1.224 0.036,2.52 0.324,3.888 l 0,0 c 0.288,1.368 0.684,2.7 1.188,3.996 l 0,0 c 0.504,1.296 0.9,2.304 1.188,3.024 l 0,0 c 0.378,0.882 0.453,1.323 0.225,1.323 l 0,0 c -0.033,0 -0.072,-0.009 -0.117,-0.027"
               style="fill:#1878e5;stroke:none;fill-opacity:1"
               id="path4618"
               inkscape:connector-curvature="0" />
          </g>
        </g>
      </g>
    </g>
    <g
       transform="matrix(1.25,0,0,-1.25,-47.303275,1448.2052)"
       id="g4620"
       style="fill:#1878e5;fill-opacity:1"
       clip-path="url(#clipPath4502)">
      <g
         id="g4622"
         style="fill:#1878e5;fill-opacity:1">
        <g
           id="g4628"
           style="fill:#1878e5;fill-opacity:1">
          <g
             id="g4630"
             style="fill:#1878e5;fill-opacity:1">
            <path
               d="m 321.6,512.235 c -0.36,-0.144 -0.756,-0.612 -1.188,-1.404 l 0,0 c -0.576,-1.008 -1.188,-2.34 -1.836,-3.996 l 0,0 c -0.648,-1.656 -1.134,-3.33 -1.458,-5.022 l 0,0 c -0.324,-1.692 -0.396,-3.294 -0.216,-4.806 l 0,0 c 0.18,-1.512 0.81,-2.628 1.89,-3.348 l 0,0 c 0.72,-0.504 1.422,-0.522 2.106,-0.054 l 0,0 c 0.684,0.468 1.26,1.116 1.728,1.944 l 0,0 c 0.468,0.828 0.846,1.692 1.134,2.592 l 0,0 c 0.288,0.9 0.432,1.566 0.432,1.998 l 0,0 c 0,0.36 -0.108,0.522 -0.324,0.486 l 0,0 c -0.216,-0.036 -0.36,-0.234 -0.432,-0.594 l 0,0 c 0,-0.216 -0.09,-0.54 -0.27,-0.972 l 0,0 c -0.18,-0.432 -0.414,-0.81 -0.702,-1.134 l 0,0 c -0.288,-0.324 -0.612,-0.576 -0.972,-0.756 l 0,0 c -0.36,-0.18 -0.756,-0.126 -1.188,0.162 l 0,0 c -0.936,0.576 -1.44,1.476 -1.512,2.7 l 0,0 c -0.072,1.224 0.036,2.52 0.324,3.888 l 0,0 c 0.288,1.368 0.684,2.7 1.188,3.996 l 0,0 c 0.504,1.296 0.9,2.304 1.188,3.024 l 0,0 c 0.378,0.882 0.453,1.323 0.224,1.323 l 0,0 c -0.032,0 -0.071,-0.009 -0.116,-0.027"
               style="fill:#1878e5;stroke:none;fill-opacity:1"
               id="path4638"
               inkscape:connector-curvature="0" />
          </g>
        </g>
      </g>
    </g>
    <g
       transform="matrix(1.25,0,0,-1.25,-47.303275,1448.2052)"
       id="g4640"
       style="fill:#1878e5;fill-opacity:1"
       clip-path="url(#clipPath4498)">
      <g
         id="g4642"
         style="fill:#1878e5;fill-opacity:1">
        <g
           id="g4648"
           style="fill:#1878e5;fill-opacity:1">
          <g
             id="g4650"
             style="fill:#1878e5;fill-opacity:1">
            <path
               d="m 333.975,425.835 c -0.36,-0.144 -0.756,-0.612 -1.188,-1.404 l 0,0 c -0.576,-1.008 -1.188,-2.34 -1.836,-3.996 l 0,0 c -0.648,-1.656 -1.134,-3.33 -1.458,-5.022 l 0,0 c -0.324,-1.692 -0.396,-3.294 -0.216,-4.806 l 0,0 c 0.18,-1.512 0.81,-2.628 1.89,-3.348 l 0,0 c 0.72,-0.504 1.422,-0.522 2.106,-0.054 l 0,0 c 0.684,0.468 1.26,1.116 1.728,1.944 l 0,0 c 0.468,0.828 0.846,1.692 1.134,2.592 l 0,0 c 0.288,0.9 0.432,1.566 0.432,1.998 l 0,0 c 0,0.36 -0.108,0.522 -0.324,0.486 l 0,0 c -0.216,-0.036 -0.36,-0.234 -0.432,-0.594 l 0,0 c 0,-0.216 -0.09,-0.54 -0.27,-0.972 l 0,0 c -0.18,-0.432 -0.414,-0.81 -0.702,-1.134 l 0,0 c -0.288,-0.324 -0.612,-0.576 -0.972,-0.756 l 0,0 c -0.36,-0.18 -0.756,-0.126 -1.188,0.162 l 0,0 c -0.936,0.576 -1.44,1.476 -1.512,2.7 l 0,0 c -0.072,1.224 0.036,2.52 0.324,3.888 l 0,0 c 0.288,1.368 0.684,2.7 1.188,3.996 l 0,0 c 0.504,1.296 0.9,2.304 1.188,3.024 l 0,0 c 0.378,0.882 0.453,1.323 0.224,1.323 l 0,0 c -0.032,0 -0.071,-0.009 -0.116,-0.027"
               style="fill:#1878e5;stroke:none;fill-opacity:1"
               id="path4658"
               inkscape:connector-curvature="0" />
          </g>
        </g>
      </g>
    </g>
    <g
       transform="matrix(1.25,0,0,-1.25,-47.303275,1448.2052)"
       id="g4660"
       style="fill:#1878e5;fill-opacity:1"
       clip-path="url(#clipPath4494)">
      <g
         id="g4662"
         style="fill:#1878e5;fill-opacity:1">
        <g
           id="g4668"
           style="fill:#1878e5;fill-opacity:1">
          <g
             id="g4670"
             style="fill:#1878e5;fill-opacity:1">
            <path
               d="m 422.474,418.335 c -0.36,-0.144 -0.756,-0.612 -1.188,-1.404 l 0,0 c -0.576,-1.008 -1.188,-2.34 -1.836,-3.996 l 0,0 c -0.648,-1.656 -1.134,-3.33 -1.458,-5.022 l 0,0 c -0.324,-1.692 -0.396,-3.294 -0.216,-4.806 l 0,0 c 0.18,-1.512 0.81,-2.628 1.89,-3.348 l 0,0 c 0.72,-0.504 1.422,-0.522 2.106,-0.054 l 0,0 c 0.684,0.468 1.26,1.116 1.728,1.944 l 0,0 c 0.468,0.828 0.846,1.692 1.134,2.592 l 0,0 c 0.288,0.9 0.432,1.566 0.432,1.998 l 0,0 c 0,0.36 -0.108,0.522 -0.324,0.486 l 0,0 c -0.216,-0.036 -0.36,-0.234 -0.432,-0.594 l 0,0 c 0,-0.216 -0.09,-0.54 -0.27,-0.972 l 0,0 c -0.18,-0.432 -0.414,-0.81 -0.702,-1.134 l 0,0 c -0.288,-0.324 -0.612,-0.576 -0.972,-0.756 l 0,0 c -0.36,-0.18 -0.756,-0.126 -1.188,0.162 l 0,0 c -0.936,0.576 -1.44,1.476 -1.512,2.7 l 0,0 c -0.072,1.224 0.036,2.52 0.324,3.888 l 0,0 c 0.288,1.368 0.684,2.7 1.188,3.996 l 0,0 c 0.504,1.296 0.9,2.304 1.188,3.024 l 0,0 c 0.378,0.882 0.453,1.323 0.225,1.323 l 0,0 c -0.033,0 -0.072,-0.009 -0.117,-0.027"
               style="fill:#1878e5;stroke:none;fill-opacity:1"
               id="path4678"
               inkscape:connector-curvature="0" />
          </g>
        </g>
      </g>
    </g>
    <g
       transform="matrix(1.25,0,0,-1.25,-47.303275,1448.2052)"
       id="g4680"
       style="fill:#1878e5;fill-opacity:1"
       clip-path="url(#clipPath4490)">
      <g
         id="g4682"
         style="fill:#1878e5;fill-opacity:1">
        <g
           id="g4688"
           style="fill:#1878e5;fill-opacity:1">
          <g
             id="g4690"
             style="fill:#1878e5;fill-opacity:1">
            <path
               d="m 438.974,386.086 c -0.36,-0.144 -0.756,-0.612 -1.188,-1.404 l 0,0 c -0.576,-1.008 -1.188,-2.34 -1.836,-3.996 l 0,0 c -0.648,-1.656 -1.134,-3.33 -1.458,-5.022 l 0,0 c -0.324,-1.692 -0.396,-3.294 -0.216,-4.806 l 0,0 c 0.18,-1.512 0.81,-2.628 1.89,-3.348 l 0,0 c 0.72,-0.504 1.422,-0.522 2.106,-0.054 l 0,0 c 0.684,0.468 1.26,1.116 1.728,1.944 l 0,0 c 0.468,0.828 0.846,1.692 1.134,2.592 l 0,0 c 0.288,0.9 0.432,1.566 0.432,1.998 l 0,0 c 0,0.36 -0.108,0.522 -0.324,0.486 l 0,0 c -0.216,-0.036 -0.36,-0.234 -0.432,-0.594 l 0,0 c 0,-0.216 -0.09,-0.54 -0.27,-0.972 l 0,0 c -0.18,-0.432 -0.414,-0.81 -0.702,-1.134 l 0,0 c -0.288,-0.324 -0.612,-0.576 -0.972,-0.756 l 0,0 c -0.36,-0.18 -0.756,-0.126 -1.188,0.162 l 0,0 c -0.936,0.576 -1.44,1.476 -1.512,2.7 l 0,0 c -0.072,1.224 0.036,2.52 0.324,3.888 l 0,0 c 0.288,1.368 0.684,2.7 1.188,3.996 l 0,0 c 0.504,1.296 0.9,2.304 1.188,3.024 l 0,0 c 0.378,0.882 0.453,1.323 0.225,1.323 l 0,0 c -0.033,0 -0.072,-0.009 -0.117,-0.027"
               style="fill:#1878e5;stroke:none;fill-opacity:1"
               id="path4698"
               inkscape:connector-curvature="0" />
          </g>
        </g>
      </g>
    </g>
    <g
       transform="matrix(1.25,0,0,-1.25,-47.303275,1448.2052)"
       id="g4700"
       style="fill:#1878e5;fill-opacity:1"
       clip-path="url(#clipPath4486)">
      <g
         id="g4702"
         style="fill:#1878e5;fill-opacity:1">
        <g
           id="g4708"
           style="fill:#1878e5;fill-opacity:1">
          <g
             id="g4710"
             style="fill:#1878e5;fill-opacity:1">
            <path
               d="m 505.025,386.941 c -0.468,-0.252 -0.9,-0.576 -1.296,-0.972 l 0,0 c -0.396,-0.396 -0.774,-0.828 -1.134,-1.296 l 0,0 c -0.36,-0.468 -0.612,-0.882 -0.756,-1.242 l 0,0 c -0.072,-0.072 -0.144,-0.072 -0.216,0 l 0,0 c -0.072,0.072 -0.18,-0.072 -0.324,-0.432 l 0,0 c -0.36,-0.792 -0.684,-1.548 -0.972,-2.268 l 0,0 c -0.288,-0.72 -0.72,-1.44 -1.296,-2.16 l 0,0 c -0.504,-0.648 -1.242,-1.332 -2.214,-2.052 l 0,0 c -0.972,-0.72 -2.052,-1.422 -3.24,-2.106 l 0,0 c -1.188,-0.684 -2.376,-1.314 -3.564,-1.89 l 0,0 c -1.188,-0.576 -2.214,-1.044 -3.078,-1.404 l 0,0 c -2.52,-1.008 -4.896,-1.872 -7.128,-2.592 l 0,0 c -2.232,-0.72 -4.644,-1.476 -7.236,-2.268 l 0,0 c -0.432,-0.144 -0.576,-0.306 -0.432,-0.486 l 0,0 c 0.144,-0.18 0.504,-0.234 1.08,-0.162 l 0,0 c 2.016,0.216 4.104,0.45 6.264,0.702 l 0,0 c 2.16,0.252 4.248,0.63 6.264,1.134 l 0,0 0.972,0.324 c 0.864,0.36 1.89,0.828 3.078,1.404 l 0,0 c 1.188,0.576 2.376,1.188 3.564,1.836 l 0,0 c 1.188,0.648 2.286,1.332 3.294,2.052 l 0,0 c 1.008,0.72 1.764,1.44 2.268,2.16 l 0,0 c 0.504,0.72 0.9,1.494 1.188,2.322 l 0,0 c 0.288,0.828 0.576,1.638 0.864,2.43 l 0,0 c 0.792,-0.648 1.908,-1.224 3.348,-1.728 l 0,0 c 1.44,-0.504 2.556,-0.828 3.348,-0.972 l 0,0 c 0.216,0 0.432,0.162 0.648,0.486 l 0,0 c 0.216,0.324 0.414,0.702 0.594,1.134 l 0,0 c 0.18,0.432 0.342,0.846 0.486,1.242 l 0,0 c 0.144,0.396 0.216,0.702 0.216,0.918 l 0,0 c 0,0.216 -0.054,0.648 -0.162,1.296 l 0,0 c -0.108,0.648 -0.27,1.332 -0.486,2.052 l 0,0 c -0.216,0.72 -0.54,1.386 -0.972,1.998 l 0,0 c -0.432,0.612 -1.008,0.918 -1.728,0.918 l 0,0 c -0.36,0 -0.774,-0.126 -1.242,-0.378 m 0,-5.238 c -0.828,0.36 -1.494,0.72 -1.998,1.08 l 0,0 c 0.792,0.936 1.674,1.26 2.646,0.972 l 0,0 c 0.972,-0.288 1.458,-1.224 1.458,-2.808 l 0,0 c -0.576,0.144 -1.278,0.396 -2.106,0.756"
               style="fill:#1878e5;stroke:none;fill-opacity:1"
               id="path4718"
               inkscape:connector-curvature="0" />
          </g>
        </g>
      </g>
    </g>
    <g
       transform="matrix(1.25,0,0,-1.25,-47.303275,1448.2052)"
       id="g4720"
       style="fill:#1878e5;fill-opacity:1"
       clip-path="url(#clipPath4482)">
      <g
         id="g4722"
         style="fill:#1878e5;fill-opacity:1">
        <g
           id="g4728"
           style="fill:#1878e5;fill-opacity:1">
          <g
             id="g4730"
             style="fill:#1878e5;fill-opacity:1">
            <path
               d="m 283.962,513.711 c -0.144,-0.432 -0.342,-0.99 -0.594,-1.674 l 0,0 c -0.252,-0.684 -0.378,-1.206 -0.378,-1.566 l 0,0 c 0,-0.144 0.36,-0.576 1.08,-1.296 l 0,0 c 0.72,-0.72 1.53,-1.674 2.43,-2.862 l 0,0 c 0.9,-1.188 1.728,-2.574 2.484,-4.158 l 0,0 c 0.756,-1.584 1.134,-3.276 1.134,-5.076 l 0,0 c 0,-1.296 -0.27,-2.772 -0.81,-4.428 l 0,0 c -0.54,-1.656 -1.026,-3.33 -1.458,-5.022 l 0,0 c -0.432,-1.692 -0.594,-3.276 -0.486,-4.752 l 0,0 c 0.108,-1.476 0.81,-2.682 2.106,-3.618 l 0,0 c 0.72,-0.504 1.422,-0.522 2.106,-0.054 l 0,0 c 0.684,0.468 1.26,1.116 1.728,1.944 l 0,0 c 0.468,0.828 0.846,1.692 1.134,2.592 l 0,0 c 0.288,0.9 0.432,1.566 0.432,1.998 l 0,0 c 0,0.36 -0.108,0.522 -0.324,0.486 l 0,0 c -0.216,-0.036 -0.36,-0.234 -0.432,-0.594 l 0,0 c 0,-0.216 -0.09,-0.54 -0.27,-0.972 l 0,0 c -0.18,-0.432 -0.414,-0.81 -0.702,-1.134 l 0,0 c -0.288,-0.324 -0.612,-0.576 -0.972,-0.756 l 0,0 c -0.36,-0.18 -0.756,-0.126 -1.188,0.162 l 0,0 c -0.792,0.432 -1.242,1.152 -1.35,2.16 l 0,0 c -0.108,1.008 -0.072,2.088 0.108,3.24 l 0,0 c 0.18,1.152 0.45,2.304 0.81,3.456 l 0,0 c 0.36,1.152 0.612,2.088 0.756,2.808 l 0,0 c 0.792,3.384 0.72,6.66 -0.216,9.828 l 0,0 c -0.936,3.168 -3.132,6.264 -6.588,9.288 l 0,0 c -0.144,0.144 -0.261,0.216 -0.351,0.216 l 0,0 c -0.09,0 -0.153,-0.072 -0.189,-0.216"
               style="fill:#1878e5;stroke:none;fill-opacity:1"
               id="path4738"
               inkscape:connector-curvature="0" />
          </g>
        </g>
      </g>
    </g>
    <g
       transform="matrix(1.25,0,0,-1.25,-47.303275,1448.2052)"
       id="g4740"
       style="fill:#1878e5;fill-opacity:1"
       clip-path="url(#clipPath4478)">
      <g
         id="g4742"
         style="fill:#1878e5;fill-opacity:1">
        <g
           id="g4748"
           style="fill:#1878e5;fill-opacity:1">
          <g
             id="g4750"
             style="fill:#1878e5;fill-opacity:1">
            <path
               d="m 348.047,478.23 c -0.72,-1.368 -1.296,-2.88 -1.728,-4.536 l 0,0 c -0.432,-1.656 -0.756,-3.168 -0.972,-4.536 l 0,0 c -0.216,-1.368 -0.432,-2.052 -0.648,-2.052 l 0,0 c 0,0 -0.144,0.576 -0.432,1.728 l 0,0 c -0.288,1.152 -0.738,2.43 -1.35,3.834 l 0,0 c -0.612,1.404 -1.368,2.7 -2.268,3.888 l 0,0 c -0.9,1.188 -1.998,1.782 -3.294,1.782 l 0,0 c -0.216,0 -0.486,-0.162 -0.81,-0.486 l 0,0 c -0.324,-0.324 -0.63,-0.702 -0.918,-1.134 l 0,0 c -0.288,-0.432 -0.54,-0.864 -0.756,-1.296 l 0,0 c -0.216,-0.432 -0.324,-0.756 -0.324,-0.972 l 0,0 c 0,-0.216 0.126,-0.486 0.378,-0.81 l 0,0 c 0.252,-0.324 0.576,-0.648 0.972,-0.972 l 0,0 c 0.396,-0.324 0.774,-0.612 1.134,-0.864 l 0,0 c 0.36,-0.252 0.648,-0.378 0.864,-0.378 l 0,0 c 0.216,0 0.45,0.108 0.702,0.324 l 0,0 c 0.252,0.216 0.486,0.324 0.702,0.324 l 0,0 c 0.576,0 1.134,-0.504 1.674,-1.512 l 0,0 c 0.54,-1.008 1.026,-2.16 1.458,-3.456 l 0,0 c 0.432,-1.296 0.774,-2.538 1.026,-3.726 l 0,0 c 0.252,-1.188 0.414,-1.926 0.486,-2.214 l 0,0 c -0.576,-0.216 -1.062,-0.63 -1.458,-1.242 l 0,0 c -0.396,-0.612 -0.702,-1.242 -0.918,-1.89 l 0,0 c -0.216,-0.648 -0.324,-1.224 -0.324,-1.728 l 0,0 c 0,-0.504 0.072,-0.756 0.216,-0.756 l 0,0 c 0.216,-0.072 0.522,0.162 0.918,0.702 l 0,0 c 0.396,0.54 0.954,0.81 1.674,0.81 l 0,0 c 0.216,0 0.486,-0.108 0.81,-0.324 l 0,0 c 0.324,-0.216 0.522,-0.432 0.594,-0.648 l 0,0 c -2.376,-0.72 -4.194,-1.782 -5.454,-3.186 l 0,0 c -1.26,-1.404 -1.89,-3.654 -1.89,-6.75 l 0,0 c 0,-1.296 0.054,-2.394 0.162,-3.294 l 0,0 c 0.108,-0.9 0.27,-1.764 0.486,-2.592 l 0,0 c 0.216,-0.828 0.45,-1.674 0.702,-2.538 l 0,0 c 0.252,-0.864 0.486,-1.944 0.702,-3.24 l 0,0 c 0.288,-1.44 0.54,-2.88 0.756,-4.32 l 0,0 c 0.216,-1.44 0.396,-2.88 0.54,-4.32 l 0,0 c 0,-0.36 0.09,-0.522 0.27,-0.486 l 0,0 c 0.18,0.036 0.306,0.162 0.378,0.378 l 0,0 c 0.288,1.656 0.27,3.654 -0.054,5.994 l 0,0 c -0.324,2.34 -0.702,4.626 -1.134,6.858 l 0,0 c -0.36,1.8 -0.738,3.24 -1.134,4.32 l 0,0 c -0.396,1.08 -0.594,2.484 -0.594,4.212 l 0,0 c 0,1.368 0.45,2.448 1.35,3.24 l 0,0 c 0.9,0.792 1.962,1.35 3.186,1.674 l 0,0 c 1.224,0.324 2.502,0.504 3.834,0.54 l 0,0 c 1.332,0.036 2.394,0.054 3.186,0.054 l 0,0 c 0.072,0 0.18,0.162 0.324,0.486 l 0,0 c 0.144,0.324 0.288,0.702 0.432,1.134 l 0,0 c 0.144,0.432 0.234,0.828 0.27,1.188 l 0,0 c 0.036,0.36 0.018,0.576 -0.054,0.648 l 0,0 c -0.648,0.432 -1.278,0.954 -1.89,1.566 l 0,0 -1.728,1.728 c -0.54,0.54 -1.098,1.008 -1.674,1.404 l 0,0 c -0.576,0.396 -1.116,0.594 -1.62,0.594 l 0,0 c 0.504,0.576 0.9,1.656 1.188,3.24 l 0,0 c 0.288,1.584 0.594,3.204 0.918,4.86 l 0,0 c 0.324,1.656 0.702,3.132 1.134,4.428 l 0,0 c 0.432,1.296 1.044,1.944 1.836,1.944 l 0,0 c 0.648,0 1.206,-0.306 1.674,-0.918 l 0,0 c 0.468,-0.612 0.81,-0.918 1.026,-0.918 l 0,0 c 0.216,0 0.396,0.144 0.54,0.432 l 0,0 c 0.144,0.288 0.288,0.63 0.432,1.026 l 0,0 c 0.144,0.396 0.252,0.774 0.324,1.134 l 0,0 c 0.072,0.36 0.108,0.612 0.108,0.756 l 0,0 c 0,0.648 -0.378,1.296 -1.134,1.944 l 0,0 c -0.756,0.648 -1.422,0.972 -1.998,0.972 l 0,0 c -1.152,0 -2.088,-0.684 -2.808,-2.052"
               style="fill:#1878e5;stroke:none;fill-opacity:1"
               id="path4758"
               inkscape:connector-curvature="0" />
          </g>
        </g>
      </g>
    </g>
    <g
       transform="matrix(1.25,0,0,-1.25,-47.303275,1448.2052)"
       id="g4760"
       style="fill:#1878e5;fill-opacity:1"
       clip-path="url(#clipPath4474)">
      <g
         id="g4762"
         style="fill:#1878e5;fill-opacity:1">
        <g
           id="g4768"
           style="fill:#1878e5;fill-opacity:1">
          <g
             id="g4770"
             style="fill:#1878e5;fill-opacity:1">
            <path
               d="m 140.223,426.208 c -0.72,-1.368 -1.296,-2.88 -1.728,-4.536 l 0,0 c -0.432,-1.656 -0.756,-3.15 -0.972,-4.482 l 0,0 c -0.216,-1.332 -0.432,-1.998 -0.648,-1.998 l 0,0 c 0,0 -0.144,0.576 -0.432,1.728 l 0,0 c -0.288,1.152 -0.738,2.43 -1.35,3.834 l 0,0 c -0.612,1.404 -1.368,2.682 -2.268,3.834 l 0,0 c -0.9,1.152 -1.998,1.728 -3.294,1.728 l 0,0 c -0.216,0 -0.486,-0.162 -0.81,-0.486 l 0,0 c -0.324,-0.324 -0.648,-0.702 -0.972,-1.134 l 0,0 c -0.324,-0.432 -0.594,-0.864 -0.81,-1.296 l 0,0 c -0.216,-0.432 -0.324,-0.72 -0.324,-0.864 l 0,0 c 0,-0.216 0.144,-0.504 0.432,-0.864 l 0,0 c 0.288,-0.36 0.612,-0.702 0.972,-1.026 l 0,0 c 0.36,-0.324 0.738,-0.594 1.134,-0.81 l 0,0 c 0.396,-0.216 0.702,-0.324 0.918,-0.324 l 0,0 c 0.216,0 0.45,0.108 0.702,0.324 l 0,0 c 0.252,0.216 0.486,0.324 0.702,0.324 l 0,0 c 0.432,0 0.882,-0.378 1.35,-1.134 l 0,0 c 0.468,-0.756 0.9,-1.656 1.296,-2.7 l 0,0 c 0.396,-1.044 0.756,-2.16 1.08,-3.348 l 0,0 c 0.324,-1.188 0.558,-2.214 0.702,-3.078 l 0,0 c 0,-0.144 0.09,-0.378 0.27,-0.702 l 0,0 c 0.18,-0.324 0.45,-0.27 0.81,0.162 l 0,0 c 0.504,0.576 0.9,1.656 1.188,3.24 l 0,0 c 0.288,1.584 0.594,3.222 0.918,4.914 l 0,0 c 0.324,1.692 0.702,3.186 1.134,4.482 l 0,0 c 0.432,1.296 1.044,1.944 1.836,1.944 l 0,0 c 0.648,0 1.206,-0.324 1.674,-0.972 l 0,0 c 0.468,-0.648 0.81,-0.972 1.026,-0.972 l 0,0 c 0.216,0 0.396,0.144 0.54,0.432 l 0,0 c 0.144,0.288 0.288,0.63 0.432,1.026 l 0,0 c 0.144,0.396 0.252,0.792 0.324,1.188 l 0,0 c 0.072,0.396 0.108,0.666 0.108,0.81 l 0,0 c 0,0.648 -0.378,1.278 -1.134,1.89 l 0,0 c -0.756,0.612 -1.422,0.918 -1.998,0.918 l 0,0 c -1.152,0 -2.088,-0.684 -2.808,-2.052"
               style="fill:#1878e5;stroke:none;fill-opacity:1"
               id="path4778"
               inkscape:connector-curvature="0" />
          </g>
        </g>
      </g>
    </g>
    <g
       transform="matrix(1.25,0,0,-1.25,-47.303275,1448.2052)"
       id="g4780"
       style="fill:#1878e5;fill-opacity:1"
       clip-path="url(#clipPath4470)">
      <g
         id="g4782"
         style="fill:#1878e5;fill-opacity:1">
        <g
           id="g4788"
           style="fill:#1878e5;fill-opacity:1">
          <g
             id="g4790"
             style="fill:#1878e5;fill-opacity:1">
            <path
               d="m 129.639,469.635 c -1.08,-0.036 -1.98,-0.234 -2.7,-0.594 l 0,0 c -0.72,-0.36 -1.386,-0.954 -1.998,-1.782 l 0,0 c -0.612,-0.828 -1.386,-1.998 -2.322,-3.51 l 0,0 c -0.864,-1.296 -1.332,-2.142 -1.404,-2.538 l 0,0 c -0.072,-0.396 0.504,-0.522 1.728,-0.378 l 0,0 c 1.152,0.144 2.628,0.234 4.428,0.27 l 0,0 c 1.8,0.036 3.564,0.036 5.292,0 l 0,0 c 1.728,-0.036 3.204,-0.162 4.428,-0.378 l 0,0 c 1.224,-0.216 1.836,-0.54 1.836,-0.972 l 0,0 c 0,-0.216 -0.414,-0.558 -1.242,-1.026 l 0,0 c -0.828,-0.468 -1.836,-1.026 -3.024,-1.674 l 0,0 c -1.188,-0.648 -2.484,-1.332 -3.888,-2.052 l 0,0 c -1.404,-0.72 -2.736,-1.404 -3.996,-2.052 l 0,0 c -1.26,-0.648 -2.322,-1.188 -3.186,-1.62 l 0,0 c -0.864,-0.432 -1.368,-0.684 -1.512,-0.756 l 0,0 c -0.288,-0.216 -0.378,-0.504 -0.27,-0.864 l 0,0 c 0.108,-0.36 0.45,-0.468 1.026,-0.324 l 0,0 c 0.936,0.216 2.124,0.522 3.564,0.918 l 0,0 c 1.44,0.396 2.88,0.81 4.32,1.242 l 0,0 c 1.44,0.432 2.772,0.882 3.996,1.35 l 0,0 c 1.224,0.468 2.16,0.918 2.808,1.35 l 0,0 c 0.72,0.432 1.602,1.206 2.646,2.322 l 0,0 c 1.044,1.116 2.052,2.304 3.024,3.564 l 0,0 c 0.972,1.26 1.818,2.484 2.538,3.672 l 0,0 c 0.72,1.188 1.08,2.07 1.08,2.646 l 0,0 c 0,0.72 -0.54,1.296 -1.62,1.728 l 0,0 c -1.08,0.432 -2.34,0.756 -3.78,0.972 l 0,0 c -1.44,0.216 -2.862,0.36 -4.266,0.432 l 0,0 c -1.404,0.072 -2.394,0.108 -2.97,0.108 l 0,0 c -1.944,0 -3.456,-0.018 -4.536,-0.054"
               style="fill:#1878e5;stroke:none;fill-opacity:1"
               id="path4798"
               inkscape:connector-curvature="0" />
          </g>
        </g>
      </g>
    </g>
    <g
       transform="matrix(1.25,0,0,-1.25,-47.303275,1448.2052)"
       id="g4800"
       style="fill:#1878e5;fill-opacity:1"
       clip-path="url(#clipPath4466)">
      <g
         id="g4802"
         style="fill:#1878e5;fill-opacity:1">
        <g
           id="g4808"
           style="fill:#1878e5;fill-opacity:1">
          <g
             id="g4810"
             style="fill:#1878e5;fill-opacity:1">
            <path
               d="m 96.689,463.329 c -0.324,-0.144 -0.774,-0.54 -1.35,-1.188 l 0,0 c -0.576,-0.648 -1.116,-1.44 -1.62,-2.376 l 0,0 c -0.936,-1.728 -1.944,-3.816 -3.024,-6.264 l 0,0 c -1.08,-2.448 -2.088,-5.058 -3.024,-7.83 l 0,0 c -0.936,-2.772 -1.692,-5.616 -2.268,-8.532 l 0,0 c -0.576,-2.916 -0.864,-5.688 -0.864,-8.316 l 0,0 c 0,-2.628 0.396,-5.022 1.188,-7.182 l 0,0 c 0.792,-2.16 2.124,-3.888 3.996,-5.184 l 0,0 c 1.224,-0.864 2.412,-1.152 3.564,-0.864 l 0,0 c 1.152,0.288 2.232,0.918 3.24,1.89 l 0,0 c 1.008,0.972 1.944,2.178 2.808,3.618 l 0,0 c 0.864,1.44 1.602,2.898 2.214,4.374 l 0,0 c 0.612,1.476 1.098,2.862 1.458,4.158 l 0,0 c 0.36,1.296 0.504,2.304 0.432,3.024 l 0,0 c -0.072,0.864 -0.378,1.26 -0.918,1.188 l 0,0 c -0.54,-0.072 -0.882,-0.504 -1.026,-1.296 l 0,0 c -0.144,-0.648 -0.432,-1.494 -0.864,-2.538 l 0,0 c -0.432,-1.044 -1.008,-1.998 -1.728,-2.862 l 0,0 c -0.72,-0.864 -1.53,-1.494 -2.43,-1.89 l 0,0 c -0.9,-0.396 -1.89,-0.27 -2.97,0.378 l 0,0 c -1.584,0.936 -2.664,2.286 -3.24,4.05 l 0,0 c -0.576,1.764 -0.81,3.726 -0.702,5.886 l 0,0 c 0.108,2.16 0.432,4.428 0.972,6.804 l 0,0 c 0.54,2.376 1.188,4.662 1.944,6.858 l 0,0 c 0.756,2.196 1.512,4.248 2.268,6.156 l 0,0 c 0.756,1.908 1.35,3.474 1.782,4.698 l 0,0 c 0.504,1.296 0.738,2.196 0.702,2.7 l 0,0 c -0.028,0.392 -0.143,0.588 -0.346,0.588 l 0,0 c -0.057,0 -0.122,-0.016 -0.194,-0.048"
               style="fill:#1878e5;stroke:none;fill-opacity:1"
               id="path4818"
               inkscape:connector-curvature="0" />
          </g>
        </g>
      </g>
    </g>
    <g
       transform="matrix(1.25,0,0,-1.25,-47.303275,1448.2052)"
       id="g4820"
       style="fill:#1878e5;fill-opacity:1"
       clip-path="url(#clipPath4462)">
      <g
         id="g4822"
         style="fill:#1878e5;fill-opacity:1">
        <g
           id="g4828"
           style="fill:#1878e5;fill-opacity:1">
          <g
             id="g4830"
             style="fill:#1878e5;fill-opacity:1">
            <path
               d="m 197.222,503.055 c -0.72,-1.368 -1.296,-2.88 -1.728,-4.536 l 0,0 c -0.432,-1.656 -0.756,-3.168 -0.972,-4.536 l 0,0 c -0.216,-1.368 -0.432,-2.052 -0.648,-2.052 l 0,0 c 0,0 -0.144,0.576 -0.432,1.728 l 0,0 c -0.288,1.152 -0.738,2.43 -1.35,3.834 l 0,0 c -0.612,1.404 -1.368,2.7 -2.268,3.888 l 0,0 c -0.9,1.188 -1.998,1.782 -3.294,1.782 l 0,0 c -0.216,0 -0.486,-0.162 -0.81,-0.486 l 0,0 c -0.324,-0.324 -0.63,-0.702 -0.918,-1.134 l 0,0 c -0.288,-0.432 -0.54,-0.864 -0.756,-1.296 l 0,0 c -0.216,-0.432 -0.324,-0.756 -0.324,-0.972 l 0,0 c 0,-0.216 0.126,-0.486 0.378,-0.81 l 0,0 c 0.252,-0.324 0.576,-0.648 0.972,-0.972 l 0,0 c 0.396,-0.324 0.774,-0.612 1.134,-0.864 l 0,0 c 0.36,-0.252 0.648,-0.378 0.864,-0.378 l 0,0 c 0.216,0 0.45,0.108 0.702,0.324 l 0,0 c 0.252,0.216 0.486,0.324 0.702,0.324 l 0,0 c 0.576,0 1.134,-0.504 1.674,-1.512 l 0,0 c 0.54,-1.008 1.026,-2.16 1.458,-3.456 l 0,0 c 0.432,-1.296 0.774,-2.538 1.026,-3.726 l 0,0 c 0.252,-1.188 0.414,-1.926 0.486,-2.214 l 0,0 c -0.576,-0.216 -1.062,-0.63 -1.458,-1.242 l 0,0 c -0.396,-0.612 -0.702,-1.242 -0.918,-1.89 l 0,0 c -0.216,-0.648 -0.324,-1.224 -0.324,-1.728 l 0,0 c 0,-0.504 0.072,-0.756 0.216,-0.756 l 0,0 c 0.216,-0.072 0.522,0.162 0.918,0.702 l 0,0 c 0.396,0.54 0.954,0.81 1.674,0.81 l 0,0 c 0.216,0 0.486,-0.108 0.81,-0.324 l 0,0 c 0.324,-0.216 0.522,-0.432 0.594,-0.648 l 0,0 c -2.376,-0.72 -4.194,-1.782 -5.454,-3.186 l 0,0 c -1.26,-1.404 -1.89,-3.654 -1.89,-6.75 l 0,0 c 0,-1.296 0.054,-2.394 0.162,-3.294 l 0,0 c 0.108,-0.9 0.27,-1.764 0.486,-2.592 l 0,0 c 0.216,-0.828 0.45,-1.674 0.702,-2.538 l 0,0 c 0.252,-0.864 0.486,-1.944 0.702,-3.24 l 0,0 c 0.288,-1.44 0.54,-2.88 0.756,-4.32 l 0,0 c 0.216,-1.44 0.396,-2.88 0.54,-4.32 l 0,0 c 0,-0.36 0.09,-0.522 0.27,-0.486 l 0,0 c 0.18,0.036 0.306,0.162 0.378,0.378 l 0,0 c 0.288,1.656 0.27,3.654 -0.054,5.994 l 0,0 c -0.324,2.34 -0.702,4.626 -1.134,6.858 l 0,0 c -0.36,1.8 -0.738,3.24 -1.134,4.32 l 0,0 c -0.396,1.08 -0.594,2.484 -0.594,4.212 l 0,0 c 0,1.368 0.45,2.448 1.35,3.24 l 0,0 c 0.9,0.792 1.962,1.35 3.186,1.674 l 0,0 c 1.224,0.324 2.502,0.504 3.834,0.54 l 0,0 c 1.332,0.036 2.394,0.054 3.186,0.054 l 0,0 c 0.072,0 0.18,0.162 0.324,0.486 l 0,0 c 0.144,0.324 0.288,0.702 0.432,1.134 l 0,0 c 0.144,0.432 0.234,0.828 0.27,1.188 l 0,0 c 0.036,0.36 0.018,0.576 -0.054,0.648 l 0,0 c -0.648,0.432 -1.278,0.954 -1.89,1.566 l 0,0 c -0.612,0.612 -1.188,1.188 -1.728,1.728 l 0,0 c -0.54,0.54 -1.098,1.008 -1.674,1.404 l 0,0 c -0.576,0.396 -1.116,0.594 -1.62,0.594 l 0,0 c 0.504,0.576 0.9,1.656 1.188,3.24 l 0,0 c 0.288,1.584 0.594,3.204 0.918,4.86 l 0,0 c 0.324,1.656 0.702,3.132 1.134,4.428 l 0,0 c 0.432,1.296 1.044,1.944 1.836,1.944 l 0,0 c 0.648,0 1.206,-0.306 1.674,-0.918 l 0,0 c 0.468,-0.612 0.81,-0.918 1.026,-0.918 l 0,0 c 0.216,0 0.396,0.144 0.54,0.432 l 0,0 c 0.144,0.288 0.288,0.63 0.432,1.026 l 0,0 c 0.144,0.396 0.252,0.774 0.324,1.134 l 0,0 c 0.072,0.36 0.108,0.612 0.108,0.756 l 0,0 c 0,0.648 -0.378,1.296 -1.134,1.944 l 0,0 c -0.756,0.648 -1.422,0.972 -1.998,0.972 l 0,0 c -1.152,0 -2.088,-0.684 -2.808,-2.052"
               style="fill:#1878e5;stroke:none;fill-opacity:1"
               id="path4838"
               inkscape:connector-curvature="0" />
          </g>
        </g>
      </g>
    </g>
    <g
       transform="matrix(1.25,0,0,-1.25,-47.303275,1448.2052)"
       id="g4840"
       style="fill:#1878e5;fill-opacity:1"
       clip-path="url(#clipPath4458)">
      <g
         id="g4842"
         style="fill:#1878e5;fill-opacity:1">
        <g
           id="g4848"
           style="fill:#1878e5;fill-opacity:1">
          <g
             id="g4850"
             style="fill:#1878e5;fill-opacity:1">
            <path
               d="m 402.452,375.786 c -7.704,-2.664 -15.408,-5.688 -23.112,-9.072 l 0,0 c -0.288,-0.144 -0.576,-0.486 -0.864,-1.026 l 0,0 c -0.288,-0.54 -0.792,-1.458 -1.512,-2.754 l 0,0 c -0.144,-0.144 -0.108,-0.216 0.108,-0.216 l 0,0 0.108,-0.108 c 7.632,3.528 15.336,6.552 23.112,9.072 l 0,0 c 0.36,0.144 0.594,0.324 0.702,0.54 l 0,0 c 0.108,0.216 0.378,0.72 0.81,1.512 l 0,0 c 0.723,1.381 0.966,2.071 0.729,2.071 l 0,0 c -0.023,0 -0.05,-0.006 -0.081,-0.019"
               style="fill:#1878e5;stroke:none;fill-opacity:1"
               id="path4858"
               inkscape:connector-curvature="0" />
          </g>
        </g>
      </g>
    </g>
    <g
       transform="matrix(1.25,0,0,-1.25,-47.303275,1448.2052)"
       id="g4860"
       style="fill:#1878e5;fill-opacity:1"
       clip-path="url(#clipPath4454)">
      <g
         id="g4862"
         style="fill:#1878e5;fill-opacity:1">
        <g
           id="g4868"
           style="fill:#1878e5;fill-opacity:1">
          <g
             id="g4870"
             style="fill:#1878e5;fill-opacity:1">
            <path
               d="m 507.176,502.123 c -16.488,-5.616 -32.706,-11.538 -48.654,-17.766 l 0,0 C 442.574,478.129 426.68,471.415 410.84,464.215 l 0,0 c -0.288,-0.144 -0.576,-0.486 -0.864,-1.026 l 0,0 c -0.288,-0.54 -0.792,-1.458 -1.512,-2.754 l 0,0 c -0.144,-0.144 -0.108,-0.216 0.108,-0.216 l 0,0 0.108,-0.108 c 15.84,7.2 31.734,13.932 47.682,20.196 l 0,0 c 15.948,6.264 32.166,12.204 48.654,17.82 l 0,0 c 0.36,0.144 0.594,0.324 0.702,0.54 l 0,0 c 0.108,0.216 0.378,0.72 0.81,1.512 l 0,0 c 0.786,1.309 1.036,1.963 0.75,1.963 l 0,0 c -0.029,0 -0.063,-0.006 -0.102,-0.019"
               style="fill:#1878e5;stroke:none;fill-opacity:1"
               id="path4878"
               inkscape:connector-curvature="0" />
          </g>
        </g>
      </g>
    </g>
    <g
       transform="matrix(1.25,0,0,-1.25,-47.303275,1448.2052)"
       id="g4880"
       style="fill:#1878e5;fill-opacity:1"
       clip-path="url(#clipPath4450)">
      <g
         id="g4882"
         style="fill:#1878e5;fill-opacity:1">
        <g
           id="g4888"
           style="fill:#1878e5;fill-opacity:1">
          <g
             id="g4890"
             style="fill:#1878e5;fill-opacity:1">
            <path
               d="m 498.713,467.784 c -0.864,-0.288 -1.692,-0.81 -2.484,-1.566 l 0,0 c -0.792,-0.756 -1.44,-1.62 -1.944,-2.592 l 0,0 c -0.504,-0.972 -0.756,-1.854 -0.756,-2.646 l 0,0 c 0,-0.504 0.162,-0.99 0.486,-1.458 l 0,0 c 0.324,-0.468 0.738,-0.882 1.242,-1.242 l 0,0 c 0.504,-0.36 1.008,-0.702 1.512,-1.026 l 0,0 c 0.504,-0.324 0.936,-0.63 1.296,-0.918 l 0,0 c -1.656,-1.944 -3.294,-3.69 -4.914,-5.238 l 0,0 c -1.62,-1.548 -3.276,-2.988 -4.968,-4.32 l 0,0 c -1.692,-1.332 -3.42,-2.646 -5.184,-3.942 l 0,0 c -1.764,-1.296 -3.654,-2.664 -5.67,-4.104 l 0,0 c -0.36,-0.216 -0.558,-0.45 -0.594,-0.702 l 0,0 c -0.036,-0.252 0.234,-0.27 0.81,-0.054 l 0,0 c 4.32,1.728 8.442,4.14 12.366,7.236 l 0,0 c 3.924,3.096 7.218,6.516 9.882,10.26 l 0,0 c 0.432,-0.288 0.864,-0.558 1.296,-0.81 l 0,0 c 0.432,-0.252 0.756,-0.378 0.972,-0.378 l 0,0 c 0.288,0 0.594,0.36 0.918,1.08 l 0,0 c 0.324,0.72 0.486,1.188 0.486,1.404 l 0,0 c 0,0.36 -0.234,0.684 -0.702,0.972 l 0,0 c -0.468,0.288 -0.882,0.54 -1.242,0.756 l 0,0 c 0.288,0.504 0.54,1.17 0.756,1.998 l 0,0 c 0.216,0.828 0.36,1.674 0.432,2.538 l 0,0 c 0.072,0.864 0,1.692 -0.216,2.484 l 0,0 c -0.216,0.792 -0.648,1.404 -1.296,1.836 l 0,0 c -0.528,0.384 -1.072,0.576 -1.632,0.576 l 0,0 c -0.28,0 -0.564,-0.048 -0.852,-0.144 m -0.972,-6.804 c -0.648,0.432 -1.188,1.044 -1.62,1.836 l 0,0 c 0,0.216 0.108,0.45 0.324,0.702 l 0,0 c 0.216,0.252 0.486,0.45 0.81,0.594 l 0,0 c 0.324,0.144 0.684,0.198 1.08,0.162 l 0,0 c 0.396,-0.036 0.738,-0.234 1.026,-0.594 l 0,0 c 0.432,-0.576 0.648,-1.224 0.648,-1.944 l 0,0 c 0,-0.72 -0.072,-1.404 -0.216,-2.052 l 0,0 c -0.72,0.432 -1.404,0.864 -2.052,1.296"
               style="fill:#1878e5;stroke:none;fill-opacity:1"
               id="path4898"
               inkscape:connector-curvature="0" />
          </g>
        </g>
      </g>
    </g>
  </g>
</svg>
