<svg viewBox="0 0 1260 720" xmlns="http://www.w3.org/2000/svg" font-family="'Space Grotesk', 'IBM Plex Sans', 'Segoe UI', system-ui, sans-serif">
      <defs>
        <!-- Arrow markers -->
        <marker id="arrow-flow" markerWidth="10" markerHeight="10" refX="9" refY="4" orient="auto">
          <path d="M0,0.5 L9,4 L0,7.5" fill="none" stroke="#64748b" stroke-width="1.5" stroke-linejoin="round"/>
        </marker>
        <marker id="arrow-blue" markerWidth="10" markerHeight="10" refX="9" refY="4" orient="auto">
          <path d="M0,0.5 L9,4 L0,7.5" fill="none" stroke="#60a5fa" stroke-width="1.5" stroke-linejoin="round"/>
        </marker>
        <marker id="arrow-purple" markerWidth="10" markerHeight="10" refX="9" refY="4" orient="auto">
          <path d="M0,0.5 L9,4 L0,7.5" fill="none" stroke="#a78bfa" stroke-width="1.5" stroke-linejoin="round"/>
        </marker>
        <marker id="arrow-amber" markerWidth="10" markerHeight="10" refX="9" refY="4" orient="auto">
          <path d="M0,0.5 L9,4 L0,7.5" fill="none" stroke="#fbbf24" stroke-width="1.5" stroke-linejoin="round"/>
        </marker>
        <marker id="arrow-teal" markerWidth="10" markerHeight="10" refX="9" refY="4" orient="auto">
          <path d="M0,0.5 L9,4 L0,7.5" fill="none" stroke="#34d399" stroke-width="1.5" stroke-linejoin="round"/>
        </marker>
        <marker id="arrow-rose" markerWidth="10" markerHeight="10" refX="9" refY="4" orient="auto">
          <path d="M0,0.5 L9,4 L0,7.5" fill="none" stroke="#fb7185" stroke-width="1.5" stroke-linejoin="round"/>
        </marker>

        <!-- Glows -->
        <filter id="glow-blue" x="-20%" y="-20%" width="140%" height="140%">
          <feGaussianBlur stdDeviation="6" result="blur"/>
          <feFlood flood-color="#3b82f6" flood-opacity="0.15" result="color"/>
          <feComposite in="color" in2="blur" operator="in" result="glow"/>
          <feMerge><feMergeNode in="glow"/><feMergeNode in="SourceGraphic"/></feMerge>
        </filter>
        <filter id="glow-purple" x="-20%" y="-20%" width="140%" height="140%">
          <feGaussianBlur stdDeviation="6" result="blur"/>
          <feFlood flood-color="#8b5cf6" flood-opacity="0.15" result="color"/>
          <feComposite in="color" in2="blur" operator="in" result="glow"/>
          <feMerge><feMergeNode in="glow"/><feMergeNode in="SourceGraphic"/></feMerge>
        </filter>
        <filter id="glow-teal" x="-20%" y="-20%" width="140%" height="140%">
          <feGaussianBlur stdDeviation="6" result="blur"/>
          <feFlood flood-color="#14b8a6" flood-opacity="0.12" result="color"/>
          <feComposite in="color" in2="blur" operator="in" result="glow"/>
          <feMerge><feMergeNode in="glow"/><feMergeNode in="SourceGraphic"/></feMerge>
        </filter>

        <!-- Dot pattern -->
        <pattern id="dots" x="0" y="0" width="20" height="20" patternUnits="userSpaceOnUse">
          <circle cx="10" cy="10" r="0.5" fill="rgba(255,255,255,0.06)"/>
        </pattern>
      </defs>

      <!-- ===== BACKGROUND ===== -->
      <rect width="1260" height="720" rx="16" fill="#0f172a"/>
      <rect width="1260" height="720" rx="16" fill="url(#dots)"/>
      <!-- Subtle gradient accents -->
      <circle cx="150" cy="100" r="250" fill="rgba(59,130,246,0.04)"/>
      <circle cx="630" cy="400" r="350" fill="rgba(139,92,246,0.03)"/>
      <circle cx="1100" cy="150" r="200" fill="rgba(52,211,153,0.03)"/>

      <!-- ===== TITLE ===== -->
      <text x="630" y="36" text-anchor="middle" font-size="15" font-weight="700" fill="#e2e8f0" letter-spacing="0.02em">striff.io Neurosymbolic Pipeline</text>
      <text x="630" y="54" text-anchor="middle" font-size="10" fill="#64748b" letter-spacing="0.04em">GNN / Symbolic Scoring Architecture</text>

      <!-- Thin horizontal rule under title -->
      <line x1="60" y1="66" x2="1200" y2="66" stroke="rgba(255,255,255,0.06)" stroke-width="1"/>


      <!-- ╔══════════════════════════════════════╗
           STAGE 1: INPUT
           ╚══════════════════════════════════════╝ -->
      <g transform="translate(52, 82)">
        <!-- Stage badge -->
        <rect width="130" height="22" rx="5" fill="#3b82f6" opacity="0.9"/>
        <text x="65" y="15" text-anchor="middle" font-size="9" font-weight="700" fill="#fff" letter-spacing="0.8">1 INPUT</text>

        <!-- PR Card -->
        <rect x="4" y="32" width="122" height="138" rx="10" fill="rgba(30,41,59,0.85)" stroke="rgba(59,130,246,0.25)" stroke-width="1.2" filter="url(#glow-blue)"/>
        <!-- Git branch icon -->
        <circle cx="32" cy="58" r="5" fill="none" stroke="#60a5fa" stroke-width="1.4"/>
        <circle cx="32" cy="72" r="5" fill="none" stroke="#60a5fa" stroke-width="1.4"/>
        <line x1="32" y1="63" x2="32" y2="67" stroke="#60a5fa" stroke-width="1.4"/>
        <path d="M37,60 Q44,60 44,67 L44,67" fill="none" stroke="#60a5fa" stroke-width="1.4"/>
        <text x="48" y="66" font-size="11" font-weight="600" fill="#e2e8f0">GitHub PR</text>
        <line x1="16" y1="82" x2="114" y2="82" stroke="rgba(255,255,255,0.06)" stroke-width="1"/>
        <text x="65" y="98" text-anchor="middle" font-size="9" fill="#94a3b8">changed files</text>
        <text x="65" y="112" text-anchor="middle" font-size="9" fill="#94a3b8">diff metadata</text>
        <text x="65" y="126" text-anchor="middle" font-size="9" fill="#94a3b8">repository graph</text>
        <!-- Small badge -->
        <rect x="28" y="140" width="74" height="16" rx="4" fill="rgba(59,130,246,0.12)" stroke="rgba(59,130,246,0.3)" stroke-width="0.8"/>
        <text x="65" y="151" text-anchor="middle" font-size="7.5" font-weight="600" fill="#60a5fa">WEBHOOK</text>
      </g>

      <!-- Arrow: INPUT -> GRAPH EXTRACTION -->
      <line x1="190" y1="190" x2="230" y2="190" stroke="#64748b" stroke-width="1.5" stroke-dasharray="5,4" marker-end="url(#arrow-flow)"/>


      <!-- ╔══════════════════════════════════════╗
           STAGE 2: GRAPH EXTRACTION
           ╚══════════════════════════════════════╝ -->
      <g transform="translate(238, 82)">
        <!-- Stage badge -->
        <rect width="198" height="22" rx="5" fill="#7c3aed" opacity="0.9"/>
        <text x="99" y="15" text-anchor="middle" font-size="9" font-weight="700" fill="#fff" letter-spacing="0.8">2 GRAPH EXTRACTION</text>

        <!-- Main card -->
        <rect x="4" y="32" width="190" height="138" rx="10" fill="rgba(30,41,59,0.85)" stroke="rgba(139,92,246,0.25)" stroke-width="1.2" filter="url(#glow-purple)"/>

        <!-- Parser label -->
        <text x="99" y="52" text-anchor="middle" font-size="10.5" font-weight="600" fill="#e2e8f0">striff-lib + Clarpse</text>
        <line x1="16" y1="60" x2="182" y2="60" stroke="rgba(255,255,255,0.06)" stroke-width="1"/>

        <!-- Mini graph illustration -->
        <g transform="translate(22, 68)">
          <!-- Nodes -->
          <rect x="0" y="0" width="34" height="16" rx="3" fill="rgba(139,92,246,0.2)" stroke="#8b5cf6" stroke-width="0.8"/>
          <text x="17" y="11" text-anchor="middle" font-size="6.5" font-weight="600" fill="#c4b5fd">Class</text>

          <rect x="52" y="0" width="34" height="16" rx="3" fill="rgba(139,92,246,0.2)" stroke="#8b5cf6" stroke-width="0.8"/>
          <text x="69" y="11" text-anchor="middle" font-size="6.5" font-weight="600" fill="#c4b5fd">Interface</text>

          <rect x="104" y="0" width="34" height="16" rx="3" fill="rgba(139,92,246,0.2)" stroke="#8b5cf6" stroke-width="0.8"/>
          <text x="121" y="11" text-anchor="middle" font-size="6.5" font-weight="600" fill="#c4b5fd">Enum</text>

          <!-- Edges with labels -->
          <line x1="34" y1="8" x2="52" y2="8" stroke="#a78bfa" stroke-width="0.8" stroke-dasharray="2,1.5"/>
          <line x1="86" y1="8" x2="104" y2="8" stroke="#a78bfa" stroke-width="0.8"/>

          <!-- Edge type legend below -->
          <rect x="0" y="24" width="138" height="34" rx="4" fill="rgba(139,92,246,0.06)" stroke="rgba(139,92,246,0.12)" stroke-width="0.6"/>
          <text x="5" y="35" font-size="6" fill="#94a3b8">INHERITANCE</text>
          <line x1="62" y1="32" x2="76" y2="32" stroke="#f87171" stroke-width="1"/>
          <text x="80" y="35" font-size="6" fill="#94a3b8">REALIZATION</text>
          <text x="5" y="48" font-size="6" fill="#94a3b8">ASSOCIATION</text>
          <line x1="62" y1="45" x2="76" y2="45" stroke="#fbbf24" stroke-width="1" stroke-dasharray="2,1"/>
          <text x="80" y="48" font-size="6" fill="#94a3b8">DEPENDENCY</text>
        </g>

        <!-- Process notes -->
        <line x1="16" y1="118" x2="182" y2="118" stroke="rgba(255,255,255,0.06)" stroke-width="1"/>
        <text x="99" y="132" text-anchor="middle" font-size="8" fill="#94a3b8">Seed nodes from changed files</text>
        <text x="99" y="144" text-anchor="middle" font-size="8" fill="#94a3b8">Bidirectional BFS 3-hop</text>
        <!-- Cap badge -->
        <rect x="52" y="148" width="94" height="16" rx="4" fill="rgba(139,92,246,0.12)" stroke="rgba(139,92,246,0.3)" stroke-width="0.8"/>
        <text x="99" y="159" text-anchor="middle" font-size="7.5" font-weight="600" fill="#a78bfa">CAP 500 NODES</text>
      </g>

      <!-- Arrow: GRAPH EXTRACTION -> FEATURE ENGINEERING -->
      <line x1="436" y1="190" x2="476" y2="190" stroke="#64748b" stroke-width="1.5" stroke-dasharray="5,4" marker-end="url(#arrow-flow)"/>


      <!-- ╔══════════════════════════════════════╗
           STAGE 3: FEATURE ENGINEERING
           ╚══════════════════════════════════════╝ -->
      <g transform="translate(484, 82)">
        <!-- Stage badge -->
        <rect width="198" height="22" rx="5" fill="#0d9488" opacity="0.9"/>
        <text x="99" y="15" text-anchor="middle" font-size="9" font-weight="700" fill="#fff" letter-spacing="0.8">3 FEATURE ENGINEERING</text>

        <!-- Main card -->
        <rect x="4" y="32" width="190" height="138" rx="10" fill="rgba(30,41,59,0.85)" stroke="rgba(13,148,136,0.25)" stroke-width="1.2" filter="url(#glow-teal)"/>

        <text x="99" y="52" text-anchor="middle" font-size="10.5" font-weight="600" fill="#e2e8f0">404-dim Feature Vector</text>
        <line x1="16" y1="60" x2="182" y2="60" stroke="rgba(255,255,255,0.06)" stroke-width="1"/>

        <!-- Feature vector bar -->
        <g transform="translate(16, 68)">
          <!-- Full bar background -->
          <rect x="0" y="0" width="166" height="14" rx="3" fill="rgba(255,255,255,0.04)" stroke="rgba(255,255,255,0.08)" stroke-width="0.6"/>

          <!-- Text embeddings: dims 0-383 (384/404 = ~95%) -> 157px -->
          <rect x="0" y="0" width="157" height="14" rx="3" fill="rgba(59,130,246,0.3)" stroke="rgba(59,130,246,0.5)" stroke-width="0.5"/>
          <text x="78" y="10" text-anchor="middle" font-size="6.5" font-weight="600" fill="#93c5fd">Text Embeddings [0-383]</text>

          <!-- OOP Metrics: dims 384-392 (9/404) -> 4px min visible -->
          <rect x="157" y="0" width="4" height="14" fill="rgba(245,158,11,0.5)"/>
          <!-- Type/Lang: dims 393-403 (11/404) -> 5px min visible -->
          <rect x="161" y="0" width="5" height="14" rx="0" fill="rgba(52,211,153,0.4)"/>
          <!-- Right rounding cap -->
          <rect x="163" y="0" width="3" height="14" rx="3" fill="rgba(52,211,153,0.4)"/>
        </g>

        <!-- Feature group details -->
        <g transform="translate(16, 92)">
          <rect x="0" y="0" width="166" height="72" rx="5" fill="rgba(255,255,255,0.02)" stroke="rgba(255,255,255,0.05)" stroke-width="0.5"/>

          <!-- Group 1 -->
          <circle cx="10" cy="12" r="3.5" fill="rgba(59,130,246,0.4)" stroke="#3b82f6" stroke-width="0.7"/>
          <text x="20" y="15" font-size="7.5" font-weight="500" fill="#93c5fd">all-MiniLM-L6-v2</text>
          <text x="126" y="15" font-size="6.5" fill="#64748b">384 dims</text>

          <!-- Group 2 -->
          <circle cx="10" cy="30" r="3.5" fill="rgba(245,158,11,0.4)" stroke="#f59e0b" stroke-width="0.7"/>
          <text x="20" y="33" font-size="7.5" font-weight="500" fill="#fcd34d">CK Metrics + Extras</text>
          <text x="126" y="33" font-size="6.5" fill="#64748b">9 dims</text>

          <!-- Group 3 -->
          <circle cx="10" cy="48" r="3.5" fill="rgba(52,211,153,0.4)" stroke="#10b981" stroke-width="0.7"/>
          <text x="20" y="51" font-size="7.5" font-weight="500" fill="#6ee7b7">Type + Language</text>
          <text x="126" y="51" font-size="6.5" fill="#64748b">11 dims</text>

          <!-- Normalisation note -->
          <text x="83" y="66" text-anchor="middle" font-size="6.5" fill="#64748b">Z-score normalised per language</text>
        </g>
      </g>

      <!-- Arrow: FEATURE ENGINEERING -> (splits into two tracks) -->
      <!-- Vertical split line -->
      <line x1="690" y1="190" x2="718" y2="190" stroke="#64748b" stroke-width="1.5" stroke-dasharray="5,4"/>
      <!-- Fork point -->
      <circle cx="718" cy="190" r="3" fill="#475569"/>
      <!-- Upper branch to Symbolic -->
      <path d="M718,190 L718,138 L746,138" fill="none" stroke="#fbbf24" stroke-width="1.5" stroke-dasharray="5,4" marker-end="url(#arrow-amber)"/>
      <!-- Lower branch to GNN -->
      <path d="M718,190 L718,310 L746,310" fill="none" stroke="#a78bfa" stroke-width="1.5" stroke-dasharray="5,4" marker-end="url(#arrow-purple)"/>


      <!-- ╔══════════════════════════════════════╗
           STAGE 4: DUAL SCORING
           ╚══════════════════════════════════════╝ -->
      <g transform="translate(754, 82)">
        <!-- Stage badge spanning both tracks -->
        <rect width="230" height="22" rx="5" fill="#475569" opacity="0.9"/>
        <text x="115" y="15" text-anchor="middle" font-size="9" font-weight="700" fill="#fff" letter-spacing="0.8">4 DUAL SCORING</text>
      </g>

      <!-- ──── LEFT TRACK: SYMBOLIC ANALYSIS ──── -->
      <g transform="translate(754, 114)">
        <!-- Track label -->
        <rect x="0" y="0" width="96" height="16" rx="4" fill="rgba(245,158,11,0.15)" stroke="rgba(245,158,11,0.35)" stroke-width="0.8"/>
        <text x="48" y="11.5" text-anchor="middle" font-size="7" font-weight="700" fill="#fbbf24" letter-spacing="0.5">SYMBOLIC</text>

        <!-- Card -->
        <rect x="0" y="22" width="230" height="108" rx="10" fill="rgba(30,41,59,0.85)" stroke="rgba(245,158,11,0.2)" stroke-width="1.2"/>

        <text x="115" y="42" text-anchor="middle" font-size="10" font-weight="600" fill="#e2e8f0">Deterministic Analysis</text>
        <line x1="12" y1="50" x2="218" y2="50" stroke="rgba(255,255,255,0.06)" stroke-width="1"/>

        <!-- Analysis items -->
        <g transform="translate(14, 58)">
          <!-- SCC -->
          <rect x="0" y="0" width="202" height="14" rx="3" fill="rgba(245,158,11,0.06)"/>
          <text x="4" y="10" font-size="7.5" fill="#fcd34d" font-weight="500">Kosaraju SCC</text>
          <text x="82" y="10" font-size="7" fill="#94a3b8">-> dependency cycles</text>

          <!-- Boundary -->
          <rect x="0" y="18" width="202" height="14" rx="3" fill="rgba(245,158,11,0.06)"/>
          <text x="4" y="28" font-size="7.5" fill="#fcd34d" font-weight="500">Boundary Scan</text>
          <text x="82" y="28" font-size="7" fill="#94a3b8">-> package crossings</text>

          <!-- Fan-in -->
          <rect x="0" y="36" width="202" height="14" rx="3" fill="rgba(245,158,11,0.06)"/>
          <text x="4" y="46" font-size="7.5" fill="#fcd34d" font-weight="500">Fan-in Analysis</text>
          <text x="82" y="46" font-size="7" fill="#94a3b8">-> blast radius</text>

          <!-- Metric deltas -->
          <rect x="0" y="54" width="202" height="14" rx="3" fill="rgba(245,158,11,0.06)"/>
          <text x="4" y="64" font-size="7.5" fill="#fcd34d" font-weight="500">Metric Deltas</text>
          <text x="82" y="64" font-size="7" fill="#94a3b8">-> WMC, coupling, etc.</text>
        </g>

        <!-- Output badge -->
        <rect x="62" y="108" width="106" height="16" rx="4" fill="rgba(245,158,11,0.12)" stroke="rgba(245,158,11,0.3)" stroke-width="0.8"/>
        <text x="115" y="119" text-anchor="middle" font-size="7" font-weight="600" fill="#fbbf24">BINARY FACTS</text>
      </g>

      <!-- ──── RIGHT TRACK: GNN ANOMALY SCORER ──── -->
      <g transform="translate(754, 262)">
        <!-- Track label -->
        <rect x="0" y="0" width="96" height="16" rx="4" fill="rgba(139,92,246,0.15)" stroke="rgba(139,92,246,0.35)" stroke-width="0.8"/>
        <text x="48" y="11.5" text-anchor="middle" font-size="7" font-weight="700" fill="#a78bfa" letter-spacing="0.5">GNN SCORER</text>

        <!-- Card -->
        <rect x="0" y="22" width="230" height="108" rx="10" fill="rgba(30,41,59,0.85)" stroke="rgba(139,92,246,0.2)" stroke-width="1.2"/>

        <text x="115" y="42" text-anchor="middle" font-size="10" font-weight="600" fill="#e2e8f0">Distilled R-GCN</text>
        <line x1="12" y1="50" x2="218" y2="50" stroke="rgba(255,255,255,0.06)" stroke-width="1"/>

        <!-- GNN internals -->
        <g transform="translate(14, 58)">
          <rect x="0" y="0" width="202" height="14" rx="3" fill="rgba(139,92,246,0.06)"/>
          <text x="4" y="10" font-size="7.5" fill="#c4b5fd" font-weight="500">R-GCN Layers</text>
          <text x="82" y="10" font-size="7" fill="#94a3b8">-> typed edge aggregation</text>

          <rect x="0" y="18" width="202" height="14" rx="3" fill="rgba(139,92,246,0.06)"/>
          <text x="4" y="28" font-size="7.5" fill="#c4b5fd" font-weight="500">ONNX Runtime</text>
          <text x="82" y="28" font-size="7" fill="#94a3b8">-> sync inference</text>

          <rect x="0" y="36" width="202" height="14" rx="3" fill="rgba(139,92,246,0.06)"/>
          <text x="4" y="46" font-size="7.5" fill="#c4b5fd" font-weight="500">Per-node Scoring</text>
          <text x="82" y="46" font-size="7" fill="#94a3b8">-> seed node ranking</text>

          <rect x="0" y="54" width="202" height="14" rx="3" fill="rgba(139,92,246,0.06)"/>
          <text x="4" y="64" font-size="7.5" fill="#c4b5fd" font-weight="500">Thresholds</text>
          <text x="82" y="64" font-size="7" fill="#94a3b8">-> HIGH 0.7 / REVIEW 0.4</text>
        </g>

        <!-- Output badge -->
        <rect x="62" y="108" width="106" height="16" rx="4" fill="rgba(139,92,246,0.12)" stroke="rgba(139,92,246,0.3)" stroke-width="0.8"/>
        <text x="115" y="119" text-anchor="middle" font-size="7" font-weight="600" fill="#a78bfa">SCORES [0,1]</text>
      </g>

      <!-- Merge arrows from dual scoring to FUSION -->
      <!-- From Symbolic: down then right -->
      <path d="M984,260 L1004,260 L1004,390" fill="none" stroke="#fbbf24" stroke-width="1.5" stroke-dasharray="5,4"/>
      <!-- From GNN: down then right -->
      <path d="M984,406 L1004,406" fill="none" stroke="#a78bfa" stroke-width="1.5" stroke-dasharray="5,4"/>
      <!-- Merge point -->
      <circle cx="1004" cy="390" r="3" fill="#475569"/>
      <circle cx="1004" cy="406" r="3" fill="#475569"/>
      <!-- Combined merge point -->
      <circle cx="1004" cy="398" r="5" fill="#334155" stroke="#64748b" stroke-width="1"/>
      <text x="1004" y="401" text-anchor="middle" font-size="6" fill="#e2e8f0" font-weight="700">+</text>


      <!-- ╔══════════════════════════════════════╗
           STAGE 5: FUSION
           ╚══════════════════════════════════════╝ -->
      <g transform="translate(754, 420)">
        <!-- Stage badge -->
        <rect width="230" height="22" rx="5" fill="#0ea5e9" opacity="0.85"/>
        <text x="115" y="15" text-anchor="middle" font-size="9" font-weight="700" fill="#fff" letter-spacing="0.8">5 FUSION</text>

        <!-- Card -->
        <rect x="0" y="28" width="230" height="70" rx="10" fill="rgba(30,41,59,0.85)" stroke="rgba(14,165,233,0.25)" stroke-width="1.2"/>

        <text x="115" y="48" text-anchor="middle" font-size="10" font-weight="600" fill="#e2e8f0">Signal Fusion</text>
        <line x1="12" y1="56" x2="218" y2="56" stroke="rgba(255,255,255,0.06)" stroke-width="1"/>

        <!-- Two signal labels merging -->
        <g transform="translate(12, 62)">
          <rect x="0" y="0" width="94" height="22" rx="4" fill="rgba(245,158,11,0.08)" stroke="rgba(245,158,11,0.2)" stroke-width="0.6"/>
          <text x="47" y="9" text-anchor="middle" font-size="6.5" font-weight="600" fill="#fbbf24">Hard Signals</text>
          <text x="47" y="18" text-anchor="middle" font-size="6" fill="#94a3b8">binary facts</text>

          <text x="103" y="12" text-anchor="middle" font-size="10" fill="#475569" font-weight="700">+</text>

          <rect x="112" y="0" width="94" height="22" rx="4" fill="rgba(139,92,246,0.08)" stroke="rgba(139,92,246,0.2)" stroke-width="0.6"/>
          <text x="159" y="9" text-anchor="middle" font-size="6.5" font-weight="600" fill="#a78bfa">Soft Signals</text>
          <text x="159" y="18" text-anchor="middle" font-size="6" fill="#94a3b8">ranking scores</text>
        </g>

        <!-- Arrow into fusion from merge point above -->
        <line x1="1004" y1="420" x2="1004" y2="448" stroke="#64748b" stroke-width="1.5" stroke-dasharray="5,4" marker-end="url(#arrow-flow)"/>

        <!-- Output badge -->
        <rect x="62" y="62" width="106" height="16" rx="4" fill="rgba(14,165,233,0.12)" stroke="rgba(14,165,233,0.3)" stroke-width="0.8" transform="translate(0,16)"/>
        <text x="115" y="89" text-anchor="middle" font-size="7" font-weight="600" fill="#38bdf8">STRUCTURED JSON</text>
      </g>

      <!-- Arrow: FUSION -> LLM AGENT (wraps down and left) -->
      <path d="M869,520 L869,548 Q869,558 859,558 L530,558 Q520,558 520,548 L520,534" fill="none" stroke="#64748b" stroke-width="1.5" stroke-dasharray="5,4" marker-end="url(#arrow-flow)"/>


      <!-- ╔══════════════════════════════════════╗
           STAGE 6: LLM AGENT
           ╚══════════════════════════════════════╝ -->
      <g transform="translate(388, 440)">
        <!-- Stage badge -->
        <rect width="260" height="22" rx="5" fill="#10b981" opacity="0.85"/>
        <text x="130" y="15" text-anchor="middle" font-size="9" font-weight="700" fill="#fff" letter-spacing="0.8">6 LLM AGENT</text>

        <!-- Card -->
        <rect x="0" y="28" width="260" height="64" rx="10" fill="rgba(30,41,59,0.85)" stroke="rgba(16,185,129,0.25)" stroke-width="1.2"/>

        <text x="130" y="48" text-anchor="middle" font-size="10" font-weight="600" fill="#e2e8f0">Grounded Annotation Engine</text>
        <line x1="12" y1="56" x2="248" y2="56" stroke="rgba(255,255,255,0.06)" stroke-width="1"/>

        <text x="130" y="70" text-anchor="middle" font-size="8" fill="#94a3b8">Receives structured evidence, not raw diffs</text>

        <!-- Tier badges -->
        <g transform="translate(48, 76)">
          <rect x="0" y="0" width="68" height="14" rx="3" fill="rgba(239,68,68,0.15)" stroke="rgba(239,68,68,0.4)" stroke-width="0.7"/>
          <text x="34" y="10" text-anchor="middle" font-size="7" font-weight="700" fill="#f87171">HIGH</text>

          <rect x="78" y="0" width="82" height="14" rx="3" fill="rgba(245,158,11,0.12)" stroke="rgba(245,158,11,0.35)" stroke-width="0.7"/>
          <text x="119" y="10" text-anchor="middle" font-size="7" font-weight="700" fill="#fbbf24">REVIEW</text>
        </g>
      </g>

      <!-- Arrow: LLM AGENT -> OUTPUT -->
      <path d="M388,476 Q370,476 370,476 L240,476 Q230,476 230,486 L230,534" fill="none" stroke="#64748b" stroke-width="1.5" stroke-dasharray="5,4" marker-end="url(#arrow-flow)"/>


      <!-- ╔══════════════════════════════════════╗
           STAGE 7: OUTPUT
           ╚══════════════════════════════════════╝ -->
      <g transform="translate(100, 440)">
        <!-- Stage badge -->
        <rect width="252" height="22" rx="5" fill="#f43f5e" opacity="0.85"/>
        <text x="126" y="15" text-anchor="middle" font-size="9" font-weight="700" fill="#fff" letter-spacing="0.8">7 OUTPUT</text>

        <!-- Card -->
        <rect x="0" y="28" width="252" height="138" rx="10" fill="rgba(30,41,59,0.85)" stroke="rgba(244,63,94,0.25)" stroke-width="1.2"/>

        <text x="126" y="48" text-anchor="middle" font-size="10" font-weight="600" fill="#e2e8f0">Architecture Diagram</text>
        <line x1="12" y1="56" x2="240" y2="56" stroke="rgba(255,255,255,0.06)" stroke-width="1"/>

        <!-- Mini diagram mockup -->
        <g transform="translate(16, 64)">
          <!-- Package box -->
          <rect x="0" y="0" width="108" height="72" rx="4" fill="rgba(244,63,94,0.06)" stroke="rgba(244,63,94,0.2)" stroke-width="0.8" stroke-dasharray="4,2"/>
          <text x="54" y="12" text-anchor="middle" font-size="6.5" fill="#94a3b8" font-weight="500">com.example.service</text>
          <line x1="4" y1="16" x2="104" y2="16" stroke="rgba(255,255,255,0.06)" stroke-width="0.5"/>

          <!-- Class boxes inside -->
          <rect x="6" y="22" width="44" height="18" rx="2" fill="rgba(59,130,246,0.12)" stroke="rgba(59,130,246,0.3)" stroke-width="0.6"/>
          <text x="28" y="34" text-anchor="middle" font-size="6" fill="#93c5fd">ServiceA</text>

          <rect x="58" y="22" width="44" height="18" rx="2" fill="rgba(239,68,68,0.15)" stroke="rgba(239,68,68,0.4)" stroke-width="0.8"/>
          <text x="80" y="34" text-anchor="middle" font-size="6" fill="#fca5a5">ServiceB</text>

          <!-- Edge between them -->
          <line x1="50" y1="31" x2="58" y2="31" stroke="#f87171" stroke-width="0.8"/>
          <!-- Small change indicator dot -->
          <circle cx="54" cy="31" r="2" fill="#ef4444" opacity="0.6"/>

          <!-- Sticky note -->
          <rect x="8" y="46" width="98" height="22" rx="2" fill="rgba(251,191,36,0.15)" stroke="rgba(251,191,36,0.3)" stroke-width="0.6"/>
          <rect x="8" y="46" width="3" height="22" rx="1" fill="#f59e0b" opacity="0.6"/>
          <text x="16" y="55" font-size="5.5" font-weight="600" fill="#f87171">HIGH</text>
          <text x="38" y="55" font-size="5" fill="#fcd34d">Boundary crossed</text>
          <text x="16" y="64" font-size="5" fill="#94a3b8">New dep on rendering</text>

          <!-- SVG badge -->
          <rect x="118" y="10" width="102" height="56" rx="5" fill="rgba(255,255,255,0.03)" stroke="rgba(255,255,255,0.08)" stroke-width="0.6"/>
          <text x="169" y="26" text-anchor="middle" font-size="7" font-weight="600" fill="#e2e8f0">SVG Class</text>
          <text x="169" y="38" text-anchor="middle" font-size="7" font-weight="600" fill="#e2e8f0">Diagram</text>
          <line x1="126" y1="44" x2="212" y2="44" stroke="rgba(255,255,255,0.06)" stroke-width="0.5"/>
          <text x="169" y="55" text-anchor="middle" font-size="6" fill="#94a3b8">Sticky note</text>
          <text x="169" y="63" text-anchor="middle" font-size="6" fill="#94a3b8">annotations</text>
        </g>
      </g>


      <!-- ══════════════════════════════════════
           DATA FLOW ANNOTATIONS
           ══════════════════════════════════════ -->

      <!-- Flow label above arrows: INPUT -> GRAPH -->
      <text x="210" y="182" text-anchor="middle" font-size="6.5" fill="#475569">diff + repo</text>

      <!-- Flow label: GRAPH -> FEATURE -->
      <text x="456" y="182" text-anchor="middle" font-size="6.5" fill="#475569">subgraph</text>

      <!-- Flow label: FEATURE -> fork -->
      <text x="700" y="182" text-anchor="middle" font-size="6.5" fill="#475569">node features</text>

      <!-- Labels on fork branches -->
      <text x="734" y="160" text-anchor="end" font-size="6.5" fill="#fbbf24">deterministic</text>
      <text x="734" y="278" text-anchor="end" font-size="6.5" fill="#a78bfa">learned</text>

      <!-- Data flow through bottom section -->
      <text x="520" y="552" text-anchor="middle" font-size="6.5" fill="#475569">JSON payload + compact diff</text>
      <text x="308" y="520" text-anchor="middle" font-size="6.5" fill="#475569">tiered annotations</text>


      <!-- ══════════════════════════════════════
           BOTTOM INFO BAR
           ══════════════════════════════════════ -->
      <line x1="60" y1="660" x2="1200" y2="660" stroke="rgba(255,255,255,0.06)" stroke-width="1"/>

      <g transform="translate(60, 674)">
        <!-- Repo links -->
        <rect x="0" y="0" width="88" height="18" rx="4" fill="rgba(59,130,246,0.1)" stroke="rgba(59,130,246,0.2)" stroke-width="0.6"/>
        <text x="44" y="12.5" text-anchor="middle" font-size="7" font-weight="600" fill="#60a5fa">striff-gnn</text>

        <rect x="96" y="0" width="86" height="18" rx="4" fill="rgba(139,92,246,0.1)" stroke="rgba(139,92,246,0.2)" stroke-width="0.6"/>
        <text x="139" y="12.5" text-anchor="middle" font-size="7" font-weight="600" fill="#a78bfa">striff-lib</text>

        <rect x="190" y="0" width="74" height="18" rx="4" fill="rgba(16,185,129,0.1)" stroke="rgba(16,185,129,0.2)" stroke-width="0.6"/>
        <text x="227" y="12.5" text-anchor="middle" font-size="7" font-weight="600" fill="#34d399">clarpse</text>
      </g>

      <text x="1200" y="686" text-anchor="end" font-size="7.5" fill="#475569" letter-spacing="0.3">striff.io  |  neurosymbolic code review</text>

      <!-- Color legend at bottom center -->
      <g transform="translate(450, 674)">
        <text x="0" y="12" font-size="7" fill="#64748b" font-weight="500">Pipeline stages:</text>
        <circle cx="82" cy="9" r="4" fill="#3b82f6"/>
        <text x="90" y="12" font-size="6.5" fill="#94a3b8">Input</text>
        <circle cx="122" cy="9" r="4" fill="#7c3aed"/>
        <text x="130" y="12" font-size="6.5" fill="#94a3b8">Graph</text>
        <circle cx="168" cy="9" r="4" fill="#0d9488"/>
        <text x="176" y="12" font-size="6.5" fill="#94a3b8">Features</text>
        <circle cx="222" cy="9" r="4" fill="#475569"/>
        <text x="230" y="12" font-size="6.5" fill="#94a3b8">Scoring</text>
        <circle cx="274" cy="9" r="4" fill="#0ea5e9"/>
        <text x="282" y="12" font-size="6.5" fill="#94a3b8">Fusion</text>
        <circle cx="318" cy="9" r="4" fill="#10b981"/>
        <text x="326" y="12" font-size="6.5" fill="#94a3b8">LLM</text>
        <circle cx="354" cy="9" r="4" fill="#f43f5e"/>
        <text x="362" y="12" font-size="6.5" fill="#94a3b8">Output</text>
      </g>

      <!-- Thin border around entire diagram -->
      <rect width="1260" height="720" rx="16" fill="none" stroke="rgba(255,255,255,0.08)" stroke-width="1"/>
    </svg>