<svg id="svg_junit5-masterjunit-platform-launchersrcmainjavaorgjunitplatformlaunchercoreTestExecutionListenerRegistry.java" svg="" height="1127px" style="width: 100%; height: 710.379px; cursor: move; background: rgb(29, 31, 33);" version="1.1" viewBox="-327 -169.04999999999995 2834 1465.1" width="2180px" xmlns="http://www.w3.org/2000/svg" xmlns:xlink="http://www.w3.org/1999/xlink" preserveAspectRatio="xMidYMid meet"><defs></defs><g><polygon fill="#1D1F21" points="212,24,506,24,513,48.7344,1405,48.7344,1405,353,212,353,212,24" style="stroke: #7E7E7E; stroke-width: 2.0;"></polygon><line style="stroke: #7E7E7E; stroke-width: 2.0;" x1="212" x2="513" y1="48.7344" y2="48.7344"></line><text fill="#7E7E7E" font-family="Consolas" font-size="16" lengthAdjust="spacingAndGlyphs" text-rendering="geometricPrecision" x="216" y="41.9844">org.junit.platform.launcher.core</text><polygon fill="#1D1F21" points="22,750,271,750,278,774.7344,1311,774.7344,1311,1120,22,1120,22,750" style="stroke: #7E7E7E; stroke-width: 2.0;"></polygon><line style="stroke: #7E7E7E; stroke-width: 2.0;" x1="22" x2="278" y1="774.7344" y2="774.7344"></line><text fill="#7E7E7E" font-family="Consolas" font-size="16" lengthAdjust="spacingAndGlyphs" text-rendering="geometricPrecision" x="26" y="767.9844">org.junit.platform.launcher</text><polygon fill="#1D1F21" points="1106,384,1337,384,1344,408.7344,1704,408.7344,1704,726,1106,726,1106,384" style="stroke: #7E7E7E; stroke-width: 2.0;"></polygon><line style="stroke: #7E7E7E; stroke-width: 2.0;" x1="1106" x2="1344" y1="408.7344" y2="408.7344"></line><text fill="#7E7E7E" font-family="Consolas" font-size="16" lengthAdjust="spacingAndGlyphs" text-rendering="geometricPrecision" x="1110" y="401.9844">org.junit.platform.engine</text><rect fill="#1D1F21" height="90.1523" style="stroke: #BBBBBB; stroke-width: 2.0;" width="464" x="254" y="84"></rect><ellipse cx="269" cy="100" fill="#ADD1B2" rx="11" ry="11" style="stroke: #BBBBBB; stroke-width: 2.0;"></ellipse><path d="M271.7656,95.875 Q271.9219,95.6563 272.1094,95.5469 Q272.2969,95.4375 272.5156,95.4375 Q272.8906,95.4375 273.125,95.6953 Q273.3594,95.9531 273.3594,96.5625 L273.3594,98.0156 Q273.3594,98.625 273.125,98.8906 Q272.8906,99.1563 272.5156,99.1563 Q272.1719,99.1563 271.9688,98.9531 Q271.7656,98.7656 271.6563,98.25 Q271.6094,97.8906 271.4219,97.7031 Q271.0938,97.3281 270.4844,97.1094 Q269.875,96.8906 269.25,96.8906 Q268.4844,96.8906 267.8516,97.2188 Q267.2188,97.5469 266.7266,98.2969 Q266.2344,99.0469 266.2344,100.0781 L266.2344,101.1719 Q266.2344,102.4063 267.125,103.2266 Q268.0156,104.0469 269.6094,104.0469 Q270.5469,104.0469 271.2031,103.7969 Q271.5938,103.6406 272.0156,103.2031 Q272.2813,102.9375 272.4297,102.8594 Q272.5781,102.7813 272.7813,102.7813 Q273.1094,102.7813 273.3672,103.0391 Q273.625,103.2969 273.625,103.6406 Q273.625,103.9844 273.2813,104.3906 Q272.7813,104.9688 271.9844,105.2969 Q270.9063,105.75 269.6094,105.75 Q268.0938,105.75 266.8906,105.125 Q265.9063,104.625 265.2188,103.5547 Q264.5313,102.4844 264.5313,101.2031 L264.5313,100.0469 Q264.5313,98.7188 265.1484,97.5703 Q265.7656,96.4219 266.8594,95.8047 Q267.9531,95.1875 269.1875,95.1875 Q269.9219,95.1875 270.5703,95.3516 Q271.2188,95.5156 271.7656,95.875 Z "></path><text class="interactiveComponent" fill="#B7E9FB" font-family="Consolas" font-size="16" id="org.junit.platform.launcher.core.DefaultLauncher" lengthAdjust="spacingAndGlyphs" onclick="classElementCallBack('org.junit.platform.launcher.core.DefaultLauncher')" text-rendering="geometricPrecision" x="347" y="106.6172">DefaultLauncher</text><line style="stroke: #BBBBBB; stroke-width: 2.0;" x1="255" x2="717" y1="116" y2="116"></line><line style="stroke: #BBBBBB; stroke-width: 2.0;" x1="255" x2="717" y1="124" y2="124"></line><rect fill="#F24D5C" height="6" style="stroke: #C82930; stroke-width: 2.0;" width="6" x="262" y="133.5254"></rect><line style="stroke: #C5C8C6; stroke-width: 2.0;" x1="274" x2="274" y1="141.9883" y2="141.9883"></line><text fill="#C5C8C6" font-family="Consolas" font-size="12" lengthAdjust="spacingAndGlyphs" text-decoration="underline" text-rendering="geometricPrecision" x="274" y="139.9883">validateUniqueIds(Iterable&lt;TestEngine&gt;) : Iterable&lt;TestEngine&gt;</text><rect fill="#F24D5C" height="6" style="stroke: #C82930; stroke-width: 2.0;" width="6" x="262" y="147.5762"></rect><text fill="#C5C8C6" font-family="Consolas" font-size="12" lengthAdjust="spacingAndGlyphs" text-rendering="geometricPrecision" x="274" y="154.0391">discoverRoot(LauncherDiscoveryRequest, String) : Root</text><rect fill="#F24D5C" height="6" style="stroke: #C82930; stroke-width: 2.0;" width="6" x="262" y="161.627"></rect><text fill="#C5C8C6" font-family="Consolas" font-size="12" lengthAdjust="spacingAndGlyphs" text-rendering="geometricPrecision" x="274" y="168.0898">execute(Root, ConfigurationParameters) : void</text><rect fill="#1D1F21" height="48" style="stroke: #BBBBBB; stroke-width: 2.0;" width="545" x="820" y="105"></rect><ellipse cx="835" cy="121" fill="#ADD1B2" rx="11" ry="11" style="stroke: #BBBBBB; stroke-width: 2.0;"></ellipse><path d="M837.7656,116.875 Q837.9219,116.6563 838.1094,116.5469 Q838.2969,116.4375 838.5156,116.4375 Q838.8906,116.4375 839.125,116.6953 Q839.3594,116.9531 839.3594,117.5625 L839.3594,119.0156 Q839.3594,119.625 839.125,119.8906 Q838.8906,120.1563 838.5156,120.1563 Q838.1719,120.1563 837.9688,119.9531 Q837.7656,119.7656 837.6563,119.25 Q837.6094,118.8906 837.4219,118.7031 Q837.0938,118.3281 836.4844,118.1094 Q835.875,117.8906 835.25,117.8906 Q834.4844,117.8906 833.8516,118.2188 Q833.2188,118.5469 832.7266,119.2969 Q832.2344,120.0469 832.2344,121.0781 L832.2344,122.1719 Q832.2344,123.4063 833.125,124.2266 Q834.0156,125.0469 835.6094,125.0469 Q836.5469,125.0469 837.2031,124.7969 Q837.5938,124.6406 838.0156,124.2031 Q838.2813,123.9375 838.4297,123.8594 Q838.5781,123.7813 838.7813,123.7813 Q839.1094,123.7813 839.3672,124.0391 Q839.625,124.2969 839.625,124.6406 Q839.625,124.9844 839.2813,125.3906 Q838.7813,125.9688 837.9844,126.2969 Q836.9063,126.75 835.6094,126.75 Q834.0938,126.75 832.8906,126.125 Q831.9063,125.625 831.2188,124.5547 Q830.5313,123.4844 830.5313,122.2031 L830.5313,121.0469 Q830.5313,119.7188 831.1484,118.5703 Q831.7656,117.4219 832.8594,116.8047 Q833.9531,116.1875 835.1875,116.1875 Q835.9219,116.1875 836.5703,116.3516 Q837.2188,116.5156 837.7656,116.875 Z "></path><text class="interactiveComponent" fill="#B7E9FB" font-family="Consolas" font-size="16" id="org.junit.platform.launcher.core.ExecutionListenerAdapter" lengthAdjust="spacingAndGlyphs" onclick="classElementCallBack('org.junit.platform.launcher.core.ExecutionListenerAdapter')" text-rendering="geometricPrecision" x="913" y="127.6172">ExecutionListenerAdapter</text><line style="stroke: #BBBBBB; stroke-width: 2.0;" x1="821" x2="1364" y1="137" y2="137"></line><line style="stroke: #BBBBBB; stroke-width: 2.0;" x1="821" x2="1364" y1="145" y2="145"></line><rect fill="#1D1F21" height="76.1016" style="stroke: #BBBBBB; stroke-width: 2.0;" width="590" x="228" y="261"></rect><ellipse cx="243" cy="277" fill="#ADD1B2" rx="11" ry="11" style="stroke: #BBBBBB; stroke-width: 2.0;"></ellipse><path d="M245.7656,272.875 Q245.9219,272.6563 246.1094,272.5469 Q246.2969,272.4375 246.5156,272.4375 Q246.8906,272.4375 247.125,272.6953 Q247.3594,272.9531 247.3594,273.5625 L247.3594,275.0156 Q247.3594,275.625 247.125,275.8906 Q246.8906,276.1563 246.5156,276.1563 Q246.1719,276.1563 245.9688,275.9531 Q245.7656,275.7656 245.6563,275.25 Q245.6094,274.8906 245.4219,274.7031 Q245.0938,274.3281 244.4844,274.1094 Q243.875,273.8906 243.25,273.8906 Q242.4844,273.8906 241.8516,274.2188 Q241.2188,274.5469 240.7266,275.2969 Q240.2344,276.0469 240.2344,277.0781 L240.2344,278.1719 Q240.2344,279.4063 241.125,280.2266 Q242.0156,281.0469 243.6094,281.0469 Q244.5469,281.0469 245.2031,280.7969 Q245.5938,280.6406 246.0156,280.2031 Q246.2813,279.9375 246.4297,279.8594 Q246.5781,279.7813 246.7813,279.7813 Q247.1094,279.7813 247.3672,280.0391 Q247.625,280.2969 247.625,280.6406 Q247.625,280.9844 247.2813,281.3906 Q246.7813,281.9688 245.9844,282.2969 Q244.9063,282.75 243.6094,282.75 Q242.0938,282.75 240.8906,282.125 Q239.9063,281.625 239.2188,280.5547 Q238.5313,279.4844 238.5313,278.2031 L238.5313,277.0469 Q238.5313,275.7188 239.1484,274.5703 Q239.7656,273.4219 240.8594,272.8047 Q241.9531,272.1875 243.1875,272.1875 Q243.9219,272.1875 244.5703,272.3516 Q245.2188,272.5156 245.7656,272.875 Z "></path><text class="interactiveComponent" fill="#B7E9FB" font-family="Consolas" font-size="16" id="org.junit.platform.launcher.core.TestExecutionListenerRegistry" lengthAdjust="spacingAndGlyphs" onclick="classElementCallBack('org.junit.platform.launcher.core.TestExecutionListenerRegistry')" text-rendering="geometricPrecision" x="321" y="283.6172">TestExecutionListenerRegistry</text><line style="stroke: #BBBBBB; stroke-width: 2.0;" x1="229" x2="817" y1="293" y2="293"></line><line style="stroke: #BBBBBB; stroke-width: 2.0;" x1="229" x2="817" y1="301" y2="301"></line><polygon fill="#4177AF" points="239,309.5254,235,315.5254,243,315.5254" style="stroke: #1963A0; stroke-width: 2.0;"></polygon><text fill="#C5C8C6" font-family="Consolas" font-size="12" lengthAdjust="spacingAndGlyphs" text-rendering="geometricPrecision" x="248" y="316.9883">registerListeners(TestExecutionListener) : void</text><rect fill="#F24D5C" height="6" style="stroke: #C82930; stroke-width: 2.0;" width="6" x="236" y="324.5762"></rect><text fill="#C5C8C6" font-family="Consolas" font-size="12" lengthAdjust="spacingAndGlyphs" text-rendering="geometricPrecision" x="248" y="331.0391">notifyTestExecutionListeners(Consumer&lt;TestExecutionListener&gt;) : void</text><rect fill="#1D1F21" height="314.9648" style="stroke: #BBBBBB; stroke-width: 2.0;" width="565" x="729.75" y="788.5"></rect><ellipse cx="787.5" cy="804.5" fill="#B4A7E5" rx="11" ry="11" style="stroke: #BBBBBB; stroke-width: 2.0;"></ellipse><path d="M788.4531,801.1406 L788.4531,807.7969 L790.1719,807.7969 Q790.7813,807.7969 791.0469,808.0313 Q791.3125,808.2656 791.3125,808.6563 Q791.3125,809.0313 791.0469,809.2656 Q790.7813,809.5 790.1719,809.5 L785.0313,809.5 Q784.4219,809.5 784.1563,809.2656 Q783.8906,809.0313 783.8906,808.6406 Q783.8906,808.2656 784.1563,808.0313 Q784.4219,807.7969 785.0313,807.7969 L786.75,807.7969 L786.75,801.1406 L785.0313,801.1406 Q784.4219,801.1406 784.1563,800.9063 Q783.8906,800.6719 783.8906,800.2813 Q783.8906,799.9063 784.1563,799.6719 Q784.4219,799.4375 785.0313,799.4375 L790.1719,799.4375 Q790.7813,799.4375 791.0469,799.6719 Q791.3125,799.9063 791.3125,800.2813 Q791.3125,800.6719 791.0469,800.9063 Q790.7813,801.1406 790.1719,801.1406 L788.4531,801.1406 Z "></path><text class="interactiveComponent" fill="#B7E9FB" font-family="Consolas" font-size="16" font-style="italic" id="org.junit.platform.launcher.TestExecutionListener" lengthAdjust="spacingAndGlyphs" onclick="classElementCallBack('org.junit.platform.launcher.TestExecutionListener')" text-rendering="geometricPrecision" x="862" y="811.1172">TestExecutionListener</text><line style="stroke: #BBBBBB; stroke-width: 2.0;" x1="730.75" x2="1293.75" y1="820.5" y2="820.5"></line><text fill="#22df80" font-family="Consolas" font-size="12" lengthAdjust="spacingAndGlyphs" text-rendering="geometricPrecision" x="735.75" y="836.4883">/**</text><text fill="#22df80" font-family="Consolas" font-size="12" lengthAdjust="spacingAndGlyphs" text-rendering="geometricPrecision" x="742.75" y="850.5391">* Register an instance of this class with a {@link Launcher} to be notified of</text><text fill="#22df80" font-family="Consolas" font-size="12" lengthAdjust="spacingAndGlyphs" text-rendering="geometricPrecision" x="742.75" y="864.5898">* events that occur during test execution.</text><text fill="#22df80" font-family="Consolas" font-size="12" lengthAdjust="spacingAndGlyphs" text-rendering="geometricPrecision" x="742.75" y="878.6406">*</text><text fill="#22df80" font-family="Consolas" font-size="12" lengthAdjust="spacingAndGlyphs" text-rendering="geometricPrecision" x="742.75" y="892.6914">* &lt;p&gt;All methods in this class have empty &lt;em&gt;default&lt;/em&gt; implementations.</text><text fill="#22df80" font-family="Consolas" font-size="12" lengthAdjust="spacingAndGlyphs" text-rendering="geometricPrecision" x="742.75" y="906.7422">* Concrete implementations may therefore override one or more of these</text><text fill="#22df80" font-family="Consolas" font-size="12" lengthAdjust="spacingAndGlyphs" text-rendering="geometricPrecision" x="742.75" y="920.793">* methods to be notified of the selected events.</text><text fill="#22df80" font-family="Consolas" font-size="12" lengthAdjust="spacingAndGlyphs" text-rendering="geometricPrecision" x="742.75" y="934.8438">*</text><text fill="#22df80" font-family="Consolas" font-size="12" lengthAdjust="spacingAndGlyphs" text-rendering="geometricPrecision" x="742.75" y="948.8945">* &lt;p&gt;JUnit provides two example implementations:</text><text fill="#22df80" font-family="Consolas" font-size="12" lengthAdjust="spacingAndGlyphs" text-rendering="geometricPrecision" x="742.75" y="962.9453">* &lt;ul&gt;</text><text fill="#22df80" font-family="Consolas" font-size="12" lengthAdjust="spacingAndGlyphs" text-rendering="geometricPrecision" x="742.75" y="976.9961">* &lt;li&gt;{@link org.junit.platform.launcher.listeners.LoggingListener}&lt;/li&gt;</text><text fill="#22df80" font-family="Consolas" font-size="12" lengthAdjust="spacingAndGlyphs" text-rendering="geometricPrecision" x="742.75" y="991.0469">* &lt;li&gt;{@link org.junit.platform.la...</text><line style="stroke: #BBBBBB; stroke-width: 2.0;" x1="730.75" x2="1293.75" y1="997.1094" y2="997.1094"></line><polygon fill="#4177AF" points="740.75,1005.6348,736.75,1011.6348,744.75,1011.6348" style="stroke: #1963A0; stroke-width: 2.0;"></polygon><text fill="#C5C8C6" font-family="Consolas" font-size="12" lengthAdjust="spacingAndGlyphs" text-rendering="geometricPrecision" x="749.75" y="1013.0977">testPlanExecutionStarted(TestPlan) : void</text><polygon fill="#4177AF" points="740.75,1019.6855,736.75,1025.6855,744.75,1025.6855" style="stroke: #1963A0; stroke-width: 2.0;"></polygon><text fill="#C5C8C6" font-family="Consolas" font-size="12" lengthAdjust="spacingAndGlyphs" text-rendering="geometricPrecision" x="749.75" y="1027.1484">testPlanExecutionFinished(TestPlan) : void</text><polygon fill="#4177AF" points="740.75,1033.7363,736.75,1039.7363,744.75,1039.7363" style="stroke: #1963A0; stroke-width: 2.0;"></polygon><text fill="#C5C8C6" font-family="Consolas" font-size="12" lengthAdjust="spacingAndGlyphs" text-rendering="geometricPrecision" x="749.75" y="1041.1992">dynamicTestRegistered(TestIdentifier) : void</text><polygon fill="#4177AF" points="740.75,1047.7871,736.75,1053.7871,744.75,1053.7871" style="stroke: #1963A0; stroke-width: 2.0;"></polygon><text fill="#C5C8C6" font-family="Consolas" font-size="12" lengthAdjust="spacingAndGlyphs" text-rendering="geometricPrecision" x="749.75" y="1055.25">executionSkipped(TestIdentifier, String) : void</text><polygon fill="#4177AF" points="740.75,1061.8379,736.75,1067.8379,744.75,1067.8379" style="stroke: #1963A0; stroke-width: 2.0;"></polygon><text fill="#C5C8C6" font-family="Consolas" font-size="12" lengthAdjust="spacingAndGlyphs" text-rendering="geometricPrecision" x="749.75" y="1069.3008">executionStarted(TestIdentifier) : void</text><polygon fill="#4177AF" points="740.75,1075.8887,736.75,1081.8887,744.75,1081.8887" style="stroke: #1963A0; stroke-width: 2.0;"></polygon><text fill="#C5C8C6" font-family="Consolas" font-size="12" lengthAdjust="spacingAndGlyphs" text-rendering="geometricPrecision" x="749.75" y="1083.3516">executionFinished(TestIdentifier, TestExecutionResult) : void</text><polygon fill="#4177AF" points="740.75,1089.9395,736.75,1095.9395,744.75,1095.9395" style="stroke: #1963A0; stroke-width: 2.0;"></polygon><text fill="#C5C8C6" font-family="Consolas" font-size="12" lengthAdjust="spacingAndGlyphs" text-rendering="geometricPrecision" x="749.75" y="1097.4023">reportingEntryPublished(TestIdentifier, ReportEntry) : void</text><rect fill="#1D1F21" height="216.6094" style="stroke: #BBBBBB; stroke-width: 2.0;" width="607" x="63" y="839"></rect><ellipse cx="200.25" cy="855" fill="#B4A7E5" rx="11" ry="11" style="stroke: #BBBBBB; stroke-width: 2.0;"></ellipse><path d="M201.2031,851.6406 L201.2031,858.2969 L202.9219,858.2969 Q203.5313,858.2969 203.7969,858.5313 Q204.0625,858.7656 204.0625,859.1563 Q204.0625,859.5313 203.7969,859.7656 Q203.5313,860 202.9219,860 L197.7813,860 Q197.1719,860 196.9063,859.7656 Q196.6406,859.5313 196.6406,859.1406 Q196.6406,858.7656 196.9063,858.5313 Q197.1719,858.2969 197.7813,858.2969 L199.5,858.2969 L199.5,851.6406 L197.7813,851.6406 Q197.1719,851.6406 196.9063,851.4063 Q196.6406,851.1719 196.6406,850.7813 Q196.6406,850.4063 196.9063,850.1719 Q197.1719,849.9375 197.7813,849.9375 L202.9219,849.9375 Q203.5313,849.9375 203.7969,850.1719 Q204.0625,850.4063 204.0625,850.7813 Q204.0625,851.1719 203.7969,851.4063 Q203.5313,851.6406 202.9219,851.6406 L201.2031,851.6406 Z "></path><text class="interactiveComponent" fill="#B7E9FB" font-family="Consolas" font-size="16" font-style="italic" id="org.junit.platform.launcher.Launcher" lengthAdjust="spacingAndGlyphs" onclick="classElementCallBack('org.junit.platform.launcher.Launcher')" text-rendering="geometricPrecision" x="274.75" y="861.6172">Launcher</text><line style="stroke: #BBBBBB; stroke-width: 2.0;" x1="64" x2="669" y1="871" y2="871"></line><text fill="#22df80" font-family="Consolas" font-size="12" lengthAdjust="spacingAndGlyphs" text-rendering="geometricPrecision" x="69" y="886.9883">/**</text><text fill="#22df80" font-family="Consolas" font-size="12" lengthAdjust="spacingAndGlyphs" text-rendering="geometricPrecision" x="76" y="901.0391">* The {@code Launcher} API is the main entry point for client code that</text><text fill="#22df80" font-family="Consolas" font-size="12" lengthAdjust="spacingAndGlyphs" text-rendering="geometricPrecision" x="76" y="915.0898">* wishes to &lt;em&gt;discover&lt;/em&gt; and &lt;em&gt;execute&lt;/em&gt; tests using one or more</text><text fill="#22df80" font-family="Consolas" font-size="12" lengthAdjust="spacingAndGlyphs" text-rendering="geometricPrecision" x="76" y="929.1406">* {@linkplain org.junit.platform.engine.TestEngine test engines}.</text><text fill="#22df80" font-family="Consolas" font-size="12" lengthAdjust="spacingAndGlyphs" text-rendering="geometricPrecision" x="76" y="943.1914">*</text><text fill="#22df80" font-family="Consolas" font-size="12" lengthAdjust="spacingAndGlyphs" text-rendering="geometricPrecision" x="76" y="957.2422">* &lt;p&gt;Implementations of this interface are responsible for determining</text><text fill="#22df80" font-family="Consolas" font-size="12" lengthAdjust="spacingAndGlyphs" text-rendering="geometricPrecision" x="76" y="971.293">* the set of test engines to delegate to at runtime and for ensuring that</text><text fill="#22df80" font-family="Consolas" font-size="12" lengthAdjust="spacingAndGlyphs" text-rendering="geometricPrecision" x="76" y="985.3438">* each test engine has an {@linkplain org.junit.platform.engine.TestEngine#getId ID}</text><text fill="#22df80" font-family="Consolas" font-size="12" lengthAdjust="spacingAndGlyphs" text-rendering="geometricPrecision" x="76" y="999.3945">* that is unique among the registered test ...</text><line style="stroke: #BBBBBB; stroke-width: 2.0;" x1="64" x2="669" y1="1005.457" y2="1005.457"></line><polygon fill="#4177AF" points="74,1013.9824,70,1019.9824,78,1019.9824" style="stroke: #1963A0; stroke-width: 2.0;"></polygon><text fill="#C5C8C6" font-family="Consolas" font-size="12" lengthAdjust="spacingAndGlyphs" text-rendering="geometricPrecision" x="83" y="1021.4453">registerTestExecutionListeners(TestExecutionListener) : void</text><polygon fill="#4177AF" points="74,1028.0332,70,1034.0332,78,1034.0332" style="stroke: #1963A0; stroke-width: 2.0;"></polygon><text fill="#C5C8C6" font-family="Consolas" font-size="12" lengthAdjust="spacingAndGlyphs" text-rendering="geometricPrecision" x="83" y="1035.4961">discover(LauncherDiscoveryRequest) : TestPlan</text><polygon fill="#4177AF" points="74,1042.084,70,1048.084,78,1048.084" style="stroke: #1963A0; stroke-width: 2.0;"></polygon><text fill="#C5C8C6" font-family="Consolas" font-size="12" lengthAdjust="spacingAndGlyphs" text-rendering="geometricPrecision" x="83" y="1049.5469">execute(LauncherDiscoveryRequest) : void</text><rect fill="#1D1F21" height="286.8633" style="stroke: #BBBBBB; stroke-width: 2.0;" width="565" x="1122.75" y="422.5"></rect><ellipse cx="1180.5" cy="438.5" fill="#B4A7E5" rx="11" ry="11" style="stroke: #BBBBBB; stroke-width: 2.0;"></ellipse><path d="M1181.4531,435.1406 L1181.4531,441.7969 L1183.1719,441.7969 Q1183.7813,441.7969 1184.0469,442.0313 Q1184.3125,442.2656 1184.3125,442.6563 Q1184.3125,443.0313 1184.0469,443.2656 Q1183.7813,443.5 1183.1719,443.5 L1178.0313,443.5 Q1177.4219,443.5 1177.1563,443.2656 Q1176.8906,443.0313 1176.8906,442.6406 Q1176.8906,442.2656 1177.1563,442.0313 Q1177.4219,441.7969 1178.0313,441.7969 L1179.75,441.7969 L1179.75,435.1406 L1178.0313,435.1406 Q1177.4219,435.1406 1177.1563,434.9063 Q1176.8906,434.6719 1176.8906,434.2813 Q1176.8906,433.9063 1177.1563,433.6719 Q1177.4219,433.4375 1178.0313,433.4375 L1183.1719,433.4375 Q1183.7813,433.4375 1184.0469,433.6719 Q1184.3125,433.9063 1184.3125,434.2813 Q1184.3125,434.6719 1184.0469,434.9063 Q1183.7813,435.1406 1183.1719,435.1406 L1181.4531,435.1406 Z "></path><text class="interactiveComponent" fill="#B7E9FB" font-family="Consolas" font-size="16" font-style="italic" id="org.junit.platform.engine.EngineExecutionListener" lengthAdjust="spacingAndGlyphs" onclick="classElementCallBack('org.junit.platform.engine.EngineExecutionListener')" text-rendering="geometricPrecision" x="1251" y="445.1172">EngineExecutionListener</text><line style="stroke: #BBBBBB; stroke-width: 2.0;" x1="1123.75" x2="1686.75" y1="454.5" y2="454.5"></line><text fill="#22df80" font-family="Consolas" font-size="12" lengthAdjust="spacingAndGlyphs" text-rendering="geometricPrecision" x="1128.75" y="470.4883">/**</text><text fill="#22df80" font-family="Consolas" font-size="12" lengthAdjust="spacingAndGlyphs" text-rendering="geometricPrecision" x="1135.75" y="484.5391">* Listener to be notified of test execution events by</text><text fill="#22df80" font-family="Consolas" font-size="12" lengthAdjust="spacingAndGlyphs" text-rendering="geometricPrecision" x="1135.75" y="498.5898">* {@linkplain TestEngine test engines}.</text><text fill="#22df80" font-family="Consolas" font-size="12" lengthAdjust="spacingAndGlyphs" text-rendering="geometricPrecision" x="1135.75" y="512.6406">*</text><text fill="#22df80" font-family="Consolas" font-size="12" lengthAdjust="spacingAndGlyphs" text-rendering="geometricPrecision" x="1135.75" y="526.6914">* &lt;p&gt;Contrary to JUnit 4, {@linkplain TestEngine test engines}</text><text fill="#22df80" font-family="Consolas" font-size="12" lengthAdjust="spacingAndGlyphs" text-rendering="geometricPrecision" x="1135.75" y="540.7422">* must report events not only for {@linkplain TestDescriptor test descriptors}</text><text fill="#22df80" font-family="Consolas" font-size="12" lengthAdjust="spacingAndGlyphs" text-rendering="geometricPrecision" x="1135.75" y="554.793">* that represent executable leaves but also for all intermediate containers.</text><text fill="#22df80" font-family="Consolas" font-size="12" lengthAdjust="spacingAndGlyphs" text-rendering="geometricPrecision" x="1135.75" y="568.8438">*</text><text fill="#22df80" font-family="Consolas" font-size="12" lengthAdjust="spacingAndGlyphs" text-rendering="geometricPrecision" x="1135.75" y="582.8945">* @since 1.0</text><text fill="#22df80" font-family="Consolas" font-size="12" lengthAdjust="spacingAndGlyphs" text-rendering="geometricPrecision" x="1135.75" y="596.9453">* @see TestEngine</text><text fill="#22df80" font-family="Consolas" font-size="12" lengthAdjust="spacingAndGlyphs" text-rendering="geometricPrecision" x="1135.75" y="610.9961">* @see ExecutionRequest</text><text fill="#22df80" font-family="Consolas" font-size="12" lengthAdjust="spacingAndGlyphs" text-rendering="geometricPrecision" x="1135.75" y="625.0469">*/</text><line style="stroke: #BBBBBB; stroke-width: 2.0;" x1="1123.75" x2="1686.75" y1="631.1094" y2="631.1094"></line><polygon fill="#4177AF" points="1133.75,639.6348,1129.75,645.6348,1137.75,645.6348" style="stroke: #1963A0; stroke-width: 2.0;"></polygon><text fill="#C5C8C6" font-family="Consolas" font-size="12" lengthAdjust="spacingAndGlyphs" text-rendering="geometricPrecision" x="1142.75" y="647.0977">dynamicTestRegistered(TestDescriptor) : void</text><polygon fill="#4177AF" points="1133.75,653.6855,1129.75,659.6855,1137.75,659.6855" style="stroke: #1963A0; stroke-width: 2.0;"></polygon><text fill="#C5C8C6" font-family="Consolas" font-size="12" lengthAdjust="spacingAndGlyphs" text-rendering="geometricPrecision" x="1142.75" y="661.1484">executionSkipped(TestDescriptor, String) : void</text><polygon fill="#4177AF" points="1133.75,667.7363,1129.75,673.7363,1137.75,673.7363" style="stroke: #1963A0; stroke-width: 2.0;"></polygon><text fill="#C5C8C6" font-family="Consolas" font-size="12" lengthAdjust="spacingAndGlyphs" text-rendering="geometricPrecision" x="1142.75" y="675.1992">executionStarted(TestDescriptor) : void</text><polygon fill="#4177AF" points="1133.75,681.7871,1129.75,687.7871,1137.75,687.7871" style="stroke: #1963A0; stroke-width: 2.0;"></polygon><text fill="#C5C8C6" font-family="Consolas" font-size="12" lengthAdjust="spacingAndGlyphs" text-rendering="geometricPrecision" x="1142.75" y="689.25">executionFinished(TestDescriptor, TestExecutionResult) : void</text><polygon fill="#4177AF" points="1133.75,695.8379,1129.75,701.8379,1137.75,701.8379" style="stroke: #1963A0; stroke-width: 2.0;"></polygon><text fill="#C5C8C6" font-family="Consolas" font-size="12" lengthAdjust="spacingAndGlyphs" text-rendering="geometricPrecision" x="1142.75" y="703.3008">reportingEntryPublished(TestDescriptor, ReportEntry) : void</text><path d="M685.853,174.017 C763.497,191.232 834.301,207.127 835,208 C879.463,263.497 858.735,300.967 835,368 C770.283,550.772 620.456,718.003 507.638,825.036 " fill="none" style="stroke: #C5C8C6; stroke-width: 2.0; stroke-dasharray: 7.0,7.0;"></path><polygon fill="none" points="512.397,830.17,493.026,838.759,502.812,819.965,512.397,830.17" style="stroke: #C5C8C6; stroke-width: 2.0;"></polygon><path d="M718.163,100.08 C752.673,104.59 776,114.22 776,129 C776,141.813 758.458,150.763 731.293,155.85 " fill="none" style="stroke: #C5C8C6; stroke-width: 2.0;"></path><polygon fill="#C5C8C6" points="718.163,157.916,724.7117,160.9351,730.0172,156.0513,723.4685,153.0322,718.163,157.916" style="stroke: #C5C8C6; stroke-width: 2.0;"></polygon><text fill="#C5C8C6" font-family="Consolas" font-size="16" lengthAdjust="spacingAndGlyphs" text-rendering="geometricPrecision" x="726.3718" y="110.2876">0..1</text><path d="M551.404,337.466 C614.241,420.348 768.38,623.661 881.1,772.34 " fill="none" style="stroke: #C5C8C6; stroke-width: 2.0; stroke-dasharray: 7.0,7.0;"></path><polygon fill="none" points="886.745,768.2,893.25,788.367,875.589,776.658,886.745,768.2" style="stroke: #C5C8C6; stroke-width: 2.0;"></polygon><path d="M670.201,959.26 C688.23,959.27 706.34,959.226 724.303,959.129 " fill="none" style="stroke: #C5C8C6; stroke-width: 2.0;"></path><polygon fill="#C5C8C6" points="729.366,959.1,720.3433,955.1515,724.3661,959.1286,720.389,963.1514,729.366,959.1" style="stroke: #C5C8C6; stroke-width: 2.0;"></polygon><text fill="#C5C8C6" font-family="Consolas" font-size="16" lengthAdjust="spacingAndGlyphs" text-rendering="geometricPrecision" x="677.8399" y="970.8501">0..1</text><path d="M676.559,174.043 C709.949,181.149 744.424,188.099 777,194 C798.647,197.921 859.122,192.774 875,208 C955.654,285.344 989.749,590.561 1003.456,783.129 " fill="none" style="stroke: #C5C8C6; stroke-width: 2.0;"></path><polygon fill="#C5C8C6" points="1003.816,788.224,1007.1737,778.9652,1003.4646,783.2364,999.1934,779.5273,1003.816,788.224" style="stroke: #C5C8C6; stroke-width: 2.0;"></polygon><text fill="#C5C8C6" font-family="Consolas" font-size="16" lengthAdjust="spacingAndGlyphs" text-rendering="geometricPrecision" x="711.8503" y="198.2963">0..1</text><path d="M1109.55,153.08 C1143.38,200.236 1222.96,311.195 1291.02,406.081 " fill="none" style="stroke: #C5C8C6; stroke-width: 2.0; stroke-dasharray: 7.0,7.0;"></path><polygon fill="none" points="1296.73,402.04,1302.7,422.372,1285.36,410.2,1296.73,402.04" style="stroke: #C5C8C6; stroke-width: 2.0;"></polygon><path d="M1090.71,153.079 C1081.83,242.411 1049.2,570.668 1028.85,775.472 " fill="none" style="stroke: #C5C8C6; stroke-width: 2.0;"></path><polygon fill="#C5C8C6" points="1027.56,788.475,1032.1335,782.8998,1028.7462,776.5338,1024.1727,782.109,1027.56,788.475" style="stroke: #C5C8C6; stroke-width: 2.0;"></polygon><text fill="#C5C8C6" font-family="Consolas" font-size="16" lengthAdjust="spacingAndGlyphs" text-rendering="geometricPrecision" x="1065.1113" y="176.9102">0..1</text><path d="M495.721,174.14 C500.72,196.838 506.833,224.591 512.003,248.069 " fill="none" style="stroke: #C5C8C6; stroke-width: 2.0;"></path><polygon fill="#C5C8C6" points="514.844,260.969,517.4601,254.2492,512.2633,249.2498,509.6473,255.9696,514.844,260.969" style="stroke: #C5C8C6; stroke-width: 2.0;"></polygon><text fill="#C5C8C6" font-family="Consolas" font-size="16" lengthAdjust="spacingAndGlyphs" text-rendering="geometricPrecision" x="476.0334" y="198.0753">0..1</text></g></svg>