<svg xmlns="http://www.w3.org/2000/svg" viewBox="0 0 1400 820" width="1400" height="820" font-family="-apple-system, BlinkMacSystemFont, 'Segoe UI', Helvetica, Arial, sans-serif">
  <defs>
    <!-- Stage colors -->
    <!-- Stage 1: Teal #2dd4bf -->
    <!-- Stage 2: Amber #f59e0b -->
    <!-- Stage 3: Violet #8b5cf6 -->
    <!-- Stage 4: Rose #f43f5e -->

    <marker id="arrow-teal" markerWidth="10" markerHeight="7" refX="10" refY="3.5" orient="auto">
      <polygon points="0 0, 10 3.5, 0 7" fill="#2dd4bf"/>
    </marker>
    <marker id="arrow-amber" markerWidth="10" markerHeight="7" refX="10" refY="3.5" orient="auto">
      <polygon points="0 0, 10 3.5, 0 7" fill="#f59e0b"/>
    </marker>
    <marker id="arrow-violet" markerWidth="10" markerHeight="7" refX="10" refY="3.5" orient="auto">
      <polygon points="0 0, 10 3.5, 0 7" fill="#8b5cf6"/>
    </marker>
    <marker id="arrow-rose" markerWidth="10" markerHeight="7" refX="10" refY="3.5" orient="auto">
      <polygon points="0 0, 10 3.5, 0 7" fill="#f43f5e"/>
    </marker>
    <marker id="arrow-gray" markerWidth="10" markerHeight="7" refX="10" refY="3.5" orient="auto">
      <polygon points="0 0, 10 3.5, 0 7" fill="#8b949e"/>
    </marker>
    <marker id="arrow-vault" markerWidth="10" markerHeight="7" refX="10" refY="3.5" orient="auto">
      <polygon points="0 0, 10 3.5, 0 7" fill="#fbbf24"/>
    </marker>

    <!-- Glow filters -->
    <filter id="glow-teal" x="-20%" y="-20%" width="140%" height="140%">
      <feGaussianBlur stdDeviation="3" result="blur"/>
      <feFlood flood-color="#2dd4bf" flood-opacity="0.15"/>
      <feComposite in2="blur" operator="in"/>
      <feMerge><feMergeNode/><feMergeNode in="SourceGraphic"/></feMerge>
    </filter>
    <filter id="glow-amber" x="-20%" y="-20%" width="140%" height="140%">
      <feGaussianBlur stdDeviation="3" result="blur"/>
      <feFlood flood-color="#f59e0b" flood-opacity="0.15"/>
      <feComposite in2="blur" operator="in"/>
      <feMerge><feMergeNode/><feMergeNode in="SourceGraphic"/></feMerge>
    </filter>
    <filter id="glow-violet" x="-20%" y="-20%" width="140%" height="140%">
      <feGaussianBlur stdDeviation="3" result="blur"/>
      <feFlood flood-color="#8b5cf6" flood-opacity="0.15"/>
      <feComposite in2="blur" operator="in"/>
      <feMerge><feMergeNode/><feMergeNode in="SourceGraphic"/></feMerge>
    </filter>
    <filter id="glow-rose" x="-20%" y="-20%" width="140%" height="140%">
      <feGaussianBlur stdDeviation="3" result="blur"/>
      <feFlood flood-color="#f43f5e" flood-opacity="0.15"/>
      <feComposite in2="blur" operator="in"/>
      <feMerge><feMergeNode/><feMergeNode in="SourceGraphic"/></feMerge>
    </filter>

    <!-- Subtle grid pattern -->
    <pattern id="grid" width="40" height="40" patternUnits="userSpaceOnUse">
      <path d="M 40 0 L 0 0 0 40" fill="none" stroke="#21262d" stroke-width="0.5"/>
    </pattern>
  </defs>

  <!-- Background -->
  <rect width="1400" height="820" fill="#0d1117" rx="12"/>
  <rect width="1400" height="820" fill="url(#grid)" rx="12" opacity="0.5"/>

  <!-- Title -->
  <text x="700" y="36" text-anchor="middle" fill="#e6edf3" font-size="18" font-weight="700" letter-spacing="0.5">MLOps Blueprint Pipeline Architecture</text>
  <text x="700" y="54" text-anchor="middle" fill="#8b949e" font-size="11" letter-spacing="0.3">GitHub PR Anomaly Detection with PyTorch Autoencoder</text>

  <!-- ==================== STAGE 1: DATA FETCH ==================== -->
  <g>
    <!-- Stage background -->
    <rect x="30" y="72" width="310" height="345" rx="10" fill="#2dd4bf" fill-opacity="0.04" stroke="#2dd4bf" stroke-opacity="0.25" stroke-width="1.5"/>
    <!-- Stage label -->
    <rect x="30" y="72" width="310" height="28" rx="10" fill="#2dd4bf" fill-opacity="0.12"/>
    <rect x="30" y="90" width="310" height="10" fill="#2dd4bf" fill-opacity="0.12"/>
    <text x="185" y="91" text-anchor="middle" fill="#2dd4bf" font-size="11" font-weight="700" letter-spacing="1">STAGE 1 — DATA FETCH</text>

    <!-- GitHub API box -->
    <rect x="52" y="118" width="118" height="50" rx="6" fill="#161b22" stroke="#30363d" stroke-width="1"/>
    <circle cx="72" cy="136" r="8" fill="none" stroke="#e6edf3" stroke-width="1.2"/>
    <path d="M72 128 L72 132 M68 132 L76 132" stroke="#e6edf3" stroke-width="1.2" transform="rotate(45 72 136)"/>
    <text x="111" y="140" text-anchor="middle" fill="#e6edf3" font-size="10" font-weight="600">GitHub</text>
    <text x="111" y="155" text-anchor="middle" fill="#8b949e" font-size="9">REST API</text>

    <!-- Arrow: GitHub API -> Python -->
    <line x1="170" y1="143" x2="192" y2="143" stroke="#2dd4bf" stroke-width="1.5" marker-end="url(#arrow-teal)"/>

    <!-- Python script box -->
    <rect x="195" y="118" width="125" height="50" rx="6" fill="#161b22" stroke="#2dd4bf" stroke-width="1" filter="url(#glow-teal)"/>
    <text x="210" y="139" fill="#2dd4bf" font-size="9">&#x1F40D;</text>
    <text x="257" y="139" text-anchor="middle" fill="#e6edf3" font-size="10" font-weight="600">fetch_github</text>
    <text x="257" y="154" text-anchor="middle" fill="#8b949e" font-size="9">_data.py</text>

    <!-- Arrow: Python -> MongoDB -->
    <line x1="257" y1="168" x2="257" y2="194" stroke="#2dd4bf" stroke-width="1.5" marker-end="url(#arrow-teal)"/>

    <!-- MongoDB box -->
    <rect x="195" y="198" width="125" height="50" rx="6" fill="#161b22" stroke="#30363d" stroke-width="1"/>
    <!-- MongoDB leaf icon -->
    <path d="M215 218 Q215 210 220 208 Q225 206 225 218 Q225 230 220 232 Q215 230 215 218Z" fill="none" stroke="#4dae50" stroke-width="1"/>
    <text x="260" y="220" text-anchor="middle" fill="#e6edf3" font-size="10" font-weight="600">MongoDB</text>
    <text x="260" y="235" text-anchor="middle" fill="#8b949e" font-size="9">PR Documents</text>

    <!-- GitHub Actions trigger -->
    <rect x="52" y="198" width="118" height="50" rx="6" fill="#161b22" stroke="#30363d" stroke-width="1"/>
    <circle cx="72" cy="223" r="6" fill="none" stroke="#f59e0b" stroke-width="1"/>
    <circle cx="72" cy="223" r="2" fill="#f59e0b"/>
    <text x="111" y="220" text-anchor="middle" fill="#e6edf3" font-size="10" font-weight="600">GitHub</text>
    <text x="111" y="235" text-anchor="middle" fill="#8b949e" font-size="9">Actions CI/CD</text>

    <!-- Dashed arrow: Actions -> Python -->
    <path d="M170 218 L182 218 L182 155 L195 155" fill="none" stroke="#f59e0b" stroke-width="1" stroke-dasharray="4 3" marker-end="url(#arrow-amber)"/>
    <text x="178" y="186" fill="#f59e0b" font-size="8" transform="rotate(-90 178 186)">triggers</text>
  </g>

  <!-- ==================== STAGE 2: SPARK PREPROCESSING ==================== -->
  <g>
    <rect x="370" y="72" width="310" height="345" rx="10" fill="#f59e0b" fill-opacity="0.04" stroke="#f59e0b" stroke-opacity="0.25" stroke-width="1.5"/>
    <rect x="370" y="72" width="310" height="28" rx="10" fill="#f59e0b" fill-opacity="0.12"/>
    <rect x="370" y="90" width="310" height="10" fill="#f59e0b" fill-opacity="0.12"/>
    <text x="525" y="91" text-anchor="middle" fill="#f59e0b" font-size="11" font-weight="700" letter-spacing="1">STAGE 2 — SPARK PREPROCESSING</text>

    <!-- MongoDB read -->
    <rect x="392" y="118" width="110" height="50" rx="6" fill="#161b22" stroke="#30363d" stroke-width="1"/>
    <path d="M410 138 Q410 130 415 128 Q420 126 420 138 Q420 150 415 152 Q410 150 410 138Z" fill="none" stroke="#4dae50" stroke-width="1"/>
    <text x="455" y="140" text-anchor="middle" fill="#e6edf3" font-size="10" font-weight="600">MongoDB</text>
    <text x="455" y="155" text-anchor="middle" fill="#8b949e" font-size="9">Read PRs</text>

    <!-- Arrow: MongoDB -> Spark -->
    <line x1="502" y1="143" x2="528" y2="143" stroke="#f59e0b" stroke-width="1.5" marker-end="url(#arrow-amber)"/>

    <!-- Spark job -->
    <rect x="532" y="118" width="130" height="50" rx="6" fill="#161b22" stroke="#f59e0b" stroke-width="1" filter="url(#glow-amber)"/>
    <!-- Spark lightning icon -->
    <path d="M550 132 L546 143 L553 143 L548 155" fill="none" stroke="#f59e0b" stroke-width="1.5" stroke-linejoin="round"/>
    <text x="597" y="140" text-anchor="middle" fill="#e6edf3" font-size="10" font-weight="600">Apache Spark</text>
    <text x="597" y="155" text-anchor="middle" fill="#8b949e" font-size="9">Feature Eng. Job</text>

    <!-- Arrow: Spark -> Spaces -->
    <line x1="597" y1="168" x2="597" y2="194" stroke="#f59e0b" stroke-width="1.5" marker-end="url(#arrow-amber)"/>

    <!-- DO Spaces -->
    <rect x="532" y="198" width="130" height="50" rx="6" fill="#161b22" stroke="#30363d" stroke-width="1"/>
    <!-- Storage icon -->
    <rect x="547" y="213" width="14" height="10" rx="2" fill="none" stroke="#0069ff" stroke-width="1"/>
    <line x1="549" y1="218" x2="559" y2="218" stroke="#0069ff" stroke-width="0.8"/>
    <text x="597" y="220" text-anchor="middle" fill="#e6edf3" font-size="10" font-weight="600">DO Spaces</text>
    <text x="597" y="235" text-anchor="middle" fill="#8b949e" font-size="9">Parquet Files</text>

    <!-- Feature list -->
    <rect x="392" y="198" width="110" height="90" rx="6" fill="#161b22" stroke="#30363d" stroke-width="1"/>
    <text x="447" y="215" text-anchor="middle" fill="#f59e0b" font-size="9" font-weight="600">FEATURES</text>
    <text x="400" y="230" fill="#8b949e" font-size="8.5">+ additions</text>
    <text x="400" y="243" fill="#8b949e" font-size="8.5">+ deletions</text>
    <text x="400" y="256" fill="#8b949e" font-size="8.5">+ changed_files</text>
    <text x="400" y="269" fill="#8b949e" font-size="8.5">+ labels</text>
    <text x="400" y="282" fill="#8b949e" font-size="8.5">+ author_assoc</text>

    <!-- Dashed arrow from features to Spark -->
    <path d="M502 230 L515 230 L515 143 L532 143" fill="none" stroke="#f59e0b" stroke-width="1" stroke-dasharray="4 3" opacity="0.5"/>
  </g>

  <!-- ==================== STAGE 3: ML TRAINING ==================== -->
  <g>
    <rect x="710" y="72" width="310" height="345" rx="10" fill="#8b5cf6" fill-opacity="0.04" stroke="#8b5cf6" stroke-opacity="0.25" stroke-width="1.5"/>
    <rect x="710" y="72" width="310" height="28" rx="10" fill="#8b5cf6" fill-opacity="0.12"/>
    <rect x="710" y="90" width="310" height="10" fill="#8b5cf6" fill-opacity="0.12"/>
    <text x="865" y="91" text-anchor="middle" fill="#8b5cf6" font-size="11" font-weight="700" letter-spacing="1">STAGE 3 — ML TRAINING</text>

    <!-- DO Spaces input -->
    <rect x="732" y="118" width="118" height="50" rx="6" fill="#161b22" stroke="#30363d" stroke-width="1"/>
    <rect x="747" y="133" width="14" height="10" rx="2" fill="none" stroke="#0069ff" stroke-width="1"/>
    <text x="800" y="140" text-anchor="middle" fill="#e6edf3" font-size="10" font-weight="600">DO Spaces</text>
    <text x="800" y="155" text-anchor="middle" fill="#8b949e" font-size="9">Parquet Input</text>

    <!-- Arrow: Spaces -> PyTorch -->
    <line x1="850" y1="143" x2="870" y2="143" stroke="#8b5cf6" stroke-width="1.5" marker-end="url(#arrow-violet)"/>

    <!-- PyTorch Autoencoder -->
    <rect x="873" y="108" width="130" height="62" rx="6" fill="#161b22" stroke="#8b5cf6" stroke-width="1" filter="url(#glow-violet)"/>
    <text x="938" y="128" text-anchor="middle" fill="#e6edf3" font-size="10" font-weight="600">PyTorch</text>
    <text x="938" y="143" text-anchor="middle" fill="#8b5cf6" font-size="9" font-weight="600">Autoencoder</text>
    <text x="938" y="158" text-anchor="middle" fill="#8b949e" font-size="8">Training Loop</text>

    <!-- Autoencoder Architecture Diagram -->
    <rect x="732" y="185" width="272" height="60" rx="6" fill="#161b22" stroke="#8b5cf6" stroke-opacity="0.3" stroke-width="1"/>
    <text x="868" y="199" text-anchor="middle" fill="#8b5cf6" font-size="8" font-weight="600" letter-spacing="0.5">AUTOENCODER ARCHITECTURE</text>

    <!-- Layer bars -->
    <rect x="750" y="210" width="12" height="28" rx="2" fill="#8b5cf6" fill-opacity="0.5"/>
    <text x="756" y="230" text-anchor="middle" fill="#c4b5fd" font-size="7">1050</text>

    <rect x="790" y="218" width="12" height="12" rx="2" fill="#8b5cf6" fill-opacity="0.7"/>
    <text x="796" y="235" text-anchor="middle" fill="#c4b5fd" font-size="7">64</text>

    <rect x="830" y="222" width="12" height="4" rx="1" fill="#8b5cf6"/>
    <text x="836" y="239" text-anchor="middle" fill="#c4b5fd" font-size="7">32</text>

    <rect x="870" y="218" width="12" height="12" rx="2" fill="#8b5cf6" fill-opacity="0.7"/>
    <text x="876" y="235" text-anchor="middle" fill="#c4b5fd" font-size="7">64</text>

    <rect x="910" y="210" width="12" height="28" rx="2" fill="#8b5cf6" fill-opacity="0.5"/>
    <text x="916" y="230" text-anchor="middle" fill="#c4b5fd" font-size="7">1050</text>

    <!-- Layer labels -->
    <text x="756" y="207" text-anchor="middle" fill="#8b949e" font-size="7">Input</text>
    <text x="796" y="207" text-anchor="middle" fill="#8b949e" font-size="7">Enc</text>
    <text x="836" y="207" text-anchor="middle" fill="#8b949e" font-size="7">Latent</text>
    <text x="876" y="207" text-anchor="middle" fill="#8b949e" font-size="7">Dec</text>
    <text x="916" y="207" text-anchor="middle" fill="#8b949e" font-size="7">Output</text>

    <!-- Connecting lines between layers -->
    <line x1="762" y1="224" x2="790" y2="224" stroke="#8b5cf6" stroke-width="0.8" opacity="0.5"/>
    <line x1="802" y1="224" x2="830" y2="224" stroke="#8b5cf6" stroke-width="0.8" opacity="0.5"/>
    <line x1="842" y1="224" x2="870" y2="224" stroke="#8b5cf6" stroke-width="0.8" opacity="0.5"/>
    <line x1="882" y1="224" x2="910" y2="224" stroke="#8b5cf6" stroke-width="0.8" opacity="0.5"/>

    <!-- Arrow down from architecture to MLflow -->
    <line x1="868" y1="245" x2="868" y2="260" stroke="#8b5cf6" stroke-width="1" stroke-dasharray="3 2"/>

    <!-- MLflow box -->
    <rect x="790" y="263" width="155" height="44" rx="6" fill="#161b22" stroke="#30363d" stroke-width="1"/>
    <text x="867" y="281" text-anchor="middle" fill="#e6edf3" font-size="10" font-weight="600">MLflow</text>
    <text x="867" y="296" text-anchor="middle" fill="#8b949e" font-size="8.5">experiments / metrics / registry</text>

    <!-- Anomaly threshold annotation -->
    <rect x="732" y="315" width="272" height="42" rx="6" fill="#161b22" stroke="#8b5cf6" stroke-opacity="0.2" stroke-width="1"/>
    <text x="740" y="332" fill="#8b5cf6" font-size="8" font-weight="600">ANOMALY THRESHOLD</text>
    <text x="740" y="348" fill="#c4b5fd" font-size="9" font-family="'SF Mono', 'Fira Code', monospace">reconstruction_error &gt; mean + 2*std_dev</text>
  </g>

  <!-- ==================== STAGE 4: MODEL SERVING ==================== -->
  <g>
    <rect x="1050" y="72" width="320" height="345" rx="10" fill="#f43f5e" fill-opacity="0.04" stroke="#f43f5e" stroke-opacity="0.25" stroke-width="1.5"/>
    <rect x="1050" y="72" width="320" height="28" rx="10" fill="#f43f5e" fill-opacity="0.12"/>
    <rect x="1050" y="90" width="320" height="10" fill="#f43f5e" fill-opacity="0.12"/>
    <text x="1210" y="91" text-anchor="middle" fill="#f43f5e" font-size="11" font-weight="700" letter-spacing="1">STAGE 4 — MODEL SERVING</text>

    <!-- Flask API -->
    <rect x="1130" y="118" width="160" height="50" rx="6" fill="#161b22" stroke="#f43f5e" stroke-width="1" filter="url(#glow-rose)"/>
    <text x="1210" y="140" text-anchor="middle" fill="#e6edf3" font-size="10" font-weight="600">Flask API</text>
    <text x="1210" y="155" text-anchor="middle" fill="#8b949e" font-size="9">Autoencoder Serving</text>

    <!-- Arrow down to Argo Rollouts -->
    <line x1="1210" y1="168" x2="1210" y2="192" stroke="#f43f5e" stroke-width="1.5" marker-end="url(#arrow-rose)"/>

    <!-- Argo Rollouts box -->
    <rect x="1130" y="196" width="160" height="44" rx="6" fill="#161b22" stroke="#30363d" stroke-width="1"/>
    <text x="1210" y="214" text-anchor="middle" fill="#e6edf3" font-size="10" font-weight="600">Argo Rollouts</text>
    <text x="1210" y="229" text-anchor="middle" fill="#8b949e" font-size="9">Blue/Green Strategy</text>

    <!-- Arrow down -->
    <line x1="1210" y1="240" x2="1210" y2="256" stroke="#f43f5e" stroke-width="1.5" marker-end="url(#arrow-rose)"/>

    <!-- Two services side by side -->
    <!-- Active (Production) -->
    <rect x="1072" y="260" width="132" height="54" rx="6" fill="#161b22" stroke="#22c55e" stroke-width="1.2"/>
    <circle cx="1088" cy="278" r="4" fill="#22c55e"/>
    <text x="1145" y="280" text-anchor="middle" fill="#22c55e" font-size="9" font-weight="600">ACTIVE</text>
    <text x="1138" y="296" text-anchor="middle" fill="#8b949e" font-size="8">model-serving-prod</text>
    <text x="1138" y="307" text-anchor="middle" fill="#8b949e" font-size="7.5">100% traffic</text>

    <!-- Preview (Staging) -->
    <rect x="1218" y="260" width="132" height="54" rx="6" fill="#161b22" stroke="#f59e0b" stroke-width="1.2"/>
    <circle cx="1234" cy="278" r="4" fill="#f59e0b"/>
    <text x="1291" y="280" text-anchor="middle" fill="#f59e0b" font-size="9" font-weight="600">PREVIEW</text>
    <text x="1284" y="296" text-anchor="middle" fill="#8b949e" font-size="8">model-serving-stage</text>
    <text x="1284" y="307" text-anchor="middle" fill="#8b949e" font-size="7.5">canary test traffic</text>

    <!-- Arrow between services -->
    <line x1="1204" y1="287" x2="1218" y2="287" stroke="#f43f5e" stroke-width="1" stroke-dasharray="4 3" marker-end="url(#arrow-rose)"/>

    <!-- Locust load test box -->
    <rect x="1072" y="328" width="278" height="44" rx="6" fill="#161b22" stroke="#f43f5e" stroke-opacity="0.3" stroke-width="1"/>
    <!-- Locust icon -->
    <text x="1090" y="354" fill="#f43f5e" font-size="10">&#x26A1;</text>
    <text x="1211" y="350" text-anchor="middle" fill="#e6edf3" font-size="10" font-weight="600">Locust Load Tests</text>
    <text x="1211" y="365" text-anchor="middle" fill="#8b949e" font-size="9">run against preview before cutover</text>

    <!-- Dashed arrow from Locust to Preview -->
    <path d="M1211 328 L1211 320 L1284 320 L1284 314" fill="none" stroke="#f43f5e" stroke-width="1" stroke-dasharray="3 2" marker-end="url(#arrow-rose)" opacity="0.6"/>
  </g>

  <!-- ==================== INTER-STAGE FLOW ARROWS ==================== -->
  <!-- Stage 1 -> Stage 2 -->
  <line x1="340" y1="223" x2="368" y2="223" stroke="#8b949e" stroke-width="2" marker-end="url(#arrow-gray)"/>
  <text x="354" y="216" text-anchor="middle" fill="#484f58" font-size="7" font-weight="600">DATA</text>

  <!-- Stage 2 -> Stage 3 -->
  <line x1="680" y1="223" x2="708" y2="223" stroke="#8b949e" stroke-width="2" marker-end="url(#arrow-gray)"/>
  <text x="694" y="216" text-anchor="middle" fill="#484f58" font-size="7" font-weight="600">FEATURES</text>

  <!-- Stage 3 -> Stage 4 -->
  <line x1="1020" y1="223" x2="1048" y2="223" stroke="#8b949e" stroke-width="2" marker-end="url(#arrow-gray)"/>
  <text x="1034" y="216" text-anchor="middle" fill="#484f58" font-size="7" font-weight="600">MODEL</text>

  <!-- ==================== VAULT (spans all stages) ==================== -->
  <g>
    <rect x="52" y="362" width="1298" height="52" rx="8" fill="#1c1506" stroke="#fbbf24" stroke-opacity="0.35" stroke-width="1.5"/>
    <!-- Vault icon -->
    <rect x="68" y="376" width="16" height="16" rx="3" fill="none" stroke="#fbbf24" stroke-width="1.2"/>
    <rect x="73" y="381" width="6" height="6" rx="1" fill="#fbbf24" fill-opacity="0.5"/>
    <text x="96" y="388" fill="#fbbf24" font-size="11" font-weight="700">HashiCorp Vault</text>
    <text x="220" y="388" fill="#8b949e" font-size="9">— All secrets fetched at runtime (VAULT_ADDR, VAULT_ROLE, VAULT_SECRET_PATH). No .env files.</text>

    <!-- Secret arrows going up to each stage -->
    <line x1="185" y1="362" x2="185" y2="348" stroke="#fbbf24" stroke-width="1" stroke-dasharray="3 2" marker-end="url(#arrow-vault)"/>
    <text x="185" y="357" text-anchor="middle" fill="#fbbf24" font-size="7">GitHub Token</text>

    <line x1="525" y1="362" x2="525" y2="348" stroke="#fbbf24" stroke-width="1" stroke-dasharray="3 2" marker-end="url(#arrow-vault)"/>
    <text x="525" y="357" text-anchor="middle" fill="#fbbf24" font-size="7">Storage Creds</text>

    <line x1="865" y1="362" x2="865" y2="348" stroke="#fbbf24" stroke-width="1" stroke-dasharray="3 2" marker-end="url(#arrow-vault)"/>
    <text x="865" y="357" text-anchor="middle" fill="#fbbf24" font-size="7">MLflow Creds</text>

    <line x1="1210" y1="362" x2="1210" y2="348" stroke="#fbbf24" stroke-width="1" stroke-dasharray="3 2" marker-end="url(#arrow-vault)"/>
    <text x="1210" y="357" text-anchor="middle" fill="#fbbf24" font-size="7">API Config</text>
  </g>

  <!-- ==================== BOTTOM PLATFORM BAND ==================== -->
  <g>
    <rect x="30" y="432" width="1340" height="178" rx="10" fill="#161b22" stroke="#21262d" stroke-width="1.5"/>
    <text x="50" y="453" fill="#58a6ff" font-size="11" font-weight="700" letter-spacing="1">PLATFORM LAYER</text>

    <!-- Kubernetes -->
    <rect x="50" y="466" width="220" height="60" rx="6" fill="#0d1117" stroke="#326ce5" stroke-width="1.2"/>
    <!-- K8s wheel icon -->
    <circle cx="78" cy="490" r="10" fill="none" stroke="#326ce5" stroke-width="1.2"/>
    <circle cx="78" cy="490" r="3" fill="#326ce5" fill-opacity="0.5"/>
    <line x1="78" y1="480" x2="78" y2="484" stroke="#326ce5" stroke-width="1"/>
    <line x1="78" y1="496" x2="78" y2="500" stroke="#326ce5" stroke-width="1"/>
    <line x1="68" y1="490" x2="72" y2="490" stroke="#326ce5" stroke-width="1"/>
    <line x1="84" y1="490" x2="88" y2="490" stroke="#326ce5" stroke-width="1"/>
    <text x="160" y="490" text-anchor="middle" fill="#e6edf3" font-size="10" font-weight="600">Kubernetes</text>
    <text x="160" y="506" text-anchor="middle" fill="#8b949e" font-size="8.5">Staging Cluster + Production Cluster</text>
    <text x="160" y="518" text-anchor="middle" fill="#8b949e" font-size="8.5">Separate environments, shared manifests</text>

    <!-- Argo CD -->
    <rect x="290" y="466" width="220" height="60" rx="6" fill="#0d1117" stroke="#ef7c00" stroke-width="1.2"/>
    <text x="400" y="490" text-anchor="middle" fill="#e6edf3" font-size="10" font-weight="600">Argo CD (GitOps)</text>
    <text x="400" y="506" text-anchor="middle" fill="#8b949e" font-size="8.5">Same base manifests</text>
    <text x="400" y="518" text-anchor="middle" fill="#8b949e" font-size="8.5">staging branch / main branch</text>

    <!-- DigitalOcean Container Registry -->
    <rect x="530" y="466" width="220" height="60" rx="6" fill="#0d1117" stroke="#0069ff" stroke-width="1.2"/>
    <rect x="548" y="484" width="14" height="10" rx="2" fill="none" stroke="#0069ff" stroke-width="1"/>
    <text x="640" y="490" text-anchor="middle" fill="#e6edf3" font-size="10" font-weight="600">DO Container Registry</text>
    <text x="640" y="506" text-anchor="middle" fill="#8b949e" font-size="8.5">Single-build artifact</text>
    <text x="640" y="518" text-anchor="middle" fill="#8b949e" font-size="8.5">Same image: staging + production</text>

    <!-- GitHub Actions workflows -->
    <rect x="770" y="466" width="280" height="60" rx="6" fill="#0d1117" stroke="#30363d" stroke-width="1.2"/>
    <text x="910" y="484" text-anchor="middle" fill="#e6edf3" font-size="10" font-weight="600">GitHub Actions Workflows</text>
    <rect x="785" y="494" width="60" height="18" rx="4" fill="#2dd4bf" fill-opacity="0.15" stroke="#2dd4bf" stroke-opacity="0.3" stroke-width="0.8"/>
    <text x="815" y="507" text-anchor="middle" fill="#2dd4bf" font-size="7.5">data-fetch</text>
    <rect x="852" y="494" width="88" height="18" rx="4" fill="#f59e0b" fill-opacity="0.15" stroke="#f59e0b" stroke-opacity="0.3" stroke-width="0.8"/>
    <text x="896" y="507" text-anchor="middle" fill="#f59e0b" font-size="7.5">spark-preprocess</text>
    <rect x="785" y="516" width="72" height="18" rx="4" fill="#8b5cf6" fill-opacity="0.15" stroke="#8b5cf6" stroke-opacity="0.3" stroke-width="0.8"/>
    <text x="821" y="529" text-anchor="middle" fill="#8b5cf6" font-size="7.5">ml-training</text>
    <rect x="863" y="516" width="88" height="18" rx="4" fill="#f43f5e" fill-opacity="0.15" stroke="#f43f5e" stroke-opacity="0.3" stroke-width="0.8"/>
    <text x="907" y="529" text-anchor="middle" fill="#f43f5e" font-size="7.5">model-serving</text>

    <!-- Terraform -->
    <rect x="1070" y="466" width="280" height="60" rx="6" fill="#0d1117" stroke="#7b42bc" stroke-width="1.2"/>
    <text x="1210" y="490" text-anchor="middle" fill="#e6edf3" font-size="10" font-weight="600">Terraform</text>
    <text x="1210" y="506" text-anchor="middle" fill="#8b949e" font-size="8.5">Infrastructure Provisioning</text>
    <text x="1210" y="518" text-anchor="middle" fill="#8b949e" font-size="8.5">Clusters, Spaces, Registry, IAM</text>
  </g>

  <!-- ==================== DESIGN PRINCIPLES (bottom annotations) ==================== -->
  <g>
    <rect x="30" y="624" width="1340" height="90" rx="10" fill="#0d1117" stroke="#21262d" stroke-width="1"/>
    <text x="50" y="646" fill="#e6edf3" font-size="10" font-weight="700" letter-spacing="0.8">KEY DESIGN PRINCIPLES</text>

    <!-- Principle 1 -->
    <rect x="50" y="658" width="12" height="12" rx="2" fill="#22c55e" fill-opacity="0.3" stroke="#22c55e" stroke-width="1"/>
    <text x="52" y="667" fill="#22c55e" font-size="8" font-weight="700">1</text>
    <text x="70" y="668" fill="#c9d1d9" font-size="9">Single-build artifact: same container image promoted from staging to production. No rebuilds.</text>

    <!-- Principle 2 -->
    <rect x="50" y="680" width="12" height="12" rx="2" fill="#58a6ff" fill-opacity="0.3" stroke="#58a6ff" stroke-width="1"/>
    <text x="52" y="689" fill="#58a6ff" font-size="8" font-weight="700">2</text>
    <text x="70" y="690" fill="#c9d1d9" font-size="9">Promotion = git merge (staging branch into main), not a separate deployment or image rebuild.</text>

    <!-- Principle 3 -->
    <rect x="700" y="658" width="12" height="12" rx="2" fill="#fbbf24" fill-opacity="0.3" stroke="#fbbf24" stroke-width="1"/>
    <text x="702" y="667" fill="#fbbf24" font-size="8" font-weight="700">3</text>
    <text x="720" y="668" fill="#c9d1d9" font-size="9">Vault for all secrets. Containers receive VAULT_ADDR + VAULT_ROLE + VAULT_SECRET_PATH only.</text>

    <!-- Principle 4 -->
    <rect x="700" y="680" width="12" height="12" rx="2" fill="#f43f5e" fill-opacity="0.3" stroke="#f43f5e" stroke-width="1"/>
    <text x="702" y="689" fill="#f43f5e" font-size="8" font-weight="700">4</text>
    <text x="720" y="690" fill="#c9d1d9" font-size="9">Blue/Green deployment with load-test gate: no production traffic until preview passes Locust tests.</text>
  </g>

  <!-- ==================== FLOW DIRECTION INDICATOR ==================== -->
  <g opacity="0.6">
    <line x1="30" y1="740" x2="1340" y2="740" stroke="#21262d" stroke-width="0.5"/>
    <line x1="1300" y1="734" x2="1340" y2="740" stroke="#21262d" stroke-width="0.5"/>
    <line x1="1300" y1="746" x2="1340" y2="740" stroke="#21262d" stroke-width="0.5"/>
    <text x="685" y="756" text-anchor="middle" fill="#484f58" font-size="9" letter-spacing="2">DATA FLOW DIRECTION</text>
  </g>

  <!-- ==================== FOOTER ==================== -->
  <text x="700" y="780" text-anchor="middle" fill="#30363d" font-size="9">MLOps Blueprint | github.com/hadi-technology/mlops-blueprint</text>
  <text x="700" y="796" text-anchor="middle" fill="#21262d" font-size="8">1400 x 800 | Dark theme #0d1117</text>

</svg>