<?xml version="1.0" encoding="UTF-8" standalone="no"?>
<!-- Created with Inkscape (http://www.inkscape.org/) -->

<svg
   xmlns:dc="http://purl.org/dc/elements/1.1/"
   xmlns:cc="http://creativecommons.org/ns#"
   xmlns:rdf="http://www.w3.org/1999/02/22-rdf-syntax-ns#"
   xmlns:svg="http://www.w3.org/2000/svg"
   xmlns="http://www.w3.org/2000/svg"
   xmlns:sodipodi="http://sodipodi.sourceforge.net/DTD/sodipodi-0.dtd"
   xmlns:inkscape="http://www.inkscape.org/namespaces/inkscape"
   id="svg2"
   version="1.1"
   inkscape:version="0.91 r13725"
   width="600"
   height="320"
   viewBox="0 0 600 320"
   sodipodi:docname="stem.svg">
  <metadata
     id="metadata8">
    <rdf:RDF>
      <cc:Work
         rdf:about="">
        <dc:format>image/svg+xml</dc:format>
        <dc:type
           rdf:resource="http://purl.org/dc/dcmitype/StillImage" />
        <dc:title></dc:title>
      </cc:Work>
    </rdf:RDF>
  </metadata>
  <defs
     id="defs6" />
  <sodipodi:namedview
     pagecolor="#ffffff"
     bordercolor="#666666"
     borderopacity="1"
     objecttolerance="10"
     gridtolerance="10"
     guidetolerance="10"
     inkscape:pageopacity="0"
     inkscape:pageshadow="2"
     inkscape:window-width="1860"
     inkscape:window-height="1059"
     id="namedview4"
     showgrid="false"
     fit-margin-top="0"
     fit-margin-left="0"
     fit-margin-right="0"
     fit-margin-bottom="0"
     inkscape:zoom="1.6327684"
     inkscape:cx="269.81638"
     inkscape:cy="161.0806"
     inkscape:window-x="1980"
     inkscape:window-y="21"
     inkscape:window-maximized="1"
     inkscape:current-layer="svg2" />
  <rect
     style="fill:#00ceff;fill-opacity:1"
     id="rect4138"
     width="263.64258"
     height="50"
     x="15.923876"
     y="15.218021"
     ry="0" />
  <rect
     style="fill:#00ceff;fill-opacity:1"
     id="rect4138-3"
     width="263.64258"
     height="50"
     x="17.61813"
     y="99.124596" />
  <rect
     style="fill:#00ceff;fill-opacity:1"
     id="rect4138-6"
     width="263.64258"
     height="50"
     x="16.969894"
     y="182.4187" />
  <rect
     style="fill:#00ceff;fill-opacity:1"
     id="rect4138-7"
     width="263.64258"
     height="50.221451"
     x="17.65391"
     y="264.87891" />
  <text
     xml:space="preserve"
     style="font-style:normal;font-variant:normal;font-weight:normal;font-stretch:normal;font-size:45px;line-height:125%;font-family:AlYarmook;-inkscape-font-specification:AlYarmook;letter-spacing:0px;word-spacing:0px;fill:#000000;fill-opacity:1;stroke:none;stroke-width:1px;stroke-linecap:butt;stroke-linejoin:miter;stroke-opacity:1"
     x="48.384083"
     y="-0.9273029"
     id="text4173"
     sodipodi:linespacing="125%"><tspan
       sodipodi:role="line"
       id="tspan4175"
       x="48.384083"
       y="-0.9273029" /><tspan
       sodipodi:role="line"
       x="48.384083"
       y="53.27108"
       id="tspan4185"
       style="font-style:normal;font-variant:normal;font-weight:normal;font-stretch:normal;font-family:Hor;-inkscape-font-specification:Hor">consign<tspan
   style="fill:#ffffff"
   id="tspan4328">ed</tspan></tspan></text>
  <flowRoot
     xml:space="preserve"
     id="flowRoot4177"
     style="font-style:normal;font-variant:normal;font-weight:normal;font-stretch:normal;font-size:45px;line-height:125%;font-family:Lato;-inkscape-font-specification:Lato;letter-spacing:0px;word-spacing:0px;fill:#000000;fill-opacity:1;stroke:none;stroke-width:1px;stroke-linecap:butt;stroke-linejoin:miter;stroke-opacity:1"
     transform="translate(1.8373702,102.51559)"><flowRegion
       id="flowRegion4179"><rect
         id="rect4181"
         width="26.948097"
         height="115.14187"
         x="-112.69204"
         y="-101.60554"
         style="font-style:normal;font-variant:normal;font-weight:normal;font-stretch:normal;font-family:Lato;-inkscape-font-specification:Lato" /></flowRegion><flowPara
       id="flowPara4183"></flowPara></flowRoot>  <text
     xml:space="preserve"
     style="font-style:normal;font-variant:normal;font-weight:normal;font-stretch:normal;font-size:45px;line-height:125%;font-family:AlArabiya;-inkscape-font-specification:AlArabiya;letter-spacing:0px;word-spacing:0px;fill:#000000;fill-opacity:1;stroke:none;stroke-width:1px;stroke-linecap:butt;stroke-linejoin:miter;stroke-opacity:1"
     x="39.752899"
     y="82.951111"
     id="text4173-9"
     sodipodi:linespacing="125%"><tspan
       sodipodi:role="line"
       id="tspan4175-8"
       x="39.752899"
       y="82.951111" /><tspan
       sodipodi:role="line"
       x="39.752899"
       y="137.13921"
       id="tspan4185-3"
       style="font-style:normal;font-variant:normal;font-weight:normal;font-stretch:normal;font-family:Hor;-inkscape-font-specification:Hor">consign<tspan
   style="fill:#ffffff"
   id="tspan4330">ing</tspan></tspan></text>
  <text
     xml:space="preserve"
     style="font-style:normal;font-variant:normal;font-weight:normal;font-stretch:normal;font-size:45px;line-height:125%;font-family:AlYarmook;-inkscape-font-specification:AlYarmook;letter-spacing:0px;word-spacing:0px;fill:#000000;fill-opacity:1;stroke:none;stroke-width:1px;stroke-linecap:butt;stroke-linejoin:miter;stroke-opacity:1"
     x="52.004425"
     y="165.63275"
     id="text4173-9-8"
     sodipodi:linespacing="125%"><tspan
       sodipodi:role="line"
       id="tspan4175-8-5"
       x="52.004425"
       y="165.63275" /><tspan
       sodipodi:role="line"
       x="52.004425"
       y="219.83113"
       id="tspan4185-3-2"
       style="font-style:normal;font-variant:normal;font-weight:normal;font-stretch:normal;font-family:Hor;-inkscape-font-specification:Hor">consign<tspan
   style="fill:#ffffff"
   id="tspan4332">er</tspan></tspan></text>
  <text
     xml:space="preserve"
     style="font-style:normal;font-variant:normal;font-weight:normal;font-stretch:normal;font-size:45px;line-height:125%;font-family:AlYarmook;-inkscape-font-specification:AlYarmook;letter-spacing:0px;word-spacing:0px;fill:#000000;fill-opacity:1;stroke:none;stroke-width:1px;stroke-linecap:butt;stroke-linejoin:miter;stroke-opacity:1"
     x="20.992001"
     y="246.47705"
     id="text4173-9-8-2"
     sodipodi:linespacing="125%"><tspan
       sodipodi:role="line"
       id="tspan4175-8-5-2"
       x="20.992001"
       y="246.47705" /><tspan
       sodipodi:role="line"
       x="20.992001"
       y="300.67545"
       id="tspan4185-3-2-7"
       style="font-style:normal;font-variant:normal;font-weight:normal;font-stretch:normal;font-family:Hor;-inkscape-font-specification:Hor">consign<tspan
   style="fill:#ffffff"
   id="tspan4334">ment</tspan></tspan></text>
  <g
     transform="matrix(2.7937886,0.80771746,-0.80771746,2.7937886,328.23606,15.012534)"
     id="Arrow_Dotted_Right">
    <path
       style="clip-rule:evenodd;fill:#121313;fill-rule:evenodd"
       inkscape:connector-curvature="0"
       d="m 23.091,8.57 c 0.147,-0.366 -0.056,0.134 0,0 l 0,0 z"
       id="path4" />
    <path
       style="clip-rule:evenodd;fill:#121313;fill-rule:evenodd"
       inkscape:connector-curvature="0"
       d="M 31.714,15.283 24.725,8.254 C 24.231,7.736 23.356,7.91 23.091,8.569 23.035,8.703 23.012,8.845 23.016,8.988 l 0,13.98 c -0.024,0.887 1.07,1.38 1.702,0.742 l 6.996,-6.999 c 0.381,-0.385 0.381,-1.042 0,-1.428 z M 25,20.559 25,11.441 29.595,15.997 25,20.559 Z"
       id="path6" />
    <path
       style="clip-rule:evenodd;fill:#121313;fill-rule:evenodd"
       inkscape:connector-curvature="0"
       d="m 19,13 c -1.657,0 -3,1.343 -3,3 0,1.657 1.343,3 3,3 1.657,0 3,-1.343 3,-3 0,-1.657 -1.343,-3 -3,-3 z m 0,4 c -0.552,0 -1,-0.448 -1,-1 0,-0.552 0.448,-1 1,-1 0.552,0 1,0.448 1,1 0,0.552 -0.448,1 -1,1 z"
       id="path8" />
    <path
       style="clip-rule:evenodd;fill:#121313;fill-rule:evenodd"
       inkscape:connector-curvature="0"
       d="m 11,13 c -1.657,0 -3,1.343 -3,3 0,1.657 1.343,3 3,3 1.657,0 3,-1.343 3,-3 0,-1.657 -1.343,-3 -3,-3 z m 0,4 c -0.552,0 -1,-0.448 -1,-1 0,-0.552 0.448,-1 1,-1 0.552,0 1,0.448 1,1 0,0.552 -0.448,1 -1,1 z"
       id="path10" />
    <path
       style="clip-rule:evenodd;fill:#121313;fill-rule:evenodd"
       inkscape:connector-curvature="0"
       d="m 3,13 c -1.657,0 -3,1.343 -3,3 0,1.657 1.343,3 3,3 1.657,0 3,-1.343 3,-3 0,-1.657 -1.343,-3 -3,-3 z m 0,4 c -0.552,0 -1,-0.448 -1,-1 0,-0.552 0.448,-1 1,-1 0.552,0 1,0.448 1,1 0,0.552 -0.448,1 -1,1 z"
       id="path12" />
  </g>
  <g
     transform="matrix(2.6561581,-1.1842661,1.1842661,2.6561581,300.47982,238.55147)"
     id="Arrow_Dotted_Right-9">
    <path
       style="clip-rule:evenodd;fill:#121313;fill-rule:evenodd"
       inkscape:connector-curvature="0"
       d="m 23.091,8.57 c 0.147,-0.366 -0.056,0.134 0,0 l 0,0 z"
       id="path4-4" />
    <path
       style="clip-rule:evenodd;fill:#121313;fill-rule:evenodd"
       inkscape:connector-curvature="0"
       d="M 31.714,15.283 24.725,8.254 C 24.231,7.736 23.356,7.91 23.091,8.569 23.035,8.703 23.012,8.845 23.016,8.988 l 0,13.98 c -0.024,0.887 1.07,1.38 1.702,0.742 l 6.996,-6.999 c 0.381,-0.385 0.381,-1.042 0,-1.428 z M 25,20.559 25,11.441 29.595,15.997 25,20.559 Z"
       id="path6-4" />
    <path
       style="clip-rule:evenodd;fill:#121313;fill-rule:evenodd"
       inkscape:connector-curvature="0"
       d="m 19,13 c -1.657,0 -3,1.343 -3,3 0,1.657 1.343,3 3,3 1.657,0 3,-1.343 3,-3 0,-1.657 -1.343,-3 -3,-3 z m 0,4 c -0.552,0 -1,-0.448 -1,-1 0,-0.552 0.448,-1 1,-1 0.552,0 1,0.448 1,1 0,0.552 -0.448,1 -1,1 z"
       id="path8-6" />
    <path
       style="clip-rule:evenodd;fill:#121313;fill-rule:evenodd"
       inkscape:connector-curvature="0"
       d="m 11,13 c -1.657,0 -3,1.343 -3,3 0,1.657 1.343,3 3,3 1.657,0 3,-1.343 3,-3 0,-1.657 -1.343,-3 -3,-3 z m 0,4 c -0.552,0 -1,-0.448 -1,-1 0,-0.552 0.448,-1 1,-1 0.552,0 1,0.448 1,1 0,0.552 -0.448,1 -1,1 z"
       id="path10-0" />
    <path
       style="clip-rule:evenodd;fill:#121313;fill-rule:evenodd"
       inkscape:connector-curvature="0"
       d="m 3,13 c -1.657,0 -3,1.343 -3,3 0,1.657 1.343,3 3,3 1.657,0 3,-1.343 3,-3 0,-1.657 -1.343,-3 -3,-3 z m 0,4 c -0.552,0 -1,-0.448 -1,-1 0,-0.552 0.448,-1 1,-1 0.552,0 1,0.448 1,1 0,0.552 -0.448,1 -1,1 z"
       id="path12-7" />
  </g>
  <g
     transform="matrix(2.9077324,-0.05248468,0.05248468,2.9077324,297.02081,123.16421)"
     id="Arrow_Dotted_Right-4">
    <path
       style="clip-rule:evenodd;fill:#121313;fill-rule:evenodd"
       inkscape:connector-curvature="0"
       d="m 23.091,8.57 c 0.147,-0.366 -0.056,0.134 0,0 l 0,0 z"
       id="path4-3" />
    <path
       style="clip-rule:evenodd;fill:#121313;fill-rule:evenodd"
       inkscape:connector-curvature="0"
       d="M 31.714,15.283 24.725,8.254 C 24.231,7.736 23.356,7.91 23.091,8.569 23.035,8.703 23.012,8.845 23.016,8.988 l 0,13.98 c -0.024,0.887 1.07,1.38 1.702,0.742 l 6.996,-6.999 c 0.381,-0.385 0.381,-1.042 0,-1.428 z M 25,20.559 25,11.441 29.595,15.997 25,20.559 Z"
       id="path6-7" />
    <path
       style="clip-rule:evenodd;fill:#121313;fill-rule:evenodd"
       inkscape:connector-curvature="0"
       d="m 19,13 c -1.657,0 -3,1.343 -3,3 0,1.657 1.343,3 3,3 1.657,0 3,-1.343 3,-3 0,-1.657 -1.343,-3 -3,-3 z m 0,4 c -0.552,0 -1,-0.448 -1,-1 0,-0.552 0.448,-1 1,-1 0.552,0 1,0.448 1,1 0,0.552 -0.448,1 -1,1 z"
       id="path8-9" />
    <path
       style="clip-rule:evenodd;fill:#121313;fill-rule:evenodd"
       inkscape:connector-curvature="0"
       d="m 11,13 c -1.657,0 -3,1.343 -3,3 0,1.657 1.343,3 3,3 1.657,0 3,-1.343 3,-3 0,-1.657 -1.343,-3 -3,-3 z m 0,4 c -0.552,0 -1,-0.448 -1,-1 0,-0.552 0.448,-1 1,-1 0.552,0 1,0.448 1,1 0,0.552 -0.448,1 -1,1 z"
       id="path10-00" />
    <path
       style="clip-rule:evenodd;fill:#121313;fill-rule:evenodd"
       inkscape:connector-curvature="0"
       d="m 3,13 c -1.657,0 -3,1.343 -3,3 0,1.657 1.343,3 3,3 1.657,0 3,-1.343 3,-3 0,-1.657 -1.343,-3 -3,-3 z m 0,4 c -0.552,0 -1,-0.448 -1,-1 0,-0.552 0.448,-1 1,-1 0.552,0 1,0.448 1,1 0,0.552 -0.448,1 -1,1 z"
       id="path12-2" />
  </g>
  <flowRoot
     xml:space="preserve"
     id="flowRoot4336"
     style="font-style:normal;font-weight:normal;font-size:45px;line-height:125%;font-family:sans-serif;letter-spacing:0px;word-spacing:0px;fill:#000000;fill-opacity:1;stroke:none;stroke-width:1px;stroke-linecap:butt;stroke-linejoin:miter;stroke-opacity:1"
     transform="translate(1.8373702,102.51559)"><flowRegion
       id="flowRegion4338"><rect
         id="rect4340"
         width="300.10382"
         height="75.332176"
         x="-25.723183"
         y="-100.38062" /></flowRegion><flowPara
       id="flowPara4342"></flowPara></flowRoot>  <rect
     style="fill:#00ceff;fill-opacity:1"
     id="rect4138-2"
     width="163.81213"
     height="50"
     x="427.35175"
     y="141.88583"
     ry="0" />
  <text
     xml:space="preserve"
     style="font-style:normal;font-variant:normal;font-weight:normal;font-stretch:normal;font-size:45px;line-height:125%;font-family:AlYarmook;-inkscape-font-specification:AlYarmook;letter-spacing:0px;word-spacing:0px;fill:#000000;fill-opacity:1;stroke:none;stroke-width:1px;stroke-linecap:butt;stroke-linejoin:miter;stroke-opacity:1"
     x="434.08878"
     y="123.29069"
     id="text4173-6"
     sodipodi:linespacing="125%"><tspan
       sodipodi:role="line"
       id="tspan4175-9"
       x="434.08878"
       y="123.29069" /><tspan
       sodipodi:role="line"
       x="434.08878"
       y="177.48906"
       id="tspan4185-0"
       style="font-style:normal;font-variant:normal;font-weight:normal;font-stretch:normal;font-family:Hor;-inkscape-font-specification:Hor">consign<tspan
   style="fill:#ffffff"
   id="tspan4328-3" /></tspan></text>
</svg>
